<svg viewBox="0 0 1000 1000" xmlns="http://www.w3.org/2000/svg"><path d="m967.85 820.51a65.94 65.94 0 0 1 15.43 68.83 65 65 0 0 1 -2.94 6.92 66 66 0 0 1 -41.94 34.42 63 63 0 0 1 -8 1.63 66.07 66.07 0 0 1 -9.06.62h-824.52a65.57 65.57 0 0 1 -42-15.16q-2.37-1.95-4.54-4.13c-.81-.81-1.61-1.64-2.38-2.5-1-1.09-1.93-2.21-2.83-3.37a64.78 64.78 0 0 1 -7.27-11.51c-.27-.54-.53-1.08-.78-1.63q-1.2-2.6-2.16-5.29a65.74 65.74 0 0 1 10.14-62.94c.9-1.16 1.85-2.28 2.83-3.37a65.67 65.67 0 0 1 48.95-21.81h85.86q1.62 0 3.21-.12a42.58 42.58 0 0 0 8.05-1.36 41.77 41.77 0 0 0 6.7-2.42 43.57 43.57 0 0 0 12.62-8.77 43.07 43.07 0 0 0 12.71-30.55 41.74 41.74 0 0 0 -.28-4.9 43.29 43.29 0 0 0 -31.71-36.87 42.85 42.85 0 0 0 -8.05-1.36q-1.59-.12-3.21-.12h-13.48a100 100 0 0 1 -22.31-2.5h-.07l-.51-.12c-.56-.12-1.11-.26-1.66-.4l-.82-.21c-.72-.19-1.44-.38-2.15-.59s-1.2-.35-1.79-.54a97.43 97.43 0 0 1 -13.12-5.05c-.94-.44-1.88-.89-2.8-1.37-1.52-.77-3-1.57-4.48-2.42q-4.15-2.37-8-5.14c-2.16-1.53-4.25-3.15-6.28-4.84q-3.48-2.89-6.68-6.1a99.62 99.62 0 0 1 -29.2-65.27q-.06-1.11-.09-2.22c0-1.09-.06-2.19-.06-3.28 0-.48 0-1 0-1.43a100.82 100.82 0 0 1 .88-12 99.82 99.82 0 0 1 41.36-68.22q3.68-2.62 7.59-4.89c.15-.09.3-.18.46-.26a98.3 98.3 0 0 1 14-6.66c2.1-.81 4.23-1.54 6.39-2.21s4.59-1.31 6.93-1.84a100 100 0 0 1 22.38-2.52h73.66a44.2 44.2 0 0 0 25.52-8.13 44.66 44.66 0 0 0 5.66-4.79 44 44 0 0 0 12.84-28.61c.05-.85.08-1.71.08-2.58a44.13 44.13 0 0 0 -16.53-34.42c-.67-.54-1.35-1-2.05-1.54a42.68 42.68 0 0 0 -8.05-4.53c-.69-.31-1.39-.59-2.1-.85a43.74 43.74 0 0 0 -15.37-2.76h-134.55a104.49 104.49 0 0 1 -36.43-6.46 101.51 101.51 0 0 1 -12-5.35q-2.58-1.35-5.07-2.83-3.55-2.11-6.92-4.5c-1-.68-1.9-1.37-2.83-2.08a100.32 100.32 0 0 1 -8-6.79c-.9-.83-1.78-1.68-2.65-2.55a104.34 104.34 0 0 1 -28.29-51.77q-.18-.79-.33-1.59c-.36-1.76-.67-3.53-.93-5.33a105.67 105.67 0 0 1 -1.11-15.3c0-.4 0-.8 0-1.2a104.1 104.1 0 0 1 23.8-65.23c.94-1.14 1.91-2.27 2.9-3.37 1.26-1.42 2.57-2.8 3.91-4.14.87-.87 1.75-1.72 2.65-2.55l.26-.24c.75-.7 1.5-1.38 2.27-2.05q2.68-2.35 5.52-4.5c.93-.71 1.87-1.4 2.83-2.08s1.74-1.21 2.62-1.8c1.41-.94 2.84-1.85 4.3-2.71l.71-.42c1.43-.84 2.89-1.65 4.36-2.41a99.85 99.85 0 0 1 12-5.34 104 104 0 0 1 36.43-6.53 30 30 0 0 0 3.16-.17 28.55 28.55 0 0 0 8-2.07 29.17 29.17 0 0 0 15.56-15.23 28.83 28.83 0 0 0 2.26-8.51 25.28 25.28 0 0 0 .16-2.77c0-.13 0-.26 0-.39v-20.81a49.82 49.82 0 0 1 2.06-14.23c.13-.43.26-.86.4-1.28a49.89 49.89 0 0 1 43-34.24c1-.09 2-.15 3-.18h1.49 293c1.11 0 2.2 0 3.29.11a48.51 48.51 0 0 1 8.05 1.18 49.86 49.86 0 0 1 23.19 12.57c.27.25.53.51.79.77a49.77 49.77 0 0 1 14.59 33.65v1.67s0 1 0 1.42a49.39 49.39 0 0 0 .7 7c.08.49.18 1 .27 1.47.19.93.41 1.86.64 2.77a49.61 49.61 0 0 0 3.09 8.51c.44.94.91 1.87 1.4 2.77.23.43.47.85.72 1.27a49.27 49.27 0 0 0 5.16 7.24 48.6 48.6 0 0 0 4.6 4.7c.73.66 1.48 1.29 2.24 1.91a49.82 49.82 0 0 0 9 5.68c.63.32 1.27.62 1.92.91a49.71 49.71 0 0 0 20.24 4.27h146.15c2.87 0 5.7.15 8.5.43a82.59 82.59 0 0 1 29 8.51 83.61 83.61 0 0 1 17.51 11.91c.48.43.95.85 1.42 1.29s.79.73 1.17 1.11c.87.83 1.71 1.67 2.51 2.54.32.31.61.63.9 1a.31.31 0 0 1 .1.1c.31.33.61.66.89 1s.72.8 1.06 1.21c.5.57 1 1.15 1.46 1.74.36.43.71.87 1 1.32s.67.86 1 1.3.68.9 1 1.36q.22.28.42.57c.65.92 1.28 1.85 1.89 2.8.4.63.8 1.26 1.19 1.9.68 1.12 1.33 2.26 2 3.41q1.35 2.5 2.54 5.1 1.07 2.31 2 4.7a79.49 79.49 0 0 1 2.75 8.5c.42 1.55.79 3.12 1.11 4.7a79.66 79.66 0 0 1 1.27 8.51 81.31 81.31 0 0 1 .4 8.15v68.31a54.46 54.46 0 0 0 54.5 54.48h83.13a49 49 0 0 1 23.47 6 49.71 49.71 0 0 1 9.7 6.92c.55.5 1.09 1 1.61 1.54a50.65 50.65 0 0 1 3.47 3.85 49.21 49.21 0 0 1 0 61.87 50.65 50.65 0 0 1 -3.47 3.85 49 49 0 0 1 -28.37 14 48.49 48.49 0 0 1 -6.41.42 31.14 31.14 0 0 0 -8.69 1.24 30.35 30.35 0 0 0 -8 3.69c-.77.49-1.51 1-2.23 1.57a30.85 30.85 0 0 0 -11.91 24.38v98.73a63.12 63.12 0 0 1 -14.4 40.24 60.91 60.91 0 0 1 -4.18 4.62 62.63 62.63 0 0 1 -9.47 7.78c-.69.48-1.39.93-2.1 1.37-1 .62-2 1.21-3.07 1.77l-1.46.77a3.37 3.37 0 0 1 -.38.19c-.49.25-1 .49-1.48.72a.48.48 0 0 1 -.18.08c-.55.26-1.1.51-1.65.74s-1.18.5-1.77.73a57.45 57.45 0 0 1 -5.63 1.93 63 63 0 0 1 -6.48 1.52 64.56 64.56 0 0 1 -8.05.9c-1 .05-2.09.08-3.14.08a43.26 43.26 0 0 0 -43 38.35 41.74 41.74 0 0 0 -.28 4.9 43.24 43.24 0 0 0 43.26 43.25h68.52a64.52 64.52 0 0 1 9.06.63 63 63 0 0 1 8 1.62c.89.24 1.77.5 2.65.77a65.78 65.78 0 0 1 26.78 16.21z" fill="#f3f4fe"/><g fill="#eff1fd"><path d="m45 238.63v166.56a100.32 100.32 0 0 1 -8-6.79v-153l.26-.24c.75-.7 1.5-1.38 2.27-2.05q2.68-2.33 5.47-4.48z"/><path d="m37 839.54a65.47 65.47 0 0 1 8-13.14v81.37a64.78 64.78 0 0 1 -7.27-11.51c-.27-.54-.53-1.08-.78-1.63z"/><path d="m119.49 215.1v211.37h-8v-209.3a28.55 28.55 0 0 0 8-2.07z"/><path d="m119 528.17c.15-.09.3-.18.46-.26v173.59q-4.15-2.37-8-5.14v-163.3q3.66-2.63 7.54-4.89z"/><path d="m111.44 801.22h8.05v131.71h-8.05z"/><path d="m193.94 117.44v309h-8.05v-309h1.49z"/><path d="m185.89 514.68h8.05v201.52a42.85 42.85 0 0 0 -8.05-1.36z"/><path d="m185.89 801.1a42.58 42.58 0 0 0 8.05-1.36v133.19h-8.05z"/><path d="m268.38 117.44v317.17a42.68 42.68 0 0 0 -8.05-4.53v-312.64z"/><path d="m260.33 511.07a43.77 43.77 0 0 0 8.05-4.52v426.38h-8.05z"/><path d="m334.78 117.44h8.05v815.49h-8.05z"/><path d="m409.23 117.44h8.05v815.49h-8.05z"/><path d="m491.72 118.73v814.2h-8.05v-815.38a48.51 48.51 0 0 1 8.05 1.18z"/><path d="m566.17 215.32v717.61h-8v-720.77c.63.32 1.27.62 1.92.91a49.26 49.26 0 0 0 6.08 2.25z"/><path d="m632.57 217.34h8.05v715.59h-8.05z"/><path d="m707.01 217.34h8.05v715.59h-8.05z"/><path d="m789.51 246.39v686.54h-8v-694.74c.48.43.95.85 1.42 1.29s.79.73 1.17 1.11c.87.83 1.71 1.67 2.51 2.54.32.31.61.63.9 1a.31.31 0 0 1 .1.1c.31.33.61.66.89 1s.67.77 1.01 1.16z"/><path d="m864 423.28v290.46a64.56 64.56 0 0 1 -8.05.9v-292a54.77 54.77 0 0 0 8.05.64z"/><path d="m855.91 801.22h8.05v131.71h-8.05z"/><path d="m938.4 423.28v99.63a30.35 30.35 0 0 0 -8 3.69v-103.32z"/><path d="m938.4 803.47v127.21a63 63 0 0 1 -8 1.63v-130.46a63 63 0 0 1 8 1.62z"/></g><rect fill="#7986bf" height="17.61" rx="8.8" transform="matrix(-1 0 0 -1 230.93 1884.27)" width="74.06" x="78.43" y="933.33"/><rect fill="#7986bf" height="17.61" rx="8.8" transform="matrix(-1 0 0 -1 1129.27 1884.27)" width="809.94" x="159.67" y="933.33"/><path d="m212.26 173.37h46.1a4.61 4.61 0 0 1 4.64 4.63v110.44a0 0 0 0 1 0 0h-50.74a0 0 0 0 1 0 0v-115.07a0 0 0 0 1 0 0z" fill="#6675ad"/><path d="m209 173.37h46.1a0 0 0 0 1 0 0v115.07a0 0 0 0 1 0 0h-50.75a0 0 0 0 1 0 0v-110.44a4.61 4.61 0 0 1 4.61-4.61z" fill="#7986bf"/><circle cx="229.01" cy="208.9" fill="#6675ad" r="12.18"/><circle cx="229.01" cy="208.9" fill="#f3f4fe" r="5.53"/><circle cx="229.01" cy="265.47" fill="#6675ad" r="19.8"/><circle cx="229.01" cy="265.47" fill="#f3f4fe" r="8.98"/><path d="m311.64 173.37h46.1a4.61 4.61 0 0 1 4.61 4.61v110.46a0 0 0 0 1 0 0h-50.71a0 0 0 0 1 0 0v-115.07a0 0 0 0 1 0 0z" fill="#6675ad"/><path d="m308.34 173.37h46.1a0 0 0 0 1 0 0v115.07a0 0 0 0 1 0 0h-50.71a0 0 0 0 1 0 0v-110.44a4.61 4.61 0 0 1 4.61-4.63z" fill="#7986bf"/><circle cx="328.39" cy="208.9" fill="#6675ad" r="12.18"/><circle cx="328.39" cy="208.9" fill="#f3f4fe" r="5.53"/><circle cx="328.39" cy="265.47" fill="#6675ad" r="19.8"/><circle cx="328.39" cy="265.47" fill="#f3f4fe" r="8.98"/><g fill="#d2d6fa"><path d="m133.15 311.51h299.53l-19.72-23.07h-260.08z"/><path d="m376.58 311.5v30.96l-21.02 14.79v-45.75z"/><path d="m215.38 311.5v45.75l-21.02-14.79v-30.96z"/></g><path d="m194.36 311.5h21.02v9.57h-21.02z" fill="#969ecc"/><path d="m355.56 311.5h21.02v9.57h-21.02z" fill="#969ecc"/><path d="m649.96 306.84h114.11v128.14h-114.11z" fill="#d2d6fa"/><path d="m659.95 318.05h94.14v105.71h-94.14z" fill="#f3f4fe"/><g fill="#d2d6fa"><path d="m687.86 352.58 25.25 46.59-44.98 2.99z"/><path d="m743.01 330.29-17.6 31.87-18.4-24.92z"/><path d="m740.25 377.37-3.69 22-15.7-10.66z"/></g><circle cx="526.28" cy="296.66" fill="#332d52" r="26.68"/><rect fill="#faeede" height="166.15" rx="31.94" transform="matrix(.60903832 .79314079 -.79314079 .60903832 543.73 -194.88)" width="63.88" x="437.61" y="371.04"/><circle cx="429.07" cy="482.92" fill="#f2e6d7" r="34.28"/><g fill="#ef948c"><rect height="166.15" rx="26.37" transform="matrix(.88466236 -.46623224 .46623224 .88466236 -154.98 235.87)" width="52.75" x="372.92" y="348.13"/><rect height="75.11" rx="26.13" transform="matrix(-.39810874 .91733823 -.91733823 -.39810874 846.36 191.25)" width="52.25" x="334.32" y="335.72"/><rect height="71.81" rx="9.45" transform="matrix(-.39810874 .91733823 -.91733823 -.39810874 808.53 169.5)" width="18.9" x="339.21" y="314.08"/></g><rect fill="#ea8681" height="48.33" rx="9.45" transform="matrix(-.83 .55 -.55 -.83 876.08 435.58)" width="18.9" x="362.86" y="325.82"/><circle cx="374.79" cy="368.48" fill="#ea8681" r="18.62"/><rect fill="#f2e6d7" height="166.15" rx="31.94" transform="matrix(.60903832 .79314079 -.79314079 .60903832 543.73 -194.88)" width="63.88" x="437.61" y="371.04"/><circle cx="429.07" cy="482.92" fill="#faeede" r="34.28"/><rect fill="#ef948c" height="166.15" rx="26.37" transform="matrix(.88466236 -.46623224 .46623224 .88466236 -154.98 235.87)" width="52.75" x="372.92" y="348.13"/><rect fill="#ef948c" height="75.11" rx="26.13" transform="matrix(-.39810874 .91733823 -.91733823 -.39810874 846.36 191.25)" width="52.25" x="334.32" y="335.72"/><path d="m326 358.32a26.54 26.54 0 0 1 3.62-6 26.07 26.07 0 0 0 14.61 31.53l2.55 1.11 9.93 4.31 7.23 13.73 43.12 81.83a26.39 26.39 0 0 0 43.94 4.17 26.38 26.38 0 0 1 -48.57 4.63l-50.35-95.56-12.49-5.42a26.09 26.09 0 0 1 -13.59-34.33z" fill="#ea8681"/><g fill="#ef948c"><rect height="71.81" rx="9.45" transform="matrix(-.39810874 .91733823 -.91733823 -.39810874 808.53 169.5)" width="18.9" x="339.21" y="314.08"/><rect height="48.33" rx="9.45" transform="matrix(-.83 .55 -.55 -.83 876.08 435.58)" width="18.9" x="362.86" y="325.82"/><circle cx="374.79" cy="368.48" r="18.62"/></g><circle cx="528.07" cy="431.5" fill="#f2e6d7" r="50.06"/><rect fill="#faeede" height="150.99" rx="52.4" transform="matrix(-.02268733 -.99974261 .99974261 -.02268733 74.07 1123.29)" width="264.34" x="453.91" y="449.95"/><path d="m602.4 346.58a55.9 55.9 0 0 1 55.9 55.9v84.13a55.9 55.9 0 0 1 -55.9 55.9 92.23 92.23 0 0 1 -92.23-92.23v-11.48a92.23 92.23 0 0 1 92.23-92.22z" fill="#faeede" transform="matrix(-.02 -1 1 -.02 153.07 1038.72)"/><path d="m591.57 518.46h.09a92.23 92.23 0 0 0 90.11-94.3 55.9 55.9 0 0 0 -57.15-54.62l-84.11 1.91a55.58 55.58 0 0 0 -11.41 1.44l80.74-1.84h1.3a55.9 55.9 0 0 1 55.86 54.62 92.24 92.24 0 0 1 -75.43 92.79z" fill="#fff7ee"/><path d="m554.35 330.62 1.08 47.64a27.25 27.25 0 0 0 27.29 26.68h.62a27.29 27.29 0 0 0 26.66-27.94l-.36-16.32-.72-31.31a27.29 27.29 0 0 0 -27.29-26.68h-.63a27.31 27.31 0 0 0 -26.65 27.93z" fill="#ef948c"/><rect fill="#332d52" height="282.36" rx="40.76" transform="matrix(-.02268733 -.99974261 .99974261 -.02268733 -81.77 1152.51)" width="85.71" x="479.58" y="475.05"/><path d="m578.13 617.09v255.91h85.72v-255.91a42.86 42.86 0 0 0 -85.72 0z" fill="#666da2"/><path d="m578.13 617.09v255.91h22.29v-217a42.87 42.87 0 0 1 63.43-37.61v-1.34a42.86 42.86 0 0 0 -85.72 0z" fill="#555a8b"/><path d="m578.13 836.12v36.86h85.72v-23.4z" fill="#141334"/><path d="m294.71 844.27 76.41 30.63 8.63-22.37 84.15-218a42.85 42.85 0 1 0 -80-30.86l-78.85 204.38-10.31 26.67z" fill="#332d52"/><path d="m290.53 863.76h64.29v35.22h-64.29z" fill="#ea8681" transform="matrix(-.93289069 -.36015963 .36015963 -.93289069 306.31 1819.82)"/><path d="m588.84 879.66h64.29v32.92h-64.29z" fill="#ef948c" transform="matrix(-1 0 0 -1 1241.98 1792.23)"/><path d="m554.35 330.62 1.08 47.64a27.25 27.25 0 0 0 1.18 7.38h2a64.45 64.45 0 0 0 51-25l-.72-31.31a27.29 27.29 0 0 0 -27.29-26.68h-.6a27.31 27.31 0 0 0 -26.65 27.97z" fill="#ea8681"/><path d="m507 308.3a64.56 64.56 0 0 0 61 64.46c1.15.06 2.3.09 3.47.09a64.55 64.55 0 1 0 0-129.09c-1.17 0-2.32 0-3.47.09a64.55 64.55 0 0 0 -61 64.45z" fill="#ef948c"/><path d="m544.91 325.72a14.38 14.38 0 0 0 4.24 10.18c.33.33.68.64 1 .93a14.34 14.34 0 0 0 9.17 3.27h.59a14.41 14.41 0 0 0 14.32-13.26c0-.4 0-.8 0-1.2a2.79 2.79 0 0 0 -.82-2 2.82 2.82 0 0 0 -2-.81l-23.82.06a2.79 2.79 0 0 0 -2.68 2.83z" fill="#962f4a"/><path d="m559.64 337.88a11.61 11.61 0 0 0 .22 2.22h.08a14.41 14.41 0 0 0 14.32-13.26 11.18 11.18 0 0 0 -3.19-.45 11.46 11.46 0 0 0 -11.43 11.49z" fill="#e1617f"/><path d="m548.22 322.92c.12 2.83 4.49 5.08 9.85 5.07s9.71-2.29 9.81-5.12z" fill="#fff"/><path d="m507 308.3a64.56 64.56 0 0 0 61 64.46c1.78-.09 3.55-.26 5.3-.51a64.55 64.55 0 0 1 0-127.9c-1.75-.24-3.52-.41-5.3-.5a64.55 64.55 0 0 0 -61 64.45z" fill="#ea8681"/><path d="m624.8 423.11v.67c.63 21.32 14.85 38.23 32.21 38.48h1.12c18.06-.47 32.4-18.78 32-40.88-.2-12.24-2.8-22.14-10-29.29a40.38 40.38 0 0 0 -15-8.75 27 27 0 0 0 -14-.36c-15.24 3.68-26.65 20.39-26.33 40.13z" fill="#faeede"/><path d="m623.51 422.28v.68c.55 15.39 8.13 28.55 18.89 35a45.5 45.5 0 0 1 -9-26c0-.23 0-.45 0-.68-.43-20.06 11.24-37 27-40.64a27.44 27.44 0 0 1 5.82-.74 28.51 28.51 0 0 1 8.67 1.17 30.07 30.07 0 0 1 7 3.1 33.39 33.39 0 0 0 -16.89-12.1 28.14 28.14 0 0 0 -14.49-.43c-15.77 3.67-27.44 20.59-27 40.64z" fill="#f2e6d7"/><rect fill="#faeede" height="166.15" rx="31.94" transform="matrix(.90682344 -.42151068 .42151068 .90682344 -134.63 333.66)" width="63.88" x="655.5" y="388.28"/><circle cx="706.72" cy="517.14" fill="#f2e6d7" r="34.28"/><rect fill="#faeede" height="166.15" rx="31.94" transform="matrix(.90682344 -.42151068 .42151068 .90682344 -134.63 333.66)" width="63.88" x="655.5" y="388.28"/><path d="m635.71 414.55a31.94 31.94 0 0 1 55.95 3.64l43.1 92.74a31.89 31.89 0 0 1 1.24 23.88 32.14 32.14 0 0 0 5-17.11 31.69 31.69 0 0 0 -3-13.43l-43.1-92.74a31.93 31.93 0 0 0 -59.15 3z" fill="#fff7ee"/><circle cx="706.72" cy="517.14" fill="#f2e6d7" r="34.28"/><rect fill="#332d52" height="61.84" rx="30.92" transform="matrix(-1 0 0 -1 1139.41 525.17)" width="158.16" x="490.62" y="231.67"/><circle cx="630.74" cy="296.66" fill="#332d52" r="26.68"/><circle cx="635.51" cy="301.43" fill="#49466b" r="21.91"/><circle cx="636.03" cy="308.31" fill="#ef948c" r="21.39"/><path d="m634.35 315v-13.37a2.11 2.11 0 0 1 2.77-2 9.12 9.12 0 0 1 0 17.37 2.12 2.12 0 0 1 -2.77-2z" fill="#ea8681"/><circle cx="526.28" cy="253.18" fill="#332d52" r="40.87"/><path d="m489.13 253.18a34.21 34.21 0 0 0 38.26 34 34.2 34.2 0 0 1 0-67.92 34.21 34.21 0 0 0 -38.26 34z" fill="#49466b"/><g fill="#332d52"><circle cx="558.64" cy="228.46" r="28.12"/><path d="m527.39 303.25a7.59 7.59 0 0 0 15.17 0 7.25 7.25 0 0 0 -.21-1.76 7.58 7.58 0 0 1 -14.75 0 7.25 7.25 0 0 0 -.21 1.76z"/><path d="m569.06 303.25a7.59 7.59 0 0 0 15.18 0 7.25 7.25 0 0 0 -.21-1.76 7.59 7.59 0 0 1 -14.76 0 7.25 7.25 0 0 0 -.21 1.76z"/><path d="m578.14 928.93h81.68a40.85 40.85 0 0 0 -33.9-40.26 41.75 41.75 0 0 0 -6.94-.58 40.83 40.83 0 0 0 -40.84 40.84z"/></g><path d="m578.14 928.93h18.86a42.5 42.5 0 0 1 28.92-40.25 41.75 41.75 0 0 0 -6.94-.58 40.83 40.83 0 0 0 -40.84 40.83z" fill="#49466b"/><path d="m566.83 921.54a12.47 12.47 0 0 0 .24 2.38 11 11 0 0 0 .29 1.13 10 10 0 0 0 .4 1.08 11.47 11.47 0 0 0 1.76 2.91c.24.29.49.56.76.83a9.8 9.8 0 0 0 .84.75 11.69 11.69 0 0 0 7.49 2.69h87.16a8.87 8.87 0 0 0 .44-17.73l-65.34-4.36-21.69-1.45a11.67 11.67 0 0 0 -5.66 1.14 12.85 12.85 0 0 0 -1.48.85 14.85 14.85 0 0 0 -1.33 1 11.34 11.34 0 0 0 -1.17 1.23 10.25 10.25 0 0 0 -.68.91 11.49 11.49 0 0 0 -1.64 3.65 10.46 10.46 0 0 0 -.24 1.14 11.92 11.92 0 0 0 -.15 1.85z" fill="#332d52"/><path d="m566.83 921.54a12.47 12.47 0 0 0 .24 2.38 8.92 8.92 0 0 0 .29 1.13 8.22 8.22 0 0 0 .4 1.08 11.47 11.47 0 0 0 1.76 2.91c.24.29.49.56.76.83a9.8 9.8 0 0 0 .84.75 11.69 11.69 0 0 0 7.49 2.69h27.95a11.77 11.77 0 0 1 -5.69-22.09l-21.69-1.45a11.67 11.67 0 0 0 -5.66 1.14 11.94 11.94 0 0 0 -2.81 1.89 11.34 11.34 0 0 0 -1.17 1.23 8.61 8.61 0 0 0 -.68.91 11.49 11.49 0 0 0 -1.64 3.65 10.46 10.46 0 0 0 -.24 1.14 11.92 11.92 0 0 0 -.15 1.81z" fill="#49466b"/><path d="m286.52 880.09h71.19a0 0 0 0 1 0 0v26.84a0 0 0 0 1 0 0h-59.62a11.57 11.57 0 0 1 -11.57-11.57v-15.27a0 0 0 0 1 0 0z" fill="#49466b" transform="matrix(-.92186315 -.38751559 .38751559 -.92186315 272.81 1842.04)"/><path d="m234.51 880.06 75.3 31.65a40.84 40.84 0 1 0 -75.3-31.65z" fill="#332d52"/><path d="m234.51 880.06 21.16 8.94a40.84 40.84 0 0 1 42.26-24.76 40.85 40.85 0 0 0 -63.42 15.87z" fill="#49466b"/><path d="m354.71 916.1-108.17-51.77a11.78 11.78 0 0 0 -15.94 6.06 11.78 11.78 0 0 0 6.29 15.43l110.55 46.47a8.87 8.87 0 0 0 11.62-4.74 8.88 8.88 0 0 0 -4.35-11.45z" fill="#332d52"/><path d="m230.6 870.4a11.78 11.78 0 0 0 6.29 15.42l25.76 10.83a11.78 11.78 0 0 1 4.12-22.65l-20.22-9.69a11.78 11.78 0 0 0 -15.95 6.09z" fill="#49466b"/><path d="m706.73 565.38 6.75 19.24 11.87 33.89 110.34 314.85h24.61l-84.58-314.85-9.1-33.89-5.17-19.24z" fill="#441242"/><path d="m713.48 584.62 11.87 33.89h50.37l-9.1-33.89z" fill="#2f073a"/><path d="m354.26 565.38-6.75 19.24-11.87 33.89-110.34 314.85h-24.61l84.58-314.85 9.1-33.89 5.17-19.24z" fill="#441242"/><path d="m347.51 584.62-11.87 33.89h-50.37l9.1-33.89z" fill="#2f073a"/><path d="m244.34 565.38h586.17a14.66 14.66 0 0 1 14.67 14.62v19.22a0 0 0 0 1 0 0h-615.51a0 0 0 0 1 0 0v-19.22a14.66 14.66 0 0 1 14.67-14.62z" fill="#441242" transform="matrix(-1 0 0 -1 1074.85 1164.65)"/><rect fill="#d8ba9f" height="26.88" rx="13.44" transform="matrix(-1 0 0 -1 1074.85 1121.98)" width="763.33" x="155.76" y="547.55"/><path d="m155.76 561a13.45 13.45 0 0 0 13.44 13.44h736.45a13.44 13.44 0 0 0 13.44-13.44 13.27 13.27 0 0 0 -.83-4.65 13.43 13.43 0 0 1 -12.61 8.78h-736.45a13.34 13.34 0 0 1 -9.5-3.94 13 13 0 0 1 -3.1-4.84 13.27 13.27 0 0 0 -.84 4.65z" fill="#c89f87"/><circle cx="822.88" cy="586.5" fill="#d8ba9f" r="4.97"/><circle cx="821.8" cy="586.83" fill="#2f073a" r="6.06"/><circle cx="822.88" cy="586.5" fill="#d8ba9f" r="4.97"/><path d="m817.91 586.5a5 5 0 0 0 5 5h.52a5 5 0 0 1 0-9.89 4.53 4.53 0 0 0 -.52 0 5 5 0 0 0 -5 4.89z" fill="#c89f87"/><path d="m822.88 589.22a2.54 2.54 0 0 0 .78.12 2.84 2.84 0 0 0 0-5.68 2.54 2.54 0 0 0 -.78.12 2.82 2.82 0 0 1 0 5.44z" fill="#f5eae4"/><circle cx="795.08" cy="586.5" fill="#d8ba9f" r="4.97"/><circle cx="794" cy="586.83" fill="#2f073a" r="6.06"/><circle cx="795.08" cy="586.5" fill="#d8ba9f" r="4.97"/><path d="m790.12 586.5a5 5 0 0 0 5 5h.52a5 5 0 0 1 0-9.89 4.41 4.41 0 0 0 -.52 0 5 5 0 0 0 -5 4.89z" fill="#c89f87"/><path d="m795.08 589.22a2.54 2.54 0 0 0 .78.12 2.84 2.84 0 0 0 0-5.68 2.54 2.54 0 0 0 -.78.12 2.82 2.82 0 0 1 0 5.44z" fill="#f5eae4"/><circle cx="254.65" cy="586.5" fill="#d8ba9f" r="4.97"/><circle cx="255.73" cy="586.83" fill="#2f073a" r="6.06"/><circle cx="254.65" cy="586.5" fill="#d8ba9f" r="4.97"/><path d="m259.62 586.5a5 5 0 0 1 -5 5h-.52a5 5 0 0 0 0-9.89 4.53 4.53 0 0 1 .52 0 5 5 0 0 1 5 4.89z" fill="#c89f87"/><path d="m254.65 589.22a2.54 2.54 0 0 1 -.78.12 2.84 2.84 0 1 1 0-5.68 2.54 2.54 0 0 1 .78.12 2.83 2.83 0 0 0 0 5.44z" fill="#f5eae4"/><circle cx="282.45" cy="586.5" fill="#d8ba9f" r="4.97"/><circle cx="283.53" cy="586.83" fill="#2f073a" r="6.06"/><circle cx="282.45" cy="586.5" fill="#d8ba9f" r="4.97"/><path d="m287.41 586.5a5 5 0 0 1 -5 5h-.52a5 5 0 0 0 0-9.89 4.53 4.53 0 0 1 .52 0 5 5 0 0 1 5 4.89z" fill="#c89f87"/><path d="m282.45 589.22a2.54 2.54 0 0 1 -.78.12 2.84 2.84 0 0 1 0-5.68 2.54 2.54 0 0 1 .78.12 2.82 2.82 0 0 0 0 5.44z" fill="#f5eae4"/><rect fill="#ea8681" height="48.33" rx="9.45" transform="matrix(.09115401 .99583681 -.99583681 .09115401 1022.69 -105.81)" width="18.9" x="559.86" y="483.25"/><circle cx="586.77" cy="514.02" fill="#ea8681" r="18.62"/><g fill="#ef948c"><rect height="166.15" rx="26.37" transform="matrix(.00994821 -.99995052 .99995052 .00994821 124.94 1170.66)" width="52.75" x="627.24" y="439.16"/><rect height="75.11" rx="26.13" transform="matrix(.61813404 .78607271 -.78607271 .61813404 638.78 -257.23)" width="52.25" x="558.05" y="491.37"/><rect height="71.81" rx="9.45" transform="matrix(.61813404 .78607271 -.78607271 .61813404 628.27 -236.99)" width="18.9" x="548.63" y="492.32"/><rect height="48.33" rx="9.45" transform="matrix(.09115401 .99583681 -.99583681 .09115401 1022.69 -105.81)" width="18.9" x="559.86" y="483.25"/><circle cx="586.77" cy="514.02" r="18.62"/><rect height="166.15" rx="26.37" transform="matrix(.00994821 -.99995052 .99995052 .00994821 124.94 1170.66)" width="52.75" x="627.24" y="439.16"/><rect height="75.11" rx="26.13" transform="matrix(.61813404 .78607271 -.78607271 .61813404 638.78 -257.23)" width="52.25" x="558.05" y="491.37"/></g><path d="m552.05 545.53a26.13 26.13 0 0 0 36.69 4.39l3-2.37 7.68-6 10.82.1 97.18 1a26.38 26.38 0 0 0 26.64-26.11v-.27a26 26 0 0 0 -.78-6.34 26.15 26.15 0 0 1 3.4 12.94v.27a26.38 26.38 0 0 1 -26.63 26.12l-108-1.07-10.7 8.41a26.14 26.14 0 0 1 -41.52-14.28 26.27 26.27 0 0 0 2.22 3.21z" fill="#f3a6a0"/><rect fill="#ef948c" height="71.81" rx="9.45" transform="matrix(.61813404 .78607271 -.78607271 .61813404 628.27 -236.99)" width="18.9" x="548.63" y="492.32"/><rect fill="#f3a6a0" height="31.86" rx="8.25" transform="matrix(.61813404 .78607271 -.78607271 .61813404 642 -256.41)" width="16.5" x="576.68" y="516.71"/><g fill="none" stroke="#fff" stroke-miterlimit="10" stroke-width="2.85"><circle cx="522.31" cy="303.88" r="27.59"/><circle cx="587.41" cy="303.88" r="27.59"/><path d="m549.88 304.96h9.96"/></g><path d="m294.71 844.27 76.41 30.63 8.63-22.37-74.7-44.48-10.31 26.68z" fill="#141334"/><g fill="#abb2d8"><path d="m390.65 531.08h15.64a0 0 0 0 1 0 0v3a5.14 5.14 0 0 1 -5.14 5.14h-5.37a5.14 5.14 0 0 1 -5.14-5.14v-3a0 0 0 0 1 .01 0z" transform="matrix(-1 0 0 -1 796.94 1070.3)"/><path d="m406.29 531.08h15.64a0 0 0 0 1 0 0v3a5.14 5.14 0 0 1 -5.14 5.14h-5.37a5.14 5.14 0 0 1 -5.14-5.14v-3a0 0 0 0 1 .01 0z" transform="matrix(-1 0 0 -1 828.22 1070.3)"/><path d="m421.93 531.08h15.64a0 0 0 0 1 0 0v3a5.14 5.14 0 0 1 -5.14 5.14h-5.37a5.14 5.14 0 0 1 -5.14-5.14v-3a0 0 0 0 1 .01 0z" transform="matrix(-1 0 0 -1 859.51 1070.3)"/><path d="m437.58 531.08h15.64a0 0 0 0 1 0 0v3a5.14 5.14 0 0 1 -5.14 5.14h-5.37a5.14 5.14 0 0 1 -5.14-5.14v-3a0 0 0 0 1 .01 0z" transform="matrix(-1 0 0 -1 890.8 1070.3)"/><path d="m453.22 531.08h15.64a0 0 0 0 1 0 0v3a5.14 5.14 0 0 1 -5.14 5.14h-5.37a5.14 5.14 0 0 1 -5.14-5.14v-3a0 0 0 0 1 .01 0z" transform="matrix(-1 0 0 -1 922.08 1070.3)"/><path d="m468.86 531.08h15.64a0 0 0 0 1 0 0v3a5.14 5.14 0 0 1 -5.14 5.14h-5.36a5.14 5.14 0 0 1 -5.14-5.14v-3a0 0 0 0 1 0 0z" transform="matrix(-1 0 0 -1 953.37 1070.3)"/><path d="m484.51 531.08h15.64a0 0 0 0 1 0 0v3a5.14 5.14 0 0 1 -5.14 5.14h-5.37a5.14 5.14 0 0 1 -5.14-5.14v-3a0 0 0 0 1 0 0z" transform="matrix(-1 0 0 -1 984.65 1070.3)"/></g><rect fill="#5d6295" height="12.75" rx="6.37" transform="matrix(-1 0 0 -1 863.33 1082.36)" width="178.54" x="342.39" y="534.81"/><path d="m391.58 547.55h-149a13.62 13.62 0 0 1 -13.21-10.3l-29-115.36a13.63 13.63 0 0 1 13.22-16.95h131.48a13.62 13.62 0 0 1 13.21 10.3z" fill="#666da2"/><path d="m200.36 421.9 29 115.35a13.65 13.65 0 0 0 13.22 10.31h149l-3.21-12.75h-117.7a13.64 13.64 0 0 1 -13.22-10.31l-29-115.35a13.82 13.82 0 0 1 -.39-4.21h-14.48a13.64 13.64 0 0 0 -13.22 16.96z" fill="#5d6295"/><circle cx="286.64" cy="480.06" fill="#abb2d8" r="7.46"/><path d="m276.66 491.22a14.61 14.61 0 1 0 20.18-20.22 14.62 14.62 0 0 1 -20.18 20.18z" fill="#abb2d8"/><path d="m578.13 879.85h85.72l8.74-22.03-110.06-17.28z" fill="#332d52"/><circle cx="656.73" cy="870.67" fill="#141334" r="5.35"/><circle cx="657.04" cy="872.12" fill="#666da2" r="3.9"/><path d="m657 874.67a3 3 0 0 0 .52.05 2.61 2.61 0 0 0 0-5.21 2.24 2.24 0 0 0 -.52.06 2.61 2.61 0 0 1 0 5.1z" fill="#332d52"/><path d="m657.64 868.86a2.93 2.93 0 0 0 -.67-.07 3.33 3.33 0 0 0 0 6.65 2.93 2.93 0 0 0 .67-.07 3.33 3.33 0 0 1 0-6.51z" fill="#9da5d1"/><path d="m288.31 849.48 79.56 31.89 16.31-17.19-95.73-56.99z" fill="#262344"/><circle cx="365.1" cy="866.98" fill="#141334" r="5.35"/><circle cx="365.41" cy="868.43" fill="#666da2" r="3.9"/><path d="m365.41 871a2.24 2.24 0 0 0 .52.06 2.61 2.61 0 0 0 0-5.21 3 3 0 0 0 -.52 0 2.61 2.61 0 0 1 0 5.1z" fill="#332d52"/><path d="m366 865.17a2.93 2.93 0 0 0 -.67-.07 3.33 3.33 0 0 0 0 6.65 2.93 2.93 0 0 0 .67-.07 3.33 3.33 0 0 1 0-6.51z" fill="#9da5d1"/></svg>