<svg viewBox="0 0 1000 1000" xmlns="http://www.w3.org/2000/svg"><path d="m945.55 584.53a137.73 137.73 0 0 1 -32.55 142.9q-4.18 4.19-8.72 8a137.15 137.15 0 0 1 -84.28 32.24c-1.42 0-2.85.06-4.27.06h-90.38a27 27 0 0 0 -10 1.89 27.3 27.3 0 0 0 -17.35 25.43v63.47a38.44 38.44 0 0 1 -38.41 38.48h-418.31v-101.95a27.32 27.32 0 0 0 -27.28-27.32h-53.7a132.35 132.35 0 0 1 -132.4-132.4v-10.41a137.49 137.49 0 0 1 5.72-40.39 112.89 112.89 0 0 1 13.13-28.38 115.86 115.86 0 0 1 18.47-22q4.3-4 8.87-7.57a139.72 139.72 0 0 1 14.69-10q2.58-1.54 5.17-3c.18-.11.39-.22.58-.32a183.7 183.7 0 0 1 33.81-13.95l.73-.22a43.54 43.54 0 0 0 14.25-7.34 44 44 0 0 0 16.65-29.32 42.61 42.61 0 0 0 .33-5.44v-42.99c0-1.11 0-2.21.09-3.3a63 63 0 0 1 29.59-50.16 56.76 56.76 0 0 1 6-3.29 58.66 58.66 0 0 1 8.46-3.36 62.9 62.9 0 0 1 16-2.83h.26c.89 0 1.78-.06 2.66-.06.93 0 1.86 0 2.77-.08s1.57-.1 2.33-.19a48.63 48.63 0 0 0 38.66-27.21c.57-1.14 1.07-2.3 1.52-3.48a48.35 48.35 0 0 0 3.3-17.61 48.57 48.57 0 0 0 -38.71-47.58c-1.58-.32-3.17-.57-4.78-.74-.78-.08-1.55-.15-2.33-.18s-1.84-.09-2.77-.09h-68a83.42 83.42 0 0 1 -27-4.47 80.73 80.73 0 0 1 -12.05-5.22c-1.83-1-3.63-2-5.36-3.1l-.13-.08a82 82 0 0 1 -10.38-7.73 83.06 83.06 0 0 1 -8.43-8.46c-1.73-2-3.39-4.12-4.93-6.3a83.24 83.24 0 0 1 -8-13.92 79.1 79.1 0 0 1 -3.27-8.56 81.44 81.44 0 0 1 -3.23-13.92 82.6 82.6 0 0 1 -.77-8.54c0-1.11-.07-2.23-.07-3.36a85.5 85.5 0 0 1 .66-10.55 83.32 83.32 0 0 1 1.53-8.54c.38-1.68.84-3.33 1.33-5a85.28 85.28 0 0 1 4.86-12.49 79.87 79.87 0 0 1 4.59-8.19 81.57 81.57 0 0 1 5.73-8c.52-.64 1-1.27 1.58-1.9s1.09-1.25 1.66-1.85a83.32 83.32 0 0 1 61.05-27.15h566.6a97.93 97.93 0 0 1 97.92 97.92c0 38.21 30.92 69.37 69.12 69.29a83.61 83.61 0 1 1 .17 167.28h-178.87a35.77 35.77 0 0 0 -35.76 35.75c0 .65 0 1.3.06 1.94a35.71 35.71 0 0 0 35.7 33.82h106a137 137 0 0 1 87 31 138.58 138.58 0 0 1 21.84 22.4c2.55 3.31 5 6.73 7.24 10.27a136.78 136.78 0 0 1 13.81 28.35z" fill="#f0f3f9"/><rect fill="#34629b" height="17.61" rx="8.8" width="74.06" x="880.75" y="896.96"/><rect fill="#34629b" height="17.61" rx="8.8" width="809.94" x="63.64" y="896.96"/><path d="m558.76 86.58v439.21a8.34 8.34 0 0 1 -8.34 8.35h-485.24q4.3-4 8.87-7.57a139.72 139.72 0 0 1 14.69-10q2.58-1.54 5.17-3c.18-.11.39-.22.58-.32a183.7 183.7 0 0 1 33.81-13.95l.73-.22a43.54 43.54 0 0 0 14.25-7.34 44 44 0 0 0 16.65-29.32 42.61 42.61 0 0 0 .33-5.44v-42.98c0-1.11 0-2.21.09-3.3a63 63 0 0 1 29.59-50.16 56.76 56.76 0 0 1 6-3.29 58.66 58.66 0 0 1 8.46-3.36 62.9 62.9 0 0 1 16-2.83h.26c.89 0 1.78-.06 2.66-.06.93 0 1.86 0 2.77-.08s1.57-.1 2.33-.19a48.63 48.63 0 0 0 38.66-27.21c.57-1.14 1.07-2.3 1.52-3.48a48.35 48.35 0 0 0 3.3-17.61 48.57 48.57 0 0 0 -38.71-47.58c-1.58-.32-3.17-.57-4.78-.74-.78-.08-1.55-.15-2.33-.18s-1.84-.09-2.77-.09h-68a83.42 83.42 0 0 1 -27-4.47 80.73 80.73 0 0 1 -12.05-5.22c-1.83-1-3.63-2-5.36-3.1l-.13-.08a82 82 0 0 1 -10.38-7.73 83.06 83.06 0 0 1 -8.39-8.46c-1.73-2-3.39-4.12-4.93-6.3a83.24 83.24 0 0 1 -8-13.92 79.1 79.1 0 0 1 -3.27-8.56 81.44 81.44 0 0 1 -3.23-13.92 82.6 82.6 0 0 1 -.77-8.54c0-1.11-.07-2.23-.07-3.36a85.5 85.5 0 0 1 .66-10.55 83.32 83.32 0 0 1 1.53-8.54c.38-1.68.84-3.33 1.33-5a85.28 85.28 0 0 1 4.86-12.49 79.87 79.87 0 0 1 4.59-8.19 81.57 81.57 0 0 1 5.73-8c.52-.64 1-1.27 1.58-1.9s1.09-1.25 1.66-1.85a83.32 83.32 0 0 1 61.05-27.15h404z" fill="#6e8ec8"/><path d="m542.53 86.58v418.67.85a5.75 5.75 0 0 1 -.14.83c0 .21-.09.41-.14.61s-.13.39-.18.58a4.83 4.83 0 0 1 -.23.52c-.08.2-.18.4-.27.59a6.12 6.12 0 0 1 -.43.69 5.62 5.62 0 0 1 -.48.64 5 5 0 0 1 -.54.59 6 6 0 0 1 -.58.54c-.22.17-.43.33-.65.48a6.5 6.5 0 0 1 -.68.42 7 7 0 0 1 -.73.35c-.25.1-.51.2-.77.28s-.53.15-.81.21a8.37 8.37 0 0 1 -1.67.17h-440.32c.18-.11.39-.22.58-.32a183.7 183.7 0 0 1 33.81-13.95l.73-.22a43.54 43.54 0 0 0 14.25-7.34 44 44 0 0 0 16.65-29.32 42.61 42.61 0 0 0 .33-5.44v-43.01c0-1.11 0-2.21.09-3.3a63 63 0 0 1 29.59-50.16 56.76 56.76 0 0 1 6-3.29 58.66 58.66 0 0 1 8.46-3.36 62.9 62.9 0 0 1 16-2.83h.26c.89 0 1.78-.06 2.66-.06.93 0 1.86 0 2.77-.08s1.57-.1 2.33-.19a48.63 48.63 0 0 0 38.66-27.21c.57-1.14 1.07-2.3 1.52-3.48a48.35 48.35 0 0 0 3.3-17.61 48.57 48.57 0 0 0 -38.71-47.58c-1.58-.32-3.17-.57-4.78-.74-.78-.08-1.55-.15-2.33-.18s-1.84-.09-2.77-.09h-68a83.42 83.42 0 0 1 -27-4.47 80.73 80.73 0 0 1 -12.05-5.22c-1.83-1-3.63-2-5.36-3.1l-.13-.08a82 82 0 0 1 -10.38-7.73 83.06 83.06 0 0 1 -8.39-8.46c-1.73-2-3.39-4.12-4.93-6.3a83.24 83.24 0 0 1 -8-13.92 79.1 79.1 0 0 1 -3.27-8.56 81.44 81.44 0 0 1 -3.23-13.92 82.6 82.6 0 0 1 -.77-8.54c0-1.11-.07-2.23-.07-3.36a85.5 85.5 0 0 1 .66-10.55 83.32 83.32 0 0 1 1.53-8.54c.38-1.68.84-3.33 1.33-5a85.28 85.28 0 0 1 4.86-12.49 79.87 79.87 0 0 1 4.59-8.19 81.57 81.57 0 0 1 5.73-8c.52-.64 1-1.27 1.58-1.9s1.09-1.25 1.66-1.85a83.32 83.32 0 0 1 61.05-27.15h387.81z" fill="#e9f1ff"/><path d="m542.53 117.27v388a8.36 8.36 0 0 1 -8.34 8.35h-260.43v-348.62l.63-.43 10-6.76 34.61-23.51h55.45l11.33-6.07 5.18-2.77 2.85-1.53 12-6.44 28-15 28.69 6.51v34.54h14.89v-57h25.08l7.83 7.83v22.86z" fill="#b3c9eb"/><path d="m480 184.41v329.19h54.17a8.35 8.35 0 0 0 8.35-8.35v-343.71h-20.67z" fill="#819fcc"/><path d="m318.99 134.3h23.84v379.3h-23.84z" fill="#819fcc"/><path d="m128.3 115.81v133.51a80.73 80.73 0 0 1 -12.05-5.22c-1.83-1-3.63-2-5.36-3.1l-.13-.08a82 82 0 0 1 -10.38-7.73 83.06 83.06 0 0 1 -8.38-8.41c-1.73-2-3.39-4.12-4.93-6.3a83.24 83.24 0 0 1 -8-13.92 79.1 79.1 0 0 1 -3.27-8.56 81.44 81.44 0 0 1 -3.23-13.92 82.6 82.6 0 0 1 -.77-8.54c0-1.11-.07-2.23-.07-3.36a85.5 85.5 0 0 1 .66-10.55 83.32 83.32 0 0 1 1.53-8.54c.38-1.68.84-3.33 1.33-5a85.28 85.28 0 0 1 4.86-12.49l22.14-8.19 21.51-8z" fill="#b3c9eb"/><path d="m94.49 513.28a183.7 183.7 0 0 1 33.81-13.95v14.27h-34.39c.18-.11.39-.22.58-.32z" fill="#b3c9eb"/><path d="m159.93 180.51v73.28h-4.6a83.42 83.42 0 0 1 -27-4.47v-87.78z" fill="#88a5d2"/><path d="m159.93 462.45v51.15h-31.63v-14.27l.73-.22a43.54 43.54 0 0 0 14.25-7.34 44 44 0 0 0 16.65-29.32z" fill="#88a5d2"/><path d="m226.07 149.87v104c-.91-.06-1.84-.09-2.77-.09h-27.38v-116.56l24.44 10.26z" fill="#b3c9eb"/><path d="m223.3 351c.93 0 1.86 0 2.77-.08v162.68h-30.15v-156.36a58.66 58.66 0 0 1 8.46-3.36 62.9 62.9 0 0 1 16-2.83h.26c.89 0 1.78-.06 2.66-.06z" fill="#b3c9eb"/><path d="m195.91 137.22v116.57h-22.37v-108.79l17.84-6.2z" fill="#819fcc"/><path d="m189.94 360.53a56.76 56.76 0 0 1 6-3.29v156.36h-22.39v-138.3a63.17 63.17 0 0 1 16.39-14.77z" fill="#819fcc"/><g fill="#d1def5"><path d="m375.97 149.37h78.71v8.42h-78.71z" transform="matrix(-1 0 0 -1 830.65 307.16)"/><path d="m280.19 197.64 33.6-1.08v-42.98l-33.6 22.6z"/><path d="m375.97 176.93h78.71v8.42h-78.71z" transform="matrix(-1 0 0 -1 830.65 362.28)"/><path d="m375.97 204.49h78.71v8.42h-78.71z" transform="matrix(-1 0 0 -1 830.65 417.4)"/><path d="m375.97 232.05h78.71v8.42h-78.71z" transform="matrix(-1 0 0 -1 830.65 472.52)"/><path d="m375.97 259.61h78.71v8.42h-78.71z" transform="matrix(-1 0 0 -1 830.65 527.63)"/><path d="m375.97 287.17h78.71v8.42h-78.71z" transform="matrix(-1 0 0 -1 830.65 582.75)"/><path d="m375.97 314.72h78.71v8.42h-78.71z" transform="matrix(-1 0 0 -1 830.65 637.87)"/><path d="m375.97 342.28h78.71v8.42h-78.71z" transform="matrix(-1 0 0 -1 830.65 692.99)"/><path d="m375.97 369.84h78.71v8.42h-78.71z" transform="matrix(-1 0 0 -1 830.65 748.11)"/><path d="m375.97 397.4h78.71v8.42h-78.71z" transform="matrix(-1 0 0 -1 830.65 803.22)"/><path d="m375.97 424.96h78.71v8.42h-78.71z" transform="matrix(-1 0 0 -1 830.65 858.34)"/><path d="m375.97 452.52h78.71v8.42h-78.71z" transform="matrix(-1 0 0 -1 830.65 913.46)"/><path d="m375.97 480.08h78.71v8.42h-78.71z" transform="matrix(-1 0 0 -1 830.65 968.58)"/><path d="m280.19 210.1h33.6v68.13h-33.6z" transform="matrix(-1 0 0 -1 593.99 488.33)"/><path d="m280.19 293.92h33.6v68.13h-33.6z" transform="matrix(-1 0 0 -1 593.99 655.96)"/><path d="m280.19 377.73h33.6v68.13h-33.6z" transform="matrix(-1 0 0 -1 593.99 823.59)"/><path d="m280.19 456.73h33.6v41.5h-33.6z" transform="matrix(-1 0 0 -1 593.99 954.96)"/><path d="m100.49 151.1h15.75v8.54h-15.75z" transform="matrix(-1 0 0 -1 216.73 310.73)"/><path d="m222.17 170.41h-21.91v-24.98l21.91 10.28z"/><path d="m87.08 151.1v8.54h-14.69a83.32 83.32 0 0 1 1.53-8.54z"/><path d="m100.49 173.55h15.75v8.54h-15.75z" transform="matrix(-1 0 0 -1 216.73 355.64)"/><path d="m87.08 173.55v8.54h-14.51a82.6 82.6 0 0 1 -.77-8.54z"/><path d="m100.49 196.01h15.75v8.54h-15.75z" transform="matrix(-1 0 0 -1 216.73 400.55)"/><path d="m87.08 196v8.53h-8a79.1 79.1 0 0 1 -3.28-8.53z"/><path d="m100.49 218.46h15.75v8.54h-15.75z" transform="matrix(-1 0 0 -1 216.73 445.46)"/><path d="m87.08 218.46s0 0 0 0z"/><path d="m116.25 240.92v3.18c-1.83-1-3.63-2-5.36-3.1l-.13-.08z"/><path d="m200.26 177.82h21.91v12.29h-21.91z" transform="matrix(-1 0 0 -1 422.42 367.93)"/><path d="m214.12 198.84h8.05v12.29h-8.05z" transform="matrix(-1 0 0 -1 436.29 409.96)"/><path d="m200.26 198.84h8.05v12.29h-8.05z" transform="matrix(-1 0 0 -1 408.56 409.96)"/><path d="m200.26 223.11h21.91v12.29h-21.91z" transform="matrix(-1 0 0 -1 422.42 458.51)"/><path d="m214.11 244.12h8.05v9.67h-8.05z"/><path d="m200.26 244.12h8.05v9.67h-8.05z"/><path d="m200.26 358.26h21.91v12.29h-21.91z" transform="matrix(-1 0 0 -1 422.42 728.8)"/><path d="m214.12 379.27h8.05v12.29h-8.05z" transform="matrix(-1 0 0 -1 436.29 770.83)"/><path d="m200.26 379.27h8.05v12.29h-8.05z" transform="matrix(-1 0 0 -1 408.56 770.83)"/><path d="m200.26 403.19h21.91v12.29h-21.91z" transform="matrix(-1 0 0 -1 422.42 818.66)"/><path d="m214.12 424.2h8.05v12.29h-8.05z" transform="matrix(-1 0 0 -1 436.29 860.69)"/><path d="m200.26 424.2h8.05v12.29h-8.05z" transform="matrix(-1 0 0 -1 408.56 860.69)"/><path d="m200.26 448.12h21.91v12.29h-21.91z" transform="matrix(-1 0 0 -1 422.42 908.52)"/><path d="m214.12 469.13h8.05v12.29h-8.05z" transform="matrix(-1 0 0 -1 436.29 950.55)"/><path d="m200.26 469.13h8.05v12.29h-8.05z" transform="matrix(-1 0 0 -1 408.56 950.55)"/></g><g fill="#fff"><path d="m542.53 413.54v91.71a8.36 8.36 0 0 1 -8.34 8.35l-54.19-77.17-25.32-36.07-2.09-3-13.43-19.14-5.91-8.42-13.44-19.1-5.9-8.42-13.43-19.13-5.93-8.43-.74-1.06-8-11.43-4.66-6.64-5.15-7.35-33.18-47.24-23.82-33.91-7.35-10.47-19.85-28.25-7.44-10.61-22.67-32.3-5.61-8-21.69-30.88h78.61l21.7 30.91 5.59 8 6.21 8.84 29.93 42.63 5.9 8.42 3.46 4.93 8 11.44 1.95 2.77 5.92 8.42 13.43 19.14 5.92 8.42 13.43 19.14 5.92 8.42 13.42 19.14.89 1.25 25.33 36.04z" opacity=".51"/><path d="m519.47 513.6h-37.62l-1.85-2.62-35.12-50.04-5.92-8.42-13.44-19.14-5.9-8.42-13.44-19.14-5.92-8.42-6.45-9.19-6.99-9.95-1.03-1.48-4.87-6.94-38.1-54.25-23.82-33.95-5.2-7.4-33.61-47.86-6.44-9.17-45.35-64.61-8.03-11.44-11.03-15.7-5.59-7.97-21.71-30.91h37.62l.71 1 8.03 11.43 12.97 18.48 5.6 7.97 27.41 39.06 7.43 10.57 15.44 22 9.13 13.01 7.42 10.55 5.2 7.41 23.82 33.94 37.01 52.72 5.92 8.43.04.04 8.02 11.44 5.38 7.65 5.91 8.42 13.44 19.14 5.9 8.42 13.44 19.14 5.92 8.42 36.2 51.58z" opacity=".51"/><path d="m454.51 513.6h-23.25l-17.61-25.1-5.91-8.42-13.44-19.14-.49-.68-5.42-7.74-2.61-3.7-43-61.19-23.78-33.94-5.2-7.41-33.6-47.85-6.44-9.18-45.36-64.6-2.33-3.31-5.71-8.13-1.46-2.09-4.79-6.81-10-14.2-3.89-5.54-4.34-6.19-22.37-31.86-14.79-21.06-5.59-8-19.68-28a83.47 83.47 0 0 1 21.23-2.88l21.7 30.9 5.59 8 9.37 13.34 4.54 6.47 4.34 6.18 13.3 19 5.2 7.41 1.6 2.28 1.81 2.56 3.9 5.57 2.33 3.3 45.36 64.61 6.44 9.18 9.06 12.91 11 15.69 13.52 19.26 5.2 7.4 23.82 33.95 33.24 47.14 2.86 4.09 6.95 9.9 6.5 9.24 1.53 2.19 4.38 6.23 13.43 19.14 5.91 8.42 13.44 19.14 5.91 8.42z" opacity=".51"/></g><g fill="#6e8ec8"><path d="m548.12 117.49v8h-463.42a81.57 81.57 0 0 1 5.73-8z"/><path d="m226.07 350.9c.78 0 1.57-.1 2.33-.19v162.89h-8v-162.55h.26c.89 0 1.78-.06 2.66-.06.91.01 1.84.01 2.75-.09z"/><path d="m228.4 86.73v167.33c-.78-.08-1.55-.15-2.33-.18s-1.84-.09-2.77-.09h-2.94v-167.18z"/><path d="m385.78 86.58h8.03v427.02h-8.03z"/></g><path d="m98.49 651.78q2.73 2.22 5.34 4.55a181.8 181.8 0 0 1 16.25 16.24 187 187 0 0 1 29 43.9 187 187 0 0 1 18 80.12v39.47a91.93 91.93 0 0 1 -16 51.88h60.77a91.81 91.81 0 0 1 -16-51.88v-39.47a187.08 187.08 0 0 1 47-124 181.8 181.8 0 0 1 16.15-16.26q2.61-2.33 5.34-4.55z" fill="#547dba"/><path d="m98.49 651.78q2.73 2.22 5.34 4.55h15.53q-2.62-2.33-5.34-4.55z" fill="#34629b"/><rect fill="#6e8ec8" height="9.12" rx="4.56" transform="matrix(-1 0 0 -1 362.81 1784.98)" width="97.58" x="132.62" y="887.93"/><path d="m132.62 892.49a4.56 4.56 0 0 0 4.55 4.56h30.73a4.56 4.56 0 1 1 0-9.11h-30.73a4.54 4.54 0 0 0 -4.55 4.55z" fill="#547dba"/><rect fill="#6e8ec8" height="19" rx="9.5" transform="matrix(-1 0 0 -1 362.81 1293.68)" width="210.07" x="76.37" y="637.34"/><path d="m76.37 646.84a9.49 9.49 0 0 0 9.5 9.49h48.95a9.49 9.49 0 1 1 0-19h-48.95a9.47 9.47 0 0 0 -9.5 9.49z" fill="#547dba"/><path d="m103.83 656.33a181.8 181.8 0 0 1 16.25 16.24 187 187 0 0 1 29 43.9 187 187 0 0 1 18 80.12v39.47a91.93 91.93 0 0 1 -16 51.88h15.53a91.93 91.93 0 0 0 16-51.88v-39.47a187 187 0 0 0 -18-80.12c-.08-.16-.15-.32-.23-.47-9.61-20.15 4.86-43.43 27.18-43.43h51.19a181.8 181.8 0 0 1 16.25-16.24z" fill="#34629b"/><path d="m696.54 651.78q2.73 2.22 5.34 4.55a181.8 181.8 0 0 1 16.25 16.24 187.13 187.13 0 0 1 47 124v39.47a91.86 91.86 0 0 1 -16.06 51.88h60.77a92 92 0 0 1 -16.05-51.88v-39.45a187 187 0 0 1 47-124 183 183 0 0 1 16.21-16.26q2.63-2.33 5.34-4.55z" fill="#547dba"/><path d="m696.54 651.78q2.73 2.22 5.34 4.55h15.53q-2.61-2.33-5.34-4.55z" fill="#34629b"/><rect fill="#6e8ec8" height="9.12" rx="4.56" transform="matrix(-1 0 0 -1 1558.92 1784.98)" width="97.58" x="730.67" y="887.93"/><path d="m730.67 892.49a4.56 4.56 0 0 0 4.55 4.56h30.78a4.56 4.56 0 1 1 0-9.11h-30.78a4.56 4.56 0 0 0 -4.55 4.55z" fill="#547dba"/><rect fill="#6e8ec8" height="19" rx="9.5" transform="matrix(-1 0 0 -1 1558.92 1293.68)" width="210.07" x="674.43" y="637.34"/><path d="m674.42 646.84a9.5 9.5 0 0 0 9.51 9.49h48.94a9.49 9.49 0 1 1 0-19h-48.94a9.49 9.49 0 0 0 -9.51 9.49z" fill="#547dba"/><path d="m701.88 656.33a181.8 181.8 0 0 1 16.25 16.24 187.13 187.13 0 0 1 47 124v39.47a91.86 91.86 0 0 1 -16.06 51.88h15.53a91.94 91.94 0 0 0 16.06-51.88v-39.45a187 187 0 0 0 -18-80.12c-.07-.16-.15-.32-.23-.47-9.61-20.15 4.86-43.43 27.18-43.43h51.2a183 183 0 0 1 16.19-16.24z" fill="#34629b"/><path d="m380.84 536.08q4 3.27 7.86 6.7a270.9 270.9 0 0 1 23.91 23.89 275.48 275.48 0 0 1 69.17 182.53v58.08a135.28 135.28 0 0 1 -23.63 76.36h89.43a135.21 135.21 0 0 1 -23.58-76.36v-58.08a275.39 275.39 0 0 1 69.16-182.53 270.9 270.9 0 0 1 23.84-23.89q3.86-3.42 7.86-6.7z" fill="#547dba"/><path d="m380.84 536.08q4 3.27 7.86 6.7h22.85q-3.85-3.42-7.86-6.7z" fill="#34629b"/><rect fill="#6e8ec8" height="13.42" rx="6.71" transform="matrix(-1 0 0 -1 1005.73 1780.68)" width="143.61" x="431.06" y="883.63"/><path d="m431.06 890.34a6.71 6.71 0 0 0 6.71 6.71h45.23a6.71 6.71 0 0 1 0-13.41h-45.23a6.71 6.71 0 0 0 -6.71 6.7z" fill="#547dba"/><rect fill="#6e8ec8" height="20.01" rx="10" transform="matrix(-1 0 0 -1 1005.73 1065.57)" width="432.86" x="286.44" y="522.78"/><path d="m286.44 532.78a10 10 0 0 0 10 10h118.09a10 10 0 0 1 0-20h-118.09a10 10 0 0 0 -10 10z" fill="#547dba"/><path d="m388.7 542.78a270.9 270.9 0 0 1 23.91 23.89 275.48 275.48 0 0 1 69.17 182.53v58.08a135.28 135.28 0 0 1 -23.63 76.36h22.85a135.28 135.28 0 0 0 23.63-76.36v-58.08a275.21 275.21 0 0 0 -26.51-117.91c-.12-.23-.23-.47-.34-.7-14.14-29.64 7.15-63.92 40-63.92h75.34a270.9 270.9 0 0 1 23.88-23.89z" fill="#34629b"/><g fill="#d7e2ff"><path d="m410.77 509.63h4.29a4.1 4.1 0 0 1 4.1 4.1v2.39a0 0 0 0 1 0 0h-12.49a0 0 0 0 1 0 0v-2.39a4.1 4.1 0 0 1 4.1-4.1z"/><path d="m398.28 509.63h4.29a4.1 4.1 0 0 1 4.1 4.1v2.39a0 0 0 0 1 0 0h-12.49a0 0 0 0 1 0 0v-2.39a4.1 4.1 0 0 1 4.1-4.1z"/><path d="m385.79 509.63h4.29a4.1 4.1 0 0 1 4.1 4.1v2.39a0 0 0 0 1 0 0h-12.49a0 0 0 0 1 0 0v-2.39a4.1 4.1 0 0 1 4.1-4.1z"/><path d="m373.3 509.63h4.29a4.1 4.1 0 0 1 4.1 4.1v2.39a0 0 0 0 1 0 0h-12.49a0 0 0 0 1 0 0v-2.39a4.1 4.1 0 0 1 4.1-4.1z"/><path d="m360.82 509.63h4.29a4.1 4.1 0 0 1 4.1 4.1v2.39a0 0 0 0 1 0 0h-12.5a0 0 0 0 1 0 0v-2.39a4.1 4.1 0 0 1 4.1-4.1z"/><path d="m348.33 509.63h4.29a4.1 4.1 0 0 1 4.1 4.1v2.39a0 0 0 0 1 0 0h-12.49a0 0 0 0 1 0 0v-2.39a4.1 4.1 0 0 1 4.1-4.1z"/><path d="m335.84 509.63h4.29a4.1 4.1 0 0 1 4.1 4.1v2.39a0 0 0 0 1 0 0h-12.49a0 0 0 0 1 0 0v-2.39a4.1 4.1 0 0 1 4.1-4.1z"/></g><rect fill="#4970db" height="10.18" rx="5.09" width="142.53" x="315.14" y="512.61"/><path d="m418.41 522.78h118.92a10.88 10.88 0 0 0 10.55-8.22l23.18-92.09a10.89 10.89 0 0 0 -10.55-13.54h-105a10.88 10.88 0 0 0 -10.51 8.23z" fill="#5476ef"/><path d="m571.06 422.47-23.18 92.09a10.89 10.89 0 0 1 -10.55 8.22h-118.92l2.59-10.17h94a10.88 10.88 0 0 0 10.55-8.23l23.18-92.09a11 11 0 0 0 .31-3.36h11.46a10.89 10.89 0 0 1 10.56 13.54z" fill="#4970db"/><circle cx="502.18" cy="468.9" fill="#d7e2ff" r="5.95"/><path d="m510.15 477.82a11.67 11.67 0 1 1 -16.15-16.12 11.67 11.67 0 0 0 16.11 16.12z" fill="#d7e2ff"/><circle cx="229.82" cy="345.89" fill="#f4ad18" r="21.3"/><rect fill="#faeede" height="132.64" rx="25.5" transform="matrix(-.60903832 .79314079 -.79314079 -.60903832 823.22 553.86)" width="51" x="249.61" y="413.5"/><circle cx="307.43" cy="502.81" fill="#f2e6d7" r="27.36"/><g fill="#ffb2bf"><rect height="132.64" rx="21.05" transform="matrix(-.88466236 -.46623224 .46623224 -.88466236 409.03 1024.23)" width="42.11" x="310.13" y="395.21"/><rect height="59.96" rx="20.86" transform="matrix(.39810874 .91733823 -.91733823 .39810874 598.94 -82.32)" width="41.71" x="341.35" y="385.3"/><rect height="57.33" rx="7.54" transform="matrix(.39810874 .91733823 -.91733823 .39810874 587.54 -102.14)" width="15.09" x="364.07" y="368.02"/></g><rect fill="#e1303e" height="132.64" rx="25.5" transform="matrix(-.60903832 .79314079 -.79314079 -.60903832 823.22 553.86)" width="51" x="249.61" y="413.5"/><circle cx="307.43" cy="502.81" fill="#f63e4a" r="27.36"/><rect fill="#ffb2bf" height="132.64" rx="21.05" transform="matrix(-.88466236 -.46623224 .46623224 -.88466236 409.03 1024.23)" width="42.11" x="310.13" y="395.21"/><rect fill="#ffb2bf" height="59.96" rx="20.86" transform="matrix(.39810874 .91733823 -.91733823 .39810874 598.94 -82.32)" width="41.71" x="341.35" y="385.3"/><path d="m389.71 403.34a20.77 20.77 0 0 0 -2.89-4.79 20.65 20.65 0 0 1 .9 6 20.87 20.87 0 0 1 -12.56 19.14l-2 .88-7.93 3.44-5.77 11-34.46 65.32a21.06 21.06 0 0 1 -35.05 3.36 21.05 21.05 0 0 0 38.77 3.7l40.2-76.29 10-4.32a20.84 20.84 0 0 0 10.83-27.44z" fill="#fc9aaf"/><rect fill="#ffb2bf" height="57.33" rx="7.54" transform="matrix(.39810874 .91733823 -.91733823 .39810874 587.54 -102.14)" width="15.09" x="364.07" y="368.02"/><circle cx="228.39" cy="461.76" fill="#e1303e" r="39.96"/><rect fill="#f63e4a" height="120.54" rx="41.83" transform="matrix(.02268733 -.99974261 .99974261 .02268733 -358.67 706.61)" width="211.02" x="76.57" y="476.49"/><path d="m198 394a44.63 44.63 0 0 1 44.63 44.63v67.16a44.63 44.63 0 0 1 -44.63 44.59 73.63 73.63 0 0 1 -73.63-73.63v-9.16a73.63 73.63 0 0 1 73.63-73.59z" fill="#f63e4a" transform="matrix(.02268733 -.99974261 .99974261 .02268733 -292.67 644.96)"/><path d="m207.41 381.23-.86 38a21.75 21.75 0 0 1 -21.79 21.3h-.49a21.78 21.78 0 0 1 -21.27-22.27l.29-13 .57-25a21.78 21.78 0 0 1 21.78-21.3h.5a21.79 21.79 0 0 1 21.27 22.27z" fill="#ffb2bf"/><rect fill="#252849" height="225.4" rx="32.54" transform="matrix(.02268733 -.99974261 .99974261 .02268733 -381.47 828.22)" width="68.42" x="198.67" y="496.52"/><path d="m188.43 609.92v239h-68.43v-239a34.22 34.22 0 0 1 68.43 0z" fill="#30335d"/><path d="m188.43 819.46v29.42h-68.43v-18.68z" fill="#252849"/><path d="m429.54 825.5-61 24.45-6.9-17.86-82-208.24a34.21 34.21 0 1 1 63.83-24.64l77.84 197.38 8.23 21.29z" fill="#252849"/><path d="m381.55 841.06h51.32v28.12h-51.32z" fill="#fc9aaf" transform="matrix(.93289069 -.36015963 .36015963 .93289069 -280.62 204.02)"/><path d="m128.55 854.21h51.32v26.28h-51.32z" fill="#ffb2bf"/><path d="m207.41 381.23-.86 38a22 22 0 0 1 -.94 5.89c-.54 0-1.08 0-1.63 0a51.43 51.43 0 0 1 -40.71-19.95l.57-25a21.78 21.78 0 0 1 21.78-21.3h.5a21.79 21.79 0 0 1 21.29 22.36z" fill="#fc9aaf"/><path d="m245.25 360.35c0 30.28-21.58 55-48.75 56.61-.92.05-1.84.08-2.77.08-28.45 0-51.53-25.38-51.53-56.69s23.08-56.69 51.53-56.69c.93 0 1.85 0 2.77.08 27.17 1.59 48.75 26.33 48.75 56.61z" fill="#ffb2bf"/><path d="m223.21 371.31a14.43 14.43 0 0 1 -3.87 10.33c-.33.34-.66.66-1 1a14.29 14.29 0 0 1 -9.05 3.59h-.58a14.41 14.41 0 0 1 -14.8-12.73c0-.39-.07-.79-.09-1.19a2.78 2.78 0 0 1 2.7-2.88l23.8-.8a2.78 2.78 0 0 1 2.89 2.68z" fill="#962f4a"/><path d="m208.92 384a10.86 10.86 0 0 1 -.14 2.22h-.08a14.4 14.4 0 0 1 -14.79-12.73 11.46 11.46 0 0 1 15 10.51z" fill="#e1617f"/><path d="m219.79 368.63c0 2.83-4.29 5.24-9.65 5.42s-9.79-1.93-10-4.76z" fill="#fff"/><path d="m245.25 360.35c0 30.28-21.58 55-48.75 56.61-.92.05-1.84.08-2.78.08a47.83 47.83 0 0 1 -5.1-.28c26.08-2.8 46.45-27 46.45-56.41s-20.37-53.61-46.45-56.41a47.83 47.83 0 0 1 5.1-.28c.94 0 1.86 0 2.78.08 27.17 1.58 48.75 26.34 48.75 56.61z" fill="#fc9aaf"/><path d="m151.17 455.06v.53c-.5 17-11.85 30.52-25.71 30.72h-.89c-14.42-.38-25.87-15-25.58-32.64.16-9.76 2.23-17.67 8-23.38a32.33 32.33 0 0 1 11.94-7 21.75 21.75 0 0 1 6.71-.88 21.11 21.11 0 0 1 4.51.6c12.17 2.99 21.27 16.29 21.02 32.05z" fill="#e1303e"/><path d="m152.2 454.4v.54c-.44 12.29-6.49 22.79-15.08 27.94a36.33 36.33 0 0 0 7.16-20.75c0-.19 0-.36 0-.55.35-16-9-29.51-21.55-32.44a23.12 23.12 0 0 0 -4.65-.59 22.56 22.56 0 0 0 -6.92.94 23.74 23.74 0 0 0 -5.58 2.47 26.74 26.74 0 0 1 13.5-9.66 22.55 22.55 0 0 1 6.92-.93 22.25 22.25 0 0 1 4.65.59c12.58 2.92 21.9 16.43 21.55 32.44z" fill="#e1303e"/><rect fill="#f63e4a" height="132.64" rx="25.5" transform="matrix(-.90682344 -.42151068 .42151068 -.90682344 -15.14 983.81)" width="51" x="75.66" y="427.26"/><path d="m142.46 448.23a25.5 25.5 0 0 0 -44.66 2.91l-34.41 74a25.42 25.42 0 0 0 -1 19.06 25.45 25.45 0 0 1 -1.58-24.38l34.41-74a25.49 25.49 0 0 1 47.22 2.41z" fill="#f56"/><circle cx="85.44" cy="530.46" fill="#e1303e" r="27.36"/><rect fill="#ffc535" height="49.37" rx="24.68" width="126.26" x="132.02" y="294.01"/><circle cx="146.43" cy="345.89" fill="#ffc535" r="21.3"/><circle cx="142.77" cy="360.35" fill="#ffb2bf" r="17.07"/><path d="m188.42 893.54h-65.21a32.6 32.6 0 0 1 27.07-32.13 31.62 31.62 0 0 1 5.54-.47 32.58 32.58 0 0 1 32.6 32.6z" fill="#e1303e"/><path d="m188.42 893.54h-15.06a33.89 33.89 0 0 0 -23.08-32.12 31.62 31.62 0 0 1 5.54-.47 32.58 32.58 0 0 1 32.6 32.59z" fill="#f63e4a"/><path d="m197.45 887.65a9.85 9.85 0 0 1 -.19 1.89c-.07.31-.14.61-.23.91s-.21.58-.32.86a9.47 9.47 0 0 1 -1.41 2.32q-.28.35-.6.66-.31.32-.66.6a9.36 9.36 0 0 1 -6 2.15h-69.58a7.08 7.08 0 0 1 -.35-14.16l52.17-3.48 17.31-1.15a9.27 9.27 0 0 1 4.52.91 9.59 9.59 0 0 1 1.17.67 11 11 0 0 1 1.07.84 8.62 8.62 0 0 1 .93 1c.19.23.38.47.55.72a9.45 9.45 0 0 1 1.5 3.83 9.76 9.76 0 0 1 .12 1.43z" fill="#e1303e"/><path d="m197.45 887.65a9.85 9.85 0 0 1 -.19 1.89 9.32 9.32 0 0 1 -.23.91c-.1.29-.2.58-.32.86a9.47 9.47 0 0 1 -1.41 2.32q-.28.35-.6.66-.31.32-.66.6a9.36 9.36 0 0 1 -6 2.15h-22.31a9.41 9.41 0 0 0 4.55-17.64l17.31-1.15a9.27 9.27 0 0 1 4.52.91 8.44 8.44 0 0 1 1.17.67 9.29 9.29 0 0 1 2 1.82 7.61 7.61 0 0 1 .55.72 9.45 9.45 0 0 1 1.5 3.83 9.76 9.76 0 0 1 .12 1.45z" fill="#f63e4a"/><path d="m388.48 854.1h47.59a0 0 0 0 1 0 0v21.43a0 0 0 0 1 0 0h-56.82a0 0 0 0 1 0 0v-12.2a9.23 9.23 0 0 1 9.23-9.23z" fill="#f63e4a" transform="matrix(.92186315 -.38751559 .38751559 .92186315 -303.28 225.55)"/><path d="m477.6 854.07-60.11 25.27a32.6 32.6 0 1 1 60.11-25.27z" fill="#e1303e"/><path d="m477.6 854.07-16.89 7.09a32.62 32.62 0 0 0 -33.71-19.76 32.64 32.64 0 0 1 50.63 12.67z" fill="#f63e4a"/><path d="m381.64 882.84 86.36-41.32a9.39 9.39 0 0 1 12.72 4.83 9.4 9.4 0 0 1 -5 12.32l-88.25 37.09a7.08 7.08 0 0 1 -9.28-3.78 7.09 7.09 0 0 1 3.45-9.14z" fill="#e1303e"/><path d="m480.72 846.36a9.4 9.4 0 0 1 -5 12.31l-20.57 8.64a9.28 9.28 0 0 0 5.06-5.11 9.39 9.39 0 0 0 -8.35-13l16.14-7.68a9.39 9.39 0 0 1 12.72 4.84z" fill="#f63e4a"/><rect fill="#fc9aaf" height="38.58" rx="7.54" transform="matrix(-.09 1 -1 -.09 733.48 375.35)" width="15.09" x="187.92" y="503.07"/><circle cx="181.53" cy="527.64" fill="#fc9aaf" r="14.86"/><g fill="#ffb2bf"><rect height="132.64" rx="21.05" transform="matrix(-.00994821 -.99995052 .99995052 -.00994821 -404.73 667.64)" width="42.11" x="107.12" y="467.88"/><rect height="59.96" rx="20.86" transform="matrix(-.61813404 .78607271 -.78607271 -.61813404 721.19 728.75)" width="41.71" x="162.75" y="509.55"/><rect height="57.33" rx="7.54" transform="matrix(-.61813404 .78607271 -.78607271 -.61813404 754.46 711.48)" width="15.09" x="196.89" y="510.31"/></g><rect fill="#fc9aaf" height="38.58" rx="7.54" transform="matrix(-.09 1 -1 -.09 733.48 375.35)" width="15.09" x="187.92" y="503.07"/><circle cx="181.53" cy="527.64" fill="#fc9aaf" r="14.86"/><rect fill="#ffb2bf" height="132.64" rx="21.05" transform="matrix(-.00994821 -.99995052 .99995052 -.00994821 -404.73 667.64)" width="42.11" x="107.12" y="467.88"/><rect fill="#ffb2bf" height="59.96" rx="20.86" transform="matrix(-.61813404 .78607271 -.78607271 -.61813404 721.19 728.75)" width="41.71" x="162.75" y="509.55"/><path d="m209.25 552.79a20.84 20.84 0 0 1 -29.29 3.5l-2.41-1.89-6.13-4.82-8.65.08-77.57.77a21.05 21.05 0 0 1 -21.26-20.85v-.21a21.12 21.12 0 0 1 .61-5.06 20.88 20.88 0 0 0 -2.71 10.33v.21a21.05 21.05 0 0 0 21.26 20.85l86.22-.85 8.55 6.72a20.86 20.86 0 0 0 33.13-11.41 20.44 20.44 0 0 1 -1.75 2.63z" fill="#fdc3cd"/><rect fill="#ffb2bf" height="57.33" rx="7.54" transform="matrix(-.61813404 .78607271 -.78607271 -.61813404 754.46 711.48)" width="15.09" x="196.89" y="510.31"/><path d="m429.54 825.5-60.99 24.45-6.9-17.86 59.64-35.5 8.22 21.29z" fill="#171a33"/><path d="m188.42 854.36h-68.42l-6.98-17.58 87.86-13.8z" fill="#30335d"/><circle cx="125.68" cy="847.04" fill="#141334" r="4.27"/><circle cx="125.43" cy="848.19" fill="#666da2" r="3.12"/><path d="m125.43 850.22a1.84 1.84 0 0 1 -.41 0 2.08 2.08 0 0 1 0-4.16 2.71 2.71 0 0 1 .41 0 2.08 2.08 0 0 0 0 4.07z" fill="#332d52"/><path d="m125 845.59a2.35 2.35 0 0 1 .54-.06 2.66 2.66 0 0 1 0 5.31 3.1 3.1 0 0 1 -.54-.05 2.66 2.66 0 0 0 0-5.2z" fill="#9da5d1"/><path d="m434.65 829.66-63.51 25.46-13.02-13.73 76.42-45.49z" fill="#252849"/><circle cx="373.35" cy="843.63" fill="#141334" r="4.27"/><circle cx="373.1" cy="844.78" fill="#666da2" r="3.12"/><path d="m373.1 846.82a2.71 2.71 0 0 1 -.41 0 2.08 2.08 0 1 1 0-4.16 1.84 1.84 0 0 1 .41 0 2.08 2.08 0 0 0 0 4.07z" fill="#332d52"/><path d="m372.62 842.18a3.1 3.1 0 0 1 .54 0 2.66 2.66 0 0 1 0 5.31 2.35 2.35 0 0 1 -.54-.06 2.66 2.66 0 0 0 0-5.2z" fill="#9da5d1"/><path d="m137.13 359.81a8.25 8.25 0 0 0 5.05 7.61 2.37 2.37 0 0 0 3.21-2.24v-10.74a2.41 2.41 0 0 0 -3.43-2.16 8.29 8.29 0 0 0 -4.83 7.53z" fill="#f9a0b4"/><rect fill="#ffb2bf" height="38.58" rx="7.54" transform="matrix(.83301781 .55324617 -.55324617 .83301781 278.32 -128.9)" width="15.09" x="345.18" y="377.4"/><circle cx="350.76" cy="411.45" fill="#ffb2bf" r="14.86"/><ellipse cx="185.18" cy="542.9" fill="#f9e0e5" rx="9.14" ry="11.47" transform="matrix(.70710678 -.70710678 .70710678 .70710678 -329.65 289.95)"/><rect fill="#ffc535" height="27.61" rx="13.8" transform="matrix(-1 0 0 -1 421.4 595.5)" width="69.11" x="176.15" y="283.94"/><path d="m180.14 288h39.7a13.77 13.77 0 0 1 9.76 4 14.92 14.92 0 0 1 1.62 1.93 13.72 13.72 0 0 1 2.4 7 24.72 24.72 0 0 1 5.83 4.32 22.84 22.84 0 0 1 1.85 2.09 24.41 24.41 0 0 1 5.38 15.36 24.68 24.68 0 0 1 -10.93 20.5 24.68 24.68 0 0 0 9.48-46.36 13.8 13.8 0 0 0 -13.78-13h-41.45a13.76 13.76 0 0 0 -9.86 4.16z" fill="#fcd277"/><circle cx="191.66" cy="357.34" fill="#252849" r="4.32"/><circle cx="235.18" cy="357.34" fill="#252849" r="4.32"/><g fill="none" stroke="#252849" stroke-miterlimit="10" stroke-width="2.27"><circle cx="240.59" cy="357.34" r="22.03"/><circle cx="188.62" cy="357.34" r="22.03"/><path d="m218.58 358.2h-7.95"/></g><rect fill="#fcd277" height="24.82" rx="12.41" width="63.47" x="158.02" y="306.28"/><circle cx="826.72" cy="431.88" fill="#e1303e" r="34.59"/><path d="m718.64 465.64a28.1 28.1 0 0 0 1.41 3.79 29.46 29.46 0 0 0 35.19 16.15l75-22.12a29.47 29.47 0 1 0 -16.67-56.53l-75 22.11a29.47 29.47 0 0 0 -19.93 36.6z" fill="#fff"/><path d="m720.05 469.43a29.46 29.46 0 0 0 35.19 16.15l75-22.12a29.47 29.47 0 0 0 19.54-18.69 34.51 34.51 0 0 1 -16.21 9.34l-51.83 13.51-11.85 3.1c-.76.21-1.49.36-2.25.52s-1.54.62-2.34.89a47.28 47.28 0 0 1 -30.53 0 46.62 46.62 0 0 1 -14.72-2.7z" fill="#e9fffe"/><g fill="#f5b5a9"><rect height="35.14" rx="17.57" transform="matrix(-.86940871 -.49409361 .49409361 -.86940871 986.27 1053.29)" width="53.75" x="605.43" y="378.76"/><rect height="27.82" rx="13.91" transform="matrix(-.31448953 -.94926094 .94926094 -.31448953 550.67 1133.69)" width="53.75" x="657.84" y="354.09"/><rect height="49.17" rx="24.58" transform="matrix(-.86940871 -.49409361 .49409361 -.86940871 1022.48 1016.33)" width="68.61" x="611.22" y="348.48"/><rect height="163.99" rx="36.69" transform="matrix(.64 -.77 .77 .64 -71.2 692.68)" width="73.38" x="661.86" y="339.81"/><rect height="35.14" rx="17.57" transform="matrix(-.86940871 -.49409361 .49409361 -.86940871 986.27 1053.29)" width="53.75" x="605.43" y="378.76"/></g><path d="m761.83 474a36.53 36.53 0 0 0 8.22-20 36.74 36.74 0 0 1 -58.5 17.83l-65.78-54.2-4.16-3.42a35.58 35.58 0 0 1 -3.4-3.19 17 17 0 0 1 -5.14-1.92l-3.3-1.88-12.86-7.31a17.33 17.33 0 0 1 -6.47-6.36 17.62 17.62 0 0 1 -2.44-8.55 17.56 17.56 0 0 0 7.53 22l16.18 9.19a17.83 17.83 0 0 0 5.16 1.95 37.44 37.44 0 0 0 3.37 3.15l69.93 57.63a36.7 36.7 0 0 0 51.66-4.92z" fill="#f8cdc5"/><path d="m819.43 353.26h45.32v38.85h-45.32z" fill="#f5b5a9" transform="matrix(.04588604 -.99894668 .99894668 .04588604 431.09 1196.76)"/><ellipse cx="801.23" cy="299.86" fill="#f4ad18" rx="23.87" ry="11.89" transform="matrix(.04588604 -.99894668 .99894668 .04588604 464.86 1086.46)"/><path d="m862.54 351-.62 13.54a55.08 55.08 0 0 1 -30.66 18.08 53.5 53.5 0 0 1 -9.12 1.09l1.59-34.5z" fill="#f29495"/><path d="m885.47 301.48-2.52 24a55.08 55.08 0 0 1 -60.54 49 33.14 33.14 0 0 1 -29.48-36.48l3.58-34 .6-5.75.23-2.12.65-6.27a27.58 27.58 0 0 1 30.33-24.55l5.94.63 24.53 2.57a29.69 29.69 0 0 1 9.21 2.49 30 30 0 0 1 17.52 30.48z" fill="#f5b5a9"/><path d="m877.94 302.34c-6.74 15.32-33.47 18.4-59.72 6.86a82.53 82.53 0 0 1 -20.88-13.05l.65-6.27a27.58 27.58 0 0 1 30.33-24.55l5.94.63 24.53 2.57a29.69 29.69 0 0 1 9.21 2.47c9.79 10.32 14 22 9.94 31.34z" fill="#f29495"/><circle cx="841.29" cy="317.77" fill="#252849" r="3.81"/><circle cx="814.37" cy="316.53" fill="#252849" r="3.81"/><path d="m814 331.55a11.3 11.3 0 0 0 3.53 7.91c.27.25.55.49.83.72a11.29 11.29 0 0 0 7.27 2.38h.46a11.32 11.32 0 0 0 11-10.7c0-.31 0-.62 0-.94a2.19 2.19 0 0 0 -.69-1.53 2.13 2.13 0 0 0 -1.56-.6l-18.71.52a2.19 2.19 0 0 0 -2.13 2.24z" fill="#962f4a"/><path d="m825.77 340.81a9 9 0 0 0 .22 1.74h.06a11.32 11.32 0 0 0 11-10.7 9 9 0 0 0 -11.26 9z" fill="#e1617f"/><path d="m816.51 329.29c.15 2.22 3.62 3.9 7.83 3.78s7.58-2 7.61-4.21z" fill="#fff"/><path d="m865.3 294.19h23.23a0 0 0 0 1 0 0v46.05a0 0 0 0 1 0 0h-2a21.22 21.22 0 0 1 -21.23-21.24v-24.81a0 0 0 0 1 0 0z" fill="#ffc535" transform="matrix(.99894668 .04588604 -.04588604 .99894668 15.51 -39.97)"/><circle cx="878.74" cy="329.79" fill="#f5b5a9" r="14.01"/><path d="m883 328.39a6.06 6.06 0 0 1 -3.2 5.88 1.73 1.73 0 0 1 -2.48-1.43l-.68-7.84a1.76 1.76 0 0 1 2.36-1.79 6.06 6.06 0 0 1 4 5.18z" fill="#f29495"/><circle cx="878.63" cy="282.12" fill="#ffc535" r="25.28"/><path d="m903.88 283.28a25.23 25.23 0 0 1 -9.71 18.77 25.27 25.27 0 0 0 -34-37.19 25.28 25.28 0 0 1 43.73 18.42z" fill="#f4ad18"/><ellipse cx="834.78" cy="270.18" fill="#ffc535" rx="31.71" ry="55.29" transform="matrix(.33660226 -.94164692 .94164692 .33660226 299.44 965.35)"/><ellipse cx="834.78" cy="270.18" fill="#fcd277" rx="19.44" ry="33.89" transform="matrix(.33660226 -.94164692 .94164692 .33660226 299.44 965.35)"/><path d="m794.19 282.15c-5.57-7.81-7.66-16-5.08-23.23 5.89-16.49 34-21.53 62.74-11.25 12.16 4.34 22.5 10.73 29.92 17.9-7.18-10.06-20.13-19.47-36.32-25.25-28.76-10.28-56.84-5.23-62.74 11.25-3.4 9.53 1.29 20.78 11.48 30.58z" fill="#fcd277"/><path d="m767.21 392.5h109.26a0 0 0 0 1 0 0v123.7a60 60 0 0 1 -60 60h-21.16a28.1 28.1 0 0 1 -28.1-28.1v-155.6a0 0 0 0 1 0 0z" fill="#f63e4a" transform="matrix(-.99894668 -.04588604 .04588604 -.99894668 1620.55 1006.01)"/><rect fill="#f63e4a" height="27.54" rx="13.77" transform="matrix(-.99894668 -.04588604 .04588604 -.99894668 1659.36 826.6)" width="85.8" x="796.29" y="380.45"/><path d="m665.73 841.72h22.39v45.67h-22.39z" fill="#f9a0b4" transform="matrix(-.03210854 .99948439 -.99948439 -.03210854 1562.78 215.74)"/><path d="m671.51 836.12h11.2v45.67h-11.2z" fill="#f492ac" transform="matrix(-.03210854 .99948439 -.99948439 -.03210854 1557.37 209.79)"/><path d="m679.87 880.47-44.87 2.44a22.49 22.49 0 1 1 44.91-2.44z" fill="#30335d"/><path d="m630.4 888.39-.07-6.89a5.65 5.65 0 0 1 5.24-5.7l59-4.31a7.06 7.06 0 0 1 7.58 7l.13 12.77z" fill="#fdbf48"/><path d="m702.26 887.41v4.14a4.77 4.77 0 0 1 -4.72 4.83l-63.86.67a7.79 7.79 0 0 1 -7.88-7.72 7.81 7.81 0 0 1 7.72-7.89l17.88-.19a6.7 6.7 0 0 1 6.77 6.63z" fill="#30335d"/><path d="m707.88 851.27-3.07-247.81a30.85 30.85 0 0 0 -31-30.74h-.81a30.85 30.85 0 0 0 -30.74 31l3.07 247.81a4.71 4.71 0 0 0 4.72 4.68l53.12-.2a4.7 4.7 0 0 0 4.71-4.74z" fill="#252849"/><path d="m677.5 572.29h113.77a12.43 12.43 0 0 1 12.43 12.43v10.5a43.05 43.05 0 0 1 -43.05 43.05h-83.15a33 33 0 0 1 -33-33 33 33 0 0 1 33-33z" fill="#252849" transform="matrix(.99991884 -.01274056 .01274056 .99991884 -7.66 9.28)"/><path d="m873.22 593.31a43.66 43.66 0 0 1 -12.46 31.26 40.76 40.76 0 0 1 -26.08 12.2h-.45c-.7 0-1.4.07-2.11.08l-80.42 1a31.29 31.29 0 0 1 -22.7-9.31 33.23 33.23 0 0 1 -8.58-15.15 33.94 33.94 0 0 1 -1-7.54c-.51-18.42 14.25-33.69 32.08-33.91l121.46-1.55z" fill="#30335d"/><path d="m533.05 831.51h28.97v46.13h-28.97z" fill="#ffb2bf" transform="matrix(-.62796306 .77824315 -.77824315 -.62796306 1556.43 965.19)"/><path d="m548.88 823.94h9.52v46.13h-9.52z" fill="#f9a0b4" transform="matrix(-.62796306 .77824315 -.77824315 -.62796306 1560.49 948.11)"/><path d="m539.49 872.37-37.19-25.3a22.49 22.49 0 0 1 37.19 25.3z" fill="#30335d"/><path d="m495.36 848.67 4.12-5.52a5.65 5.65 0 0 1 7.62-1.36l49.55 32.36a7.07 7.07 0 0 1 1.8 10.14l-7.64 10.23z" fill="#fdbf48"/><path d="m553.09 891.47-2.46 3.3a4.8 4.8 0 0 1 -6.71 1l-51.18-38.18a7.8 7.8 0 0 1 -1.58-10.92 7.79 7.79 0 0 1 10.92-1.59l14.33 10.69a6.7 6.7 0 0 1 1.37 9.38z" fill="#30335d"/><path d="m774.29 622.66-1 1.22-11.21 13.91-57.33 71-121.02 150.21a6.83 6.83 0 0 1 -9.59 1l-38-30.7a6.82 6.82 0 0 1 -1-9.59l88.51-109.92 80.48-99.73 21.58-26.73a31.15 31.15 0 0 1 23.94-11.63 30.1 30.1 0 0 1 3.42.15 31.25 31.25 0 0 1 21.28 50.74z" fill="#30335d"/><circle cx="841.18" cy="442.12" fill="#e1303e" r="34.59"/><path d="m809.84 550.93a28 28 0 0 0 3.94.91 29.47 29.47 0 0 0 32.86-20.48l22.84-74.79a29.47 29.47 0 1 0 -56.37-17.21l-22.85 74.78a29.48 29.48 0 0 0 19.58 36.79z" fill="#fff"/><path d="m813.78 551.84a29.47 29.47 0 0 0 32.86-20.48l22.84-74.79a29.45 29.45 0 0 0 -4.84-26.57 34.42 34.42 0 0 1 -1.13 18.66l-17.27 50.71-4 11.6c-.24.74-.52 1.44-.8 2.16s-.33 1.62-.54 2.44a47.35 47.35 0 0 1 -16.81 25.49 46.81 46.81 0 0 1 -10.31 10.78z" fill="#f9e8ea"/><circle cx="809.16" cy="527.64" fill="#e1303e" r="42.11"/><g fill="#f5b5a9"><rect height="35.14" rx="17.57" transform="matrix(-.99921527 -.03960861 .03960861 -.99921527 1368.36 1079.15)" width="53.75" x="668.01" y="508.44"/><rect height="27.82" rx="13.91" transform="matrix(-.71520497 -.69891476 .69891476 -.71520497 916.16 1326.88)" width="53.75" x="701.56" y="462.87"/><rect height="49.17" rx="24.58" transform="matrix(-.99921527 -.03960861 .03960861 -.99921527 1371.55 1025.73)" width="68.61" x="661.64" y="474.68"/><rect height="163.99" rx="36.69" transform="matrix(.21064238 -.97756319 .97756319 .21064238 97.66 1157.37)" width="73.38" x="728.74" y="436.22"/><rect height="35.14" rx="17.57" transform="matrix(-.99921527 -.03960861 .03960861 -.99921527 1368.36 1079.15)" width="53.75" x="668.01" y="508.44"/></g><path d="m845.58 535.49a36.5 36.5 0 0 0 -1.84-21.49 36.75 36.75 0 0 1 -43.74 42.71l-83.33-17.94-5.26-1.14a35.59 35.59 0 0 1 -4.48-1.26 17 17 0 0 1 -5.45.64l-3.8-.15-14.78-.59a17.29 17.29 0 0 1 -8.67-2.67 17.64 17.64 0 0 1 -6.1-6.51 17.56 17.56 0 0 0 16.8 16.1l18.6.74a18 18 0 0 0 5.47-.64 37.91 37.91 0 0 0 4.45 1.25l88.55 19.08a36.67 36.67 0 0 0 43.58-28.13z" fill="#f8cdc5"/></svg>