<svg viewBox="0 0 1000 1000" xmlns="http://www.w3.org/2000/svg"><path d="m954.22 584.53a137.78 137.78 0 0 1 -32.56 142.9q-4.18 4.19-8.71 8a137.22 137.22 0 0 1 -84.32 32.24c-1.42 0-2.84.06-4.27.06h-90.36a27.34 27.34 0 0 0 -27.32 27.32v101.95h-456.74v-101.95a27.32 27.32 0 0 0 -27.32-27.32h-53.69a132.33 132.33 0 0 1 -132.4-132.4v-10.41a137.16 137.16 0 0 1 5.72-40.39 113.22 113.22 0 0 1 13.12-28.38 119.64 119.64 0 0 1 27.34-29.58 140.76 140.76 0 0 1 14.69-10q2.86-1.72 5.75-3.28a184 184 0 0 1 34.54-14.17 43.49 43.49 0 0 0 14.31-7.35 44 44 0 0 0 17-34.76v-43.01q0-1.67.09-3.3a63 63 0 0 1 29.58-50.16 61.93 61.93 0 0 1 14.33-6.66 62.74 62.74 0 0 1 16.29-2.88c.88 0 1.77-.06 2.66-.06a48.67 48.67 0 0 0 43.77-27.48c.56-1.14 1.06-2.3 1.52-3.48a48.56 48.56 0 0 0 3.29-17.61 48.56 48.56 0 0 0 -48.53-48.58h-68a83.59 83.59 0 0 1 -63.32-138.2c.54-.63 1.09-1.25 1.65-1.85a83.33 83.33 0 0 1 61.67-27.16h416a97.92 97.92 0 0 1 97.9 97.92c0 38.21 30.92 69.37 69.13 69.29a83.61 83.61 0 1 1 .17 167.21h-28.88a35.26 35.26 0 0 0 -5.85.48 35.77 35.77 0 0 0 -29.91 35.27c0 .65 0 1.3.06 1.94a35.73 35.73 0 0 0 35.7 33.82h106a137.59 137.59 0 0 1 108.8 53.36q3.84 5 7.24 10.27a136.81 136.81 0 0 1 13.86 28.39z" fill="#fffaf4"/><rect fill="#a66633" height="17.61" rx="8.8" width="74.06" x="72.3" y="896.96"/><rect fill="#a66633" height="17.61" rx="8.8" width="809.94" x="153.54" y="896.96"/><path d="m577.57 299.76 16.77-10.94v-19.64h-16.77z" fill="#eacfb5"/><path d="m397.88 299.76-16.77-10.94v-19.64h16.77z" fill="#eacfb5"/><path d="m343.35 256.53h288.9v14.12h-288.9z" fill="#ffecd7"/><path d="m477.88 167a23.76 23.76 0 0 1 23.76 23.76v13a0 0 0 0 1 0 0 23.76 23.76 0 0 1 -23.76-23.76v-13a0 0 0 0 1 0 0z" fill="#dbb595" transform="matrix(.38107038 .92454603 -.92454603 .38107038 474.47 -338.1)"/><path d="m463.76 147.32a23.76 23.76 0 0 1 23.76 23.76v13a0 0 0 0 1 0 0 23.76 23.76 0 0 1 -23.76-23.76v-13a0 0 0 0 1 0 0z" fill="#c19c80" transform="matrix(.92454603 .38107038 -.38107038 .92454603 99.02 -168.75)"/><path d="m476.8 167a0 0 0 0 1 0 0v13a23.76 23.76 0 0 1 -23.8 23.68 0 0 0 0 1 0 0v-13a23.76 23.76 0 0 1 23.8-23.68z" fill="#dbb595" transform="matrix(-.38107038 .92454603 -.92454603 -.38107038 813.42 -173.9)"/><path d="m518.88 214.53a42.53 42.53 0 1 1 -85.06 0 41.91 41.91 0 0 1 .28-4.91 41.25 41.25 0 0 1 1-5.56h82.46a42.88 42.88 0 0 1 1 5.56 41.91 41.91 0 0 1 .32 4.91z" fill="#dbb595"/><rect fill="#c19c80" height="11.13" rx="5.56" width="97.49" x="428.59" y="192.93"/><path d="m518.6 209.62h-84.5a41.25 41.25 0 0 1 1-5.56h82.46a42.88 42.88 0 0 1 1.04 5.56z" fill="#c19c80"/><g opacity=".63"><path d="m933.16 545.88v142.65a10.65 10.65 0 0 1 -10.65 10.65h-433.34a10.65 10.65 0 0 1 -10.65-10.65v-237.53a10.65 10.65 0 0 1 10.65-10.65h197.38a35.46 35.46 0 0 0 -4 16.4c0 .65 0 1.3.06 1.94a35.73 35.73 0 0 0 35.7 33.82h106a137.59 137.59 0 0 1 108.8 53.36z" fill="#e8ceb8"/><path d="m911.32 523.48v148.67a8.69 8.69 0 0 1 -8.69 8.69h-393.58a8.68 8.68 0 0 1 -8.69-8.69v-204.76a8.69 8.69 0 0 1 8.69-8.69h173.57a35.73 35.73 0 0 0 35.7 33.82h106a137 137 0 0 1 87 30.96z" fill="#fffaf4"/><path d="m643.26 699.18h125.14v22.26h-125.14z" fill="#d8bfab"/><rect fill="#e8ceb8" height="22.26" rx="11.13" width="208.79" x="601.44" y="721.44"/><path d="m726.32 492.52-133 188.32h-84.27a8.64 8.64 0 0 1 -5.34-1.83l155.59-220.31h23.32a35.73 35.73 0 0 0 35.7 33.82z" fill="#fffdfb"/><path d="m790.27 492.52-133 188.32h-35.55l133-188.32z" fill="#fffdfb"/><path d="m902.09 743.69a137.1 137.1 0 0 1 -73.46 24c-1.42 0-2.84.06-4.27.06h-90.36a27.34 27.34 0 0 0 -27.32 27.32v101.93h-240.86v-139.29a14 14 0 0 1 14-14z" fill="#f2dfcc"/><rect fill="#fff1e2" height="111.58" rx="8.81" width="205.33" x="492.14" y="766.9"/><rect fill="#f2dfcc" height="14.41" rx="7.21" width="108.08" x="540.93" y="813.26"/></g><ellipse cx="214.84" cy="231.45" fill="#503b60" rx="59.25" ry="62.3" transform="matrix(.5952436 -.8035453 .8035453 .5952436 -99.02 266.31)"/><path d="m183.83 273.37c23.72 17.57 56.48 13.52 73.19-9a48.11 48.11 0 0 0 3.27-5c-17.18 20.41-48.43 23.54-71.28 6.63-22-16.31-28.48-45.47-16-67.6-.66.77-1.29 1.57-1.9 2.4-16.66 22.48-10.98 55.01 12.72 72.57z" fill="#655475"/><path d="m184.77 233.34c6.34 20.1 27 31.51 46.08 25.48a33.09 33.09 0 0 0 4-1.54c-18.49 4.59-37.86-6.71-44-26.07-5.85-18.64 2.64-38.21 19.15-45.76-.71.17-1.4.37-2.1.59-19.11 6.02-29.46 27.2-23.13 47.3z" fill="#655475"/><path d="m256.64 202c12.07 21.28 5.46 47.83-14.77 59.31a38.59 38.59 0 0 1 -4.48 2.19c18.53-12.09 24.24-37.49 12.61-58-11.2-19.73-34.55-28-54-19.91.71-.47 1.42-.91 2.17-1.33 20.2-11.43 46.4-3.49 58.47 17.74z" fill="#362644"/><ellipse cx="218.74" cy="225.15" fill="#655475" rx="17.66" ry="20.15" transform="matrix(.98425736 -.17674118 .17674118 .98425736 -36.36 42.22)"/><circle cx="253.51" cy="269.48" fill="#ffda9a" r="24.69"/><path d="m250.53 475.91h94.45v125.19h-94.45z" fill="#f8f3f4" transform="matrix(-.99999925 .00122173 -.00122173 -.99999925 596.22 1076.63)"/><path d="m312.1 454.63c-.17.26-.34.52-.52.76 2.66.06 5.29 0 7.88-.13-2.46-.12-4.89-.34-7.36-.63z" fill="#fdfae4"/><path d="m294.25 414.81a30.3 30.3 0 0 0 10.75 23.19l34 28.78 24.92 21.09 37.58 31.82a30.4 30.4 0 1 0 39.28-46.4l-96.51-81.7a30.4 30.4 0 0 0 -50 23.19z" fill="#ffb2bf"/><path d="m339 466.81 24.92 21.09a34.5 34.5 0 0 0 8.69-22.9v-2.6a71.62 71.62 0 0 0 -21-50.71c-1.33-1.33-2.7-2.61-4.14-3.82a84.48 84.48 0 0 1 -4.81 51.45c-1.11 2.57-2.34 5.07-3.66 7.49z" fill="#f9a0b4"/><path d="m294.24 414.82a28.35 28.35 0 0 0 .22 3.56 30.4 30.4 0 0 1 49.81-19.53l96.52 81.7a30.1 30.1 0 0 1 10.54 19.64 30.37 30.37 0 0 0 -10.54-26.87l-96.52-81.69a30.4 30.4 0 0 0 -50 23.19z" fill="#f9e0e5"/><path d="m250.14 467v70a47.41 47.41 0 0 0 47.42 47.41 47.41 47.41 0 0 0 47.44-47.41v-70z" fill="#f8f3f4"/><path d="m250.13 467v70a47.43 47.43 0 1 0 94.87 0v-70z" fill="#f8f3f4"/><path d="m250.13 467v25.64a192.41 192.41 0 0 0 94.85 28v-53.64z" fill="#efd6d8"/><path d="m301.44 395.19a29.57 29.57 0 0 1 4-3.91 30.38 30.38 0 0 0 3.88 42.42l96.51 81.7a30.39 30.39 0 0 0 38.83.34c-.11.14-.2.28-.32.42a30.38 30.38 0 0 1 -42.83 3.56l-96.51-81.72a30.41 30.41 0 0 1 -3.56-42.81z" fill="#f9a0b4"/><rect fill="#ffb2bf" height="174.19" rx="30.39" transform="matrix(.98450318 .17536673 -.17536673 .98450318 83.91 -68.81)" width="60.79" x="400.86" y="353.19"/><rect fill="#f9e0e5" height="57.96" opacity=".38" rx="6.24" transform="matrix(.98450318 .17536673 -.17536673 .98450318 84.81 -69.75)" width="12.47" x="430.79" y="415.92"/><g fill="#ffb2bf"><rect height="162.1" rx="30.39" transform="matrix(.8 .6 -.6 .8 319.83 -46.19)" width="60.79" x="198.93" y="376.5"/><rect height="162.1" rx="30.39" transform="matrix(.95716803 -.28953301 .28953301 .95716803 -148.93 85.26)" width="60.79" x="183.36" y="465.06"/><ellipse cx="225.1" cy="608.32" rx="40.79" ry="32.16" transform="matrix(.5472711 -.8369554 .8369554 .5472711 -407.24 463.85)"/></g><path d="m240.39 625.91a53.72 53.72 0 0 0 2.74-4.71c5.72-11.14 6.75-23.21 3.41-32.87a26.11 26.11 0 0 0 -.65-2.53l-4.38-14.47-17.08-56.49-3.34-11.07 8.26-11.06 43-57.5a30.41 30.41 0 0 0 -2.64-39.5 17.25 17.25 0 0 1 -4.66-8.34l-.07-.3a30.41 30.41 0 0 1 19 48.14l-51.31 68.57 24.81 82a23.94 23.94 0 0 1 .64 2.56c3.82 11 1.92 25.23-6.14 37.55-10 15.29-26.36 23.05-40.13 20.26 10.61-1.96 21.27-9.15 28.54-20.24z" fill="#f9a0b4"/><rect fill="#f8f3f4" height="9.11" rx="4.55" transform="matrix(.95716803 -.28953301 .28953301 .95716803 -155.2 88.21)" width="80.69" x="180.27" y="564.23"/><rect fill="#f8f3f4" height="9.11" rx="4.55" transform="matrix(.95716803 -.28953301 .28953301 .95716803 -152.16 86.9)" width="70.83" x="182.29" y="553.3"/><path d="m415.74 526h.24c.82.15 1.63.26 2.44.33a30.4 30.4 0 0 0 32.82-24.91l19.88-111.62a30.39 30.39 0 0 0 -24.6-35.26 31.72 31.72 0 0 0 -5.1-.47 30.39 30.39 0 0 1 24.36 35.21l-19.88 111.64a30.41 30.41 0 0 1 -30.16 25.08z" fill="#f9e0e5"/><path d="m367.94 455v2.59a34.62 34.62 0 0 1 -34.61 34.61h-74.26a34.61 34.61 0 0 1 -34.59-34.61v-2.59a71.4 71.4 0 0 1 12.88-41 68.93 68.93 0 0 1 4.61-5.91 3.92 3.92 0 0 1 .27-.33c1-1.18 2.13-2.34 3.25-3.46a71.75 71.75 0 0 1 109.56 9.67c.38.56.76 1.11 1.12 1.67a71.25 71.25 0 0 1 11.77 39.36z" fill="#f8f3f4"/><path d="m367.94 455v2.6a34.51 34.51 0 0 1 -34.4 34.61h-31a85 85 0 0 0 40.38-91.74c1.43 1.21 2.79 2.49 4.12 3.82a71.82 71.82 0 0 1 20.9 50.71z" fill="#fbfbfa"/><rect fill="#f8f3f4" height="99.8" rx="8.09" transform="matrix(-.92990493 -.36779998 .36779998 -.92990493 685.26 832.15)" width="53.81" x="395.01" y="300.89"/><rect fill="#cac4ce" height="99.8" rx="8.09" transform="matrix(-.92990493 -.36779998 .36779998 -.92990493 687.39 839.4)" width="53.81" x="396.76" y="304.31"/><circle cx="430.16" cy="322.33" fill="#503b60" r="5.89"/><circle cx="443.38" cy="327.55" fill="#503b60" r="3.07"/><ellipse cx="435.44" cy="377.68" fill="#ffb2bf" rx="40.79" ry="32.16" transform="matrix(.80364918 -.59510335 .59510335 .80364918 -139.26 333.28)"/><path d="m401.89 368.54a50.51 50.51 0 0 1 10.39-10.3c18.11-13.4 41.34-12.7 51.92 1.58 6.85 9.26 6.69 22 .76 33.41 9.63-12.84 11.43-28.78 3.26-39.82-10.58-14.27-33.81-15-51.92-1.58a48.78 48.78 0 0 0 -14.41 16.71z" fill="#f9e0e5"/><path d="m355.05 413.93a82.35 82.35 0 0 1 -54.55 25.25c-1.67.11-3.37.16-5.08.16-1 0-2.06 0-3.1-.07a82.44 82.44 0 0 1 -55.52-24.27 72.2 72.2 0 0 1 5.17-6.94 3.92 3.92 0 0 1 .27-.33c1-1.18 2.13-2.34 3.25-3.46a71.75 71.75 0 0 1 109.56 9.67z" fill="#ffb2bf"/><path d="m300.5 439.17c-1.67.11-3.37.16-5.08.16-1 0-2.06 0-3.1-.06l.93-5.24a3.17 3.17 0 0 1 6.24 0z" fill="#f9a0b4"/><path d="m379.55 800.28a27.9 27.9 0 0 1 -4.49-2.74 28.3 28.3 0 0 1 -9.31-33.37l32-78.87 54 40.14-35 63.13a28.32 28.32 0 0 1 -37.2 11.71z" fill="#f9a0b4"/><path d="m451.75 725.44-54-40.14 36.58-90a39.27 39.27 0 1 1 70.46 34.41z" fill="#5b4a91"/><path d="m340.46 876.17a21.8 21.8 0 0 0 26-8.26l49-74.76a17.85 17.85 0 0 0 -8.42-26.54l-22.45-8.67a33.33 33.33 0 0 0 -45.07 26.91l-12.72 67.44a21.82 21.82 0 0 0 13.66 23.88z" fill="#f9a0b4"/><path d="m379.55 800.28a27.9 27.9 0 0 1 -4.49-2.74 28.3 28.3 0 0 1 -9.31-33.37l32-78.87 54 40.14-35 63.13a28.32 28.32 0 0 1 -37.2 11.71z" fill="#f9a0b4"/><path d="m415.5 793.14-49 74.77a21.82 21.82 0 0 1 -33.17 3.73 21.76 21.76 0 0 0 15.41-9.55l49-74.75a18 18 0 0 0 2.84-7.43l7.2-13a17.84 17.84 0 0 1 7.72 26.23z" fill="#f28ba6"/><path d="m386.22 696.9 64.76 35.4 17.59-16.04-78.35-42.83z" fill="#a695cd"/><rect fill="#ea9e5a" height="28.95" rx="14.48" width="198.33" x="213.54" y="652.45"/><path d="m254.62 837.11h125.68v8.24h-125.68z" fill="#a66633"/><path d="m387.35 681.4-.67 15.71-8.64 200.66h-13.34l-8.63-200.66-.67-15.71z" fill="#ea9e5a"/><path d="m270.59 681.4-.67 15.71-8.63 200.66h-13.35l-8.62-200.66-.67-15.71z" fill="#ea9e5a"/><path d="m270.59 681.4-.67 25.4h-30.6l-.67-25.4z" fill="#a66633"/><path d="m387.35 681.4h-31.95l.67 25.39h30.61z" fill="#a66633"/><path d="m466 651.89h-110a57 57 0 0 1 -57-57v-13.89a16.44 16.44 0 0 1 16.45-16.45h150.55a43.67 43.67 0 0 1 43.67 43.66 43.67 43.67 0 0 1 -43.67 43.68z" fill="#5b4a91"/><path d="m504.83 629.69-53.08 95.76-9.1-6.78 38.52-69.48 14.53-26.19a39.3 39.3 0 0 0 -34.26-58.43h4.56a43.66 43.66 0 0 1 43.65 42.67 39.06 39.06 0 0 1 -4.82 22.45z" fill="#4b407c"/><path d="m250.46 594.9a59.45 59.45 0 0 0 16.08 41.16 49.77 49.77 0 0 0 32.82 15.71 5.09 5.09 0 0 0 .56 0c.88.05 1.75.08 2.64.08h100.62a38.17 38.17 0 0 0 28.23-12.79 44.74 44.74 0 0 0 10.48-20.2 46.77 46.77 0 0 0 1.21-10c.34-24.39-18.37-44.35-40.67-44.35h-152z" fill="#8a89d9"/><path d="m443.34 810.38a28.28 28.28 0 0 1 -32.63-20.74l-21.37-82.4h67.25l9.6 71.54a28.31 28.31 0 0 1 -22.85 31.6z" fill="#ffb2bf"/><path d="m456.59 707.24h-67.25l-24.34-94.06a39.27 39.27 0 1 1 77-14.45z" fill="#8a89d9"/><path d="m456.59 707.24h-12.41l-14.56-108.5a39.27 39.27 0 0 0 -32.68-33.68 39.29 39.29 0 0 1 45.06 33.68z" fill="#afafe8"/><path d="m457.27 894.6a21.82 21.82 0 0 0 15.94-22.15l-5.29-89.25a17.85 17.85 0 0 0 -22.6-16.26l-23.19 6.44a33.33 33.33 0 0 0 -20.13 48.49l30 61.73a21.81 21.81 0 0 0 25.27 11z" fill="#ffb2bf"/><path d="m457.27 894.59a21.53 21.53 0 0 1 -11.29.1l.4-.1a21.79 21.79 0 0 0 15.93-22.15l-4.14-69.91-1.17-19.33a17.79 17.79 0 0 0 -2.16-7.64l-1.19-8.93-8-59.39h10.89l9.17 68.35a17.52 17.52 0 0 1 2.16 7.61l5.29 89.24a21.8 21.8 0 0 1 -15.89 22.15z" fill="#f9e0e5" opacity=".38"/><path d="m464.62 689.84-4.55 23.37-14.16 1.98-58.93 8.26-10.8-21.21 66.09-9.27z" fill="#edd2f2"/><ellipse cx="288.09" cy="308.99" fill="#503b60" rx="59.27" ry="67.54"/><path d="m268.93 331.14 3.3 38.44 2.29 26.84a15.17 15.17 0 0 0 16.39 13.8l2-.17a15.17 15.17 0 0 0 13.81-16.39l-1.46-17.66-4.09-47.67a15.16 15.16 0 0 0 -16.4-13.81l-2 .18a15.15 15.15 0 0 0 -13.84 16.44z" fill="#ffb2bf"/><path d="m268.93 331.14 3.3 38.44a54 54 0 0 0 27.18 6.94 40.15 40.15 0 0 0 5.85-.48l-4.09-47.67a15.16 15.16 0 0 0 -16.4-13.81l-2 .18a15.15 15.15 0 0 0 -13.84 16.4z" fill="#f9a0b4"/><path d="m286.29 242.31a54.28 54.28 0 0 1 54.28 54.28v35.27a38.16 38.16 0 0 1 -38.16 38.14h-1.77a56.23 56.23 0 0 1 -56.23-56.23v-29.58a41.88 41.88 0 0 1 41.88-41.88z" fill="#ffb2bf" transform="matrix(-.99993762 .01116987 -.01116987 -.99993762 588.4 609.05)"/><path d="m340.82 327.62a41.87 41.87 0 0 1 -41.4 42.38c-1.54 0-3.05 0-4.54-.14a41.85 41.85 0 0 0 38.61-42.2l-.33-29.66a56.23 56.23 0 0 0 -53-55.52c.59 0 1.16-.05 1.74-.05h1.77a56.21 56.21 0 0 1 56.81 55.57z" fill="#f9e0e5"/><ellipse cx="293.71" cy="274.88" fill="#503b60" rx="60.82" ry="38.24" transform="matrix(.979081 -.20347087 .20347087 .979081 -49.78 65.51)"/><ellipse cx="312.78" cy="257.69" fill="#655475" rx="28.33" ry="17.81" transform="matrix(.99637505 -.08506913 .08506913 .99637505 -20.78 27.54)"/><ellipse cx="248.68" cy="308.99" fill="#503b60" rx="21.1" ry="20.65"/><circle cx="245.93" cy="317.86" fill="#ffb2bf" r="17.11"/><circle cx="327.58" cy="316.35" fill="#503b60" r="3.51"/><circle cx="295.92" cy="314.5" fill="#503b60" r="3.51"/><path d="m241 319.35a6.81 6.81 0 0 0 4.33 6.18 1.94 1.94 0 0 0 2.59-1.91l-.22-8.87a2 2 0 0 0 -2.87-1.71 6.82 6.82 0 0 0 -3.83 6.31z" fill="#f9a0b4"/><path d="m464.62 689.84-4.55 23.37-14.16 1.98-3.64-22.22z" fill="#efdcf4"/><path d="m319.24 332.52a10.92 10.92 0 0 1 -4 7.3c-.28.22-.56.43-.85.62a10.84 10.84 0 0 1 -7.14 1.72l-.44-.05a10.73 10.73 0 0 1 -6.14-2.76 10.89 10.89 0 0 1 -3.56-8.32q0-.45.06-.9a2.13 2.13 0 0 1 2.32-1.87l17.87 1.94a2.1 2.1 0 0 1 1.88 2.32z" fill="#962f4a"/><path d="m307.22 340.47a8.61 8.61 0 0 1 -.34 1.65h-.06a10.87 10.87 0 0 1 -9.69-11.12 8.54 8.54 0 0 1 2.43-.08 8.65 8.65 0 0 1 7.66 9.55z" fill="#e1617f"/><path d="m317 330.16c-.31 2.11-3.77 3.45-7.79 3s-7.1-2.49-6.95-4.62z" fill="#fff"/></svg>