<svg xmlns="http://www.w3.org/2000/svg" xmlns:xlink="http://www.w3.org/1999/xlink" width="1440" height="861" viewBox="0 0 1440 861"><defs><linearGradient id="b" x1="97.508%" x2="5.894%" y1="91.945%" y2="21.433%"><stop offset="0%" stop-color="#117AF4"/><stop offset="100%" stop-color="#0326B6"/></linearGradient><path id="a" d="M0 763.54c386.357 173.66 499.775-72.663 758.037-172.39C1016.3 491.421 1331.356 548.003 1440 379.421V0H0v763.54z"/><linearGradient id="c" x1="67.028%" x2="4.764%" y1="68.886%" y2="45.375%"><stop offset="0%" stop-color="#FFF" stop-opacity=".103"/><stop offset="100%" stop-color="#FFF" stop-opacity="0"/></linearGradient></defs><g fill="none" fill-rule="evenodd"><path fill="#9CBDFD" d="M0 0h1440v330.761c-159.608 16.148-71.627 207.33-421.955 222.978-350.327 15.648-257.488 345.2-648.488 210.266C223.54 713.615 100.353 745.932 0 860.959V0z"/><mask id="d" fill="#fff"><use xlink:href="#a"/></mask><use fill="url(#b)" xlink:href="#a"/><path fill="url(#c)" fill-rule="nonzero" d="M0 0h1197.356C878.351 0 986.062 393.793 615.013 362.589c-371.05-31.205-278.308 173.675-431.2 198.362-80.26 12.96-141.53-1.15-183.813-42.327V0z" mask="url(#d)"/></g></svg>