<svg viewBox="0 0 1000 1000" xmlns="http://www.w3.org/2000/svg"><g fill-rule="evenodd"><path d="m834.39 867.23c87.13 0 158.43-71.29 158.43-158.42 0-87.14-71.3-158.43-158.43-158.43a67.19 67.19 0 0 1 -67-67 67.18 67.18 0 0 1 67-67h8a69.85 69.85 0 0 0 69.61-69.62 69.85 69.85 0 0 0 -69.65-69.64h-24.44a27.19 27.19 0 0 1 -27.12-27.12 27.19 27.19 0 0 1 27.12-27.11h18a18.77 18.77 0 0 0 18.71-18.71 18.77 18.77 0 0 0 -18.71-18.71h-56.24a29.49 29.49 0 0 1 -29.4-29.41 29.49 29.49 0 0 1 29.4-29.4h18.5a18.77 18.77 0 0 0 18.72-18.66 18.77 18.77 0 0 0 -18.72-18.72h-503.52a24.49 24.49 0 0 0 -24.41 24.42 24.49 24.49 0 0 0 24.41 24.42h74.1a38.48 38.48 0 0 1 38.36 38.37 38.48 38.48 0 0 1 -38.36 38.37h-101.44a24.48 24.48 0 0 0 -24.42 24.41 24.49 24.49 0 0 0 24.42 24.42h23.45a35.48 35.48 0 0 1 35.38 35.31 35.48 35.48 0 0 1 -35.38 35.38h-183.32c-50 0-90.88 40.89-90.88 90.88 0 50 40.9 90.87 90.88 90.87h10.4a87.67 87.67 0 0 1 87.41 87.41 87.66 87.66 0 0 1 -87.41 87.46h-22.52a88.38 88.38 0 0 0 -88.13 88.1 88.38 88.38 0 0 0 88.13 88.13z" fill="#fffaf4"/><path d="m946.27 596.92a157.91 157.91 0 0 0 -111.89-46.54 67 67 0 0 1 0-134h8a69.65 69.65 0 0 0 0-139.29h-24.48a27.19 27.19 0 0 1 -27.11-27.09c0-.2 0-.41 0-.61a27.13 27.13 0 0 1 11.13-21.26h.06c.32-.23.64-.46 1-.68v-12.78a2.43 2.43 0 0 0 -.09-.71 4.73 4.73 0 0 0 -1.52-2.48 7.51 7.51 0 0 0 -3.77-1.48l-.67-.14.24-5a2.84 2.84 0 0 0 -2.82-3h-13.69a2.82 2.82 0 0 0 -2.82 2.8v202.6l-64.93 1.36a2.77 2.77 0 0 0 -2 2.65l-.2 16.47h-7.63a2.73 2.73 0 0 0 -2 .83 2.7 2.7 0 0 0 -.83 2l5.59 109.43-15.38.49a2.82 2.82 0 0 0 -2.73 2.77c-.05 3 .13 5.87.23 8.82a24.54 24.54 0 0 1 -.39 6.35 11.12 11.12 0 0 1 -1.13 2.93c-.08.12-.15.27-.22.4l-.33-5.41a2.81 2.81 0 0 0 -2.81-2.64h-19.08a2.75 2.75 0 0 0 -1.57.48c0-2.36 0-4.72-.15-7.08a2.83 2.83 0 0 0 -2.83-2.66h-19.7a2.82 2.82 0 0 0 -2.81 2.79l-.17 15.61h-1.19l-.35-6.81a2.83 2.83 0 0 0 -2.79-2.67l-14-.14-.16-21.94a2.81 2.81 0 0 0 -2.79-2.8l-7.13-.25a2.82 2.82 0 0 0 -2.85 2.81v22.08h-17.66l-.08-207.66a2.38 2.38 0 0 0 0-.46 5.33 5.33 0 0 0 -1.93-3.84 6 6 0 0 0 -1.36-.64l-1.33-11.34a2.8 2.8 0 0 0 -2.56-2.48l-4.5-.4-.31-28.6a2.72 2.72 0 0 0 -1-2.14 8.45 8.45 0 0 0 -3.44-1.87l-.39-.08-.19-22.46a2.82 2.82 0 0 0 -2.84-2.8l-22.29.15a2.81 2.81 0 0 0 -2.79 2.64c-.26 4-.18 7.94-.14 11.92a2.82 2.82 0 0 0 -2.41-1.43l-20.8-.35a2.82 2.82 0 0 0 -2.85 2.53c-.17 1.6-.14 3.29-.15 4.9a25 25 0 0 1 -.28 4.85c-.05.15-.13.4-.22.6l-.17.08a4.19 4.19 0 0 0 -2.19 3.47 39.51 39.51 0 0 0 -.21 6c.07 5.77.27 11.54.32 17.31a34.73 34.73 0 0 1 -.25 5.32c-.36 0-.84 0-1.07 0-1.2 0-2.38-.07-3.59 0a2.81 2.81 0 0 0 -2.75 2.82v11.28l-.52.08a4.48 4.48 0 0 0 -2.82.94 4.19 4.19 0 0 0 -1.3 3.36v3.71 222h-20.93l-.23-49.1a2.81 2.81 0 0 0 -2.81-2.82h-2.47l-.14-11.51a2.82 2.82 0 0 0 -2.73-2.78l-5.07-.17v-54.93a2.82 2.82 0 0 0 -2.71-2.82l-5.13-.19v-20.33a2.79 2.79 0 0 0 -1.24-2.33c-1.93-1.31-2.66-1.56-3.75-1.56l-.13-21.93a2.82 2.82 0 0 0 -2.81-2.81h-41.76a2.74 2.74 0 0 0 -2 .85 2.7 2.7 0 0 0 -.8 2c.11 5.7.33 11.4.43 17.1a46.86 46.86 0 0 1 -.08 4.91h-.15c-.73 0-1.46-.07-2.2-.07a2.82 2.82 0 0 0 -2.8 2.81l-.11 21.14-4.88.22a2.81 2.81 0 0 0 -2.69 2.8l-.25 39.76-4.68.15a2.83 2.83 0 0 0 -2.73 2.71c-.12 3-.17 5.92-.2 8.89a24.74 24.74 0 0 1 -.09 2.64 6.1 6.1 0 0 1 -.57.29l-3.05 1a2.77 2.77 0 0 0 -1.92 2.67l-.07 30.48v10.81a2.82 2.82 0 0 0 -2.77-2.32h-6.1a2.82 2.82 0 0 0 -2.82 2.9v5.12h-10.28v-20a2.73 2.73 0 0 0 -.83-2 2.7 2.7 0 0 0 -2-.82h-12.84l-.13-273a2.82 2.82 0 0 0 -2.8-2.82l-12.55-.07a2.82 2.82 0 0 0 -2.84 2.82v10.95h-14.12v-23.88a2.82 2.82 0 0 0 -2.82-2.82h-34.79a2.82 2.82 0 0 0 -2.82 2.75l-.18 10.11h-21a24.37 24.37 0 0 0 18.3 8.3h23.45a35.38 35.38 0 0 1 0 70.76h-75.75v299.76h-15.31q-.87 2.28-1.86 4.52v.1c-.21.47-.42.94-.64 1.41l-.07.15q-1.35 2.89-2.91 5.67l-.1.17q-1.55 2.76-3.29 5.4l-.12.17c-.27.41-.54.81-.82 1.21l-.16.23q-1.34 1.92-2.77 3.78l-.9 1.15-.21.25c-.3.38-.6.75-.91 1.11l-.1.12q-1.44 1.71-3 3.35l-.31.34-.89.93-.36.37c-1 1-2 2-3 2.92l-.34.32c-.28.27-.57.52-.86.78l-.47.42-.89.78-.47.39c-.58.5-1.18 1-1.78 1.47l-.4.33-.88.68-.6.46c-.29.22-.57.44-.87.65l-.63.47-.87.62-.7.49-1.48 1-.74.49-.83.53-.78.49-.82.5-.87.52-1.15.66-1.11.62c-.25.14-.5.28-.76.41l-.92.5-.79.4-1 .49-.71.35c-.54.26-1.08.52-1.62.76l-.64.29-1.12.49-.74.31-1.1.45-.69.28-1.37.52-.53.2-1.65.59-.69.22-1.17.39-.73.23-1.29.38-.57.17-1.84.5-.51.13-1.41.34-.66.16-1.32.29-.65.13-1.79.35h-.14q-1 .18-2 .33l-.59.09-1.39.19-.69.09-1.47.17-.53.06-2 .18h-.47l-1.56.1h-.65l-1.45.06h-.64-2-22.57a87.87 87.87 0 0 0 -63.07 26.92c-2 2-3.89 4.19-5.67 6.42a87.68 87.68 0 0 0 -18.4 68.13c.17 1.11.36 2.21.56 3.3.11.57.23 1.15.35 1.72.31 1.49.67 3 1.05 4.41.35 1.28.72 2.55 1.12 3.8.15.51.32 1 .49 1.51s.41 1.2.62 1.8.33.9.5 1.34.4 1 .61 1.55q1.23 3.08 2.7 6.05a88.56 88.56 0 0 0 79.14 49.5h739.07c56.58 0 106.47-30.05 134.51-75a157.66 157.66 0 0 0 -22.62-195.33zm-819.73-230a6.34 6.34 0 0 0 -6.3-6.32l-28.18-.16a6.33 6.33 0 0 0 -6.37 6.33v24.58h-31.69v-36.66c-1.33.14-2.67.26-4 .34l-.57.48-.91.77-.78.68c-.3.25-.58.51-.87.77l-.56.5-1.12 1.05-.55.52-1.09 1.06-.53.54-.91.93c-.22.22-.43.44-.64.67s-.55.59-.82.89l-.54.58-1 1.08-.48.56c-.34.39-.67.78-1 1.18l-.45.55c-.34.4-.67.81-1 1.23l-.41.54c-.27.33-.53.67-.79 1l-.47.63c-.29.38-.57.77-.85 1.16l-.37.51-.93 1.34-.36.53c-.31.46-.62.93-.92 1.4l-.3.47c-.28.44-.56.88-.83 1.32l-.31.52-.77 1.28-.27.48c-.29.49-.56 1-.84 1.49l-.27.49-.81 1.53-.24.47c-.27.53-.53 1.06-.79 1.6l-.17.35c-.24.5-.47 1-.7 1.5-.06.11-.11.23-.16.34-.25.55-.49 1.11-.73 1.67l-.19.44c-.24.55-.46 1.11-.69 1.68l-.17.42-.7 1.77-.13.37c-.21.57-.41 1.14-.61 1.72l-.06.19c-.21.61-.41 1.21-.6 1.82l-.12.37-.54 1.81-.11.4c-.17.6-.34 1.21-.5 1.82l-.09.36c-.16.64-.32 1.28-.47 1.92v.18c-.15.63-.28 1.26-.42 1.9l-.05.25c-.13.64-.25 1.28-.37 1.92l-.07.39c-.12.64-.22 1.28-.32 1.93l-.05.34c-.11.66-.2 1.33-.29 2v.22c-.09.66-.16 1.32-.23 2v.18q-.11 1-.18 2v.33c-.05.67-.09 1.34-.13 2v.35c0 .68-.06 1.36-.08 2v.29 2.15c0 50 40.9 90.87 90.88 90.87h10.4 2.24l2.22.09c.73 0 1.47.08 2.2.14.74.06 1.46.12 2.19.2z" fill="#fbf2e9"/><path d="m310.42 817.73v49.5h-215.11a88.56 88.56 0 0 1 -79.14-49.5q-1.47-3-2.7-6.05c-.21-.51-.41-1-.61-1.55s-.33-.89-.5-1.34-.42-1.2-.62-1.8-.34-1-.49-1.51c-.4-1.25-.77-2.52-1.12-3.8q-.59-2.17-1.05-4.41c-.12-.57-.24-1.15-.35-1.72-.2-1.09-.39-2.19-.56-3.3a87.68 87.68 0 0 1 18.4-68.13c1.92-.46 3.88-.84 5.86-1.14-.11-1.75-.18-3.51-.19-5.28v-.27a80.78 80.78 0 1 1 161.56 0v1.64a45.18 45.18 0 0 1 36.13 27.49 73.25 73.25 0 0 1 8.81-.54 71.71 71.71 0 0 1 71.68 71.71z" fill="#f4e8dc"/><path d="m159.72 865.8a4.47 4.47 0 0 0 4.45-4.45v-625.08a4.46 4.46 0 0 0 -4.45-4.45 4.46 4.46 0 0 0 -4.45 4.45v625.08a4.47 4.47 0 0 0 4.45 4.45z" fill="#89684e"/></g><rect fill="#9b7d63" height="11.57" rx="5.78" width="46.34" x="136.55" y="242.92"/><path d="m185.61 258.79 12.64 5.67-13.93 63.94-24.6 4.28-4.45-72.6z" fill="#c1946f" fill-rule="evenodd"/><path d="m133.83 258.79-12.64 5.67 13.93 63.94 24.6 4.28v-72.6z" fill="#c9a788" fill-rule="evenodd"/><g fill="#89684e"><rect height="8.75" rx="4.37" width="56.1" x="131.67" y="328.3"/><g fill-rule="evenodd"><path d="m133.45 248.7h52.55a7.33 7.33 0 0 1 7.3 7.31 7.33 7.33 0 0 1 -7.3 7.3h-52.55a7.33 7.33 0 0 1 -7.3-7.3 7.33 7.33 0 0 1 7.3-7.31z"/><path d="m121.19 264.46h77.05a4.39 4.39 0 0 0 4.38-4.38 4.39 4.39 0 0 0 -4.38-4.37h-77.05a4.39 4.39 0 0 0 -4.37 4.37 4.39 4.39 0 0 0 4.37 4.38z"/></g></g><rect fill="#9b7d63" height="8.75" rx="4.37" width="34.51" x="131.67" y="328.3"/><path d="m121.19 264.46h42.92a4.39 4.39 0 0 0 4.38-4.38 4.39 4.39 0 0 0 -4.38-4.37h-42.92a4.39 4.39 0 0 0 -4.37 4.37 4.39 4.39 0 0 0 4.37 4.38z" fill="#9b7d63" fill-rule="evenodd"/><rect fill="#89684e" height="15.88" rx="7.94" width="75.38" x="122.03" y="851.35"/><path d="m577.25 610.41c16.15-40.18 29.75-74.08 29.75-74.08" fill="none"/><g fill-rule="evenodd"><g fill="#9a463b"><path d="m790.81 868.23v-286.23c0-6.07-4-11-8.9-11-4.89 0-8.9 5-8.9 11v286.2z"/><path d="m839.24 868.23v-250.05c0-6.07-4-11-8.9-11s-8.9 5-8.9 11v250.05z"/><path d="m790.81 594.33v-180.86a8.92 8.92 0 0 0 -8.9-8.9 8.93 8.93 0 0 0 -8.9 8.9v180.86a8.93 8.93 0 0 0 8.9 8.9 8.93 8.93 0 0 0 8.9-8.9z"/><path d="m270.21 868.23v-286.23c0-6.07 4-11 8.9-11s8.9 5 8.9 11v286.2z"/><path d="m221.78 868.23v-250.05c0-6.07 4-11 8.91-11 4.89 0 8.89 5 8.89 11v250.05z"/><path d="m851 629.39h-640.95a10.35 10.35 0 1 0 0 20.7h640.95a10.35 10.35 0 0 0 0-20.7z"/><path d="m270.21 594.33v-180.86a8.93 8.93 0 0 1 8.9-8.9 8.92 8.92 0 0 1 8.9 8.9v180.86a8.93 8.93 0 0 1 -8.9 8.9 8.93 8.93 0 0 1 -8.9-8.9z"/></g><path d="m806.13 422.67h-551.23a6.62 6.62 0 0 0 -6.61 6.6v28.82a6.63 6.63 0 0 0 6.61 6.6h551.23a6.62 6.62 0 0 0 6.6-6.6v-28.82a6.62 6.62 0 0 0 -6.6-6.6z" fill="#cb7748"/><path d="m806.13 422.67h-551.32v26.73a6.62 6.62 0 0 0 6.61 6.6h538.19a6.62 6.62 0 0 0 6.6-6.6v-26.73z" fill="#db8d5c"/><path d="m806.13 477.5h-551.23a6.62 6.62 0 0 0 -6.61 6.6v28.82a6.64 6.64 0 0 0 6.61 6.61h551.23a6.63 6.63 0 0 0 6.6-6.61v-28.82a6.62 6.62 0 0 0 -6.6-6.6z" fill="#cb7748"/><path d="m807.11 477.57a7.93 7.93 0 0 0 -1-.07h-551.21a8.09 8.09 0 0 0 -1 .07v.64 28.79a6.62 6.62 0 0 0 6.61 6.61h540.03a6.62 6.62 0 0 0 6.6-6.61v-28.79c0-.21-.01-.43-.03-.64z" fill="#db8d5c"/><path d="m806.13 536.37h-551.23a6.62 6.62 0 0 0 -6.61 6.61v28.81a6.64 6.64 0 0 0 6.61 6.61h551.23a6.63 6.63 0 0 0 6.6-6.61v-28.79a6.62 6.62 0 0 0 -6.6-6.63z" fill="#cb7748"/><path d="m639.2 536.37h-383.77v27a6.63 6.63 0 0 0 6.57 6.63h537a6.62 6.62 0 0 0 6.6-6.6v-27z" fill="#db8d5c"/><path d="m843.68 590.67h-626.33a6.62 6.62 0 0 0 -6.6 6.61v28.81a6.62 6.62 0 0 0 6.6 6.61h626.33a6.62 6.62 0 0 0 6.6-6.61v-28.81a6.62 6.62 0 0 0 -6.6-6.61z" fill="#cb7748"/><path d="m638.44 590.67h-417.76v25.49a6.63 6.63 0 0 0 6.6 6.61h606.46a6.64 6.64 0 0 0 6.61-6.61v-25.49z" fill="#db8d5c"/><g fill="#f1a873"><path d="m763.69 427.68h-466.35a1.56 1.56 0 0 0 -1.55 1.56v3.1a1.56 1.56 0 0 0 1.55 1.55h466.35a1.56 1.56 0 0 0 1.55-1.55v-3.1a1.56 1.56 0 0 0 -1.55-1.56z"/><path d="m730.16 544.72h-399.29a1.55 1.55 0 0 0 -1.56 1.55v3.11a1.56 1.56 0 0 0 1.56 1.55h399.29a1.56 1.56 0 0 0 1.55-1.55v-3.11a1.55 1.55 0 0 0 -1.55-1.55z"/><path d="m699.74 483.87h-338.45a1.56 1.56 0 0 0 -1.55 1.55v3.11a1.56 1.56 0 0 0 1.55 1.55h338.45a1.56 1.56 0 0 0 1.55-1.55v-3.11a1.56 1.56 0 0 0 -1.55-1.55z"/><path d="m686 597.39h-311a1.55 1.55 0 0 0 -1.55 1.56v3.1a1.55 1.55 0 0 0 1.55 1.55h311a1.56 1.56 0 0 0 1.55-1.55v-3.05a1.56 1.56 0 0 0 -1.55-1.61z"/></g></g><circle cx="525.44" cy="241.25" fill="#474d65" r="54.81"/><path d="m580.24 241.25a54.8 54.8 0 0 1 -54.8 54.81c-1.24 0-2.48 0-3.7-.13a54.82 54.82 0 0 0 46-77.72 34.87 34.87 0 0 0 1.15-8.91c0-.48 0-1 0-1.43a54.54 54.54 0 0 1 11.35 33.38z" fill="#7c8fb7"/><circle cx="509.07" cy="296.06" fill="#474d65" r="54.81"/><path d="m521.05 368.42 59.95 34.09 26.25 14.93a29.75 29.75 0 1 0 29.41-51.72l-86.18-49a29.74 29.74 0 1 0 -29.4 51.7z" fill="#ffb2bf"/><path d="m651.67 392.18a29.76 29.76 0 0 1 -44.46 25.26l-26.21-14.93-59.93-34.09a29.74 29.74 0 0 1 -13.64-34.89 29.74 29.74 0 0 0 15 26.44l59.93 34.09 26.26 14.94a29.75 29.75 0 0 0 40.56-11.15 28.77 28.77 0 0 0 2.49-5.67z" fill="#f9a0b4"/><g fill="#ffb2bf"><path d="m594.07 401a29.75 29.75 0 0 0 49.15 11.17c.27-.28.54-.56.8-.85s.51-.55.75-.84a2.45 2.45 0 0 0 .29-.35c.17-.19.32-.38.48-.59.38-.48.76-1 1.09-1.49.25-.35.49-.72.73-1.09a28.61 28.61 0 0 0 1.91-3.59c.16-.34.31-.68.44-1s.29-.72.42-1.08c.28-.79.54-1.6.75-2.42l23-86.18 2.57-9.62a31.72 31.72 0 0 0 .7-3.38 29.74 29.74 0 0 0 -58.15-12l-25.6 95.81a29.48 29.48 0 0 0 .67 17.5z"/><ellipse cx="657.53" cy="285.83" rx="39.91" ry="31.47" transform="matrix(.90579079 -.42372521 .42372521 .90579079 -59.17 305.49)"/><ellipse cx="347.36" cy="533.27" rx="31.47" ry="39.91" transform="matrix(.08263427 -.99657994 .99657994 .08263427 -212.78 835.4)"/></g><path d="m639.21 411.2c.27-.28.54-.55.81-.85s.5-.55.74-.84a1.93 1.93 0 0 0 .29-.35c.17-.19.32-.38.48-.59.38-.48.76-1 1.1-1.49.25-.35.48-.72.72-1.09a30 30 0 0 0 1.92-3.59c.15-.34.3-.68.43-1s.29-.72.42-1.08c.28-.79.54-1.6.76-2.42l22-82.68.89-3.31a49.8 49.8 0 0 0 5.12-3.22c14.49-10.44 21-27.25 14.75-40.69-3.4-7.27-10-12.29-18-14.66 9.84 1.75 18 7.16 22 15.61 7 14.94-1.86 34-19.87 43.91l-22.93 86c-.21.82-.47 1.63-.75 2.41-.13.37-.26.73-.42 1.09s-.28.69-.43 1a29.15 29.15 0 0 1 -1.92 3.58c-.24.37-.48.74-.73 1.1s-.71 1-1.09 1.48c-.16.21-.31.4-.48.6a3.07 3.07 0 0 1 -.29.34c-.24.29-.48.57-.75.85s-.53.57-.8.85a29.77 29.77 0 0 1 -28.75 7.74c-.37-.1-.75-.21-1.13-.34a29.74 29.74 0 0 0 25.91-8.36z" fill="#f9e0e5"/><ellipse cx="670.04" cy="289.82" fill="#f9e0e5" rx="14.74" ry="9.28" transform="matrix(.67507533 -.73774881 .73774881 .67507533 3.89 588.47)"/><circle cx="446.34" cy="296.06" fill="#474d65" r="54.81"/><circle cx="430.56" cy="361.44" fill="#474d65" r="68.51"/><path d="m482.57 406a68.51 68.51 0 0 1 -120.52-44.6c0-.64 0-1.28 0-1.91q0-.3 0-.6c0-.63 0-1.26.08-1.89s.09-1.3.15-2c.05-.49.1-1 .16-1.46s.11-1 .17-1.44.15-1.07.24-1.61q.16-1.05.36-2.1c.14-.66.27-1.32.42-2 0-.07 0-.14.05-.21.1-.47.21-.94.34-1.41s.16-.68.26-1 .24-.92.38-1.39c.33-1.19.71-2.37 1.13-3.54.12-.37.25-.73.39-1.1.07-.2.14-.39.22-.58.26-.72.54-1.44.85-2.13a.56.56 0 0 1 0-.12c.13-.3.25-.6.38-.89.19-.45.4-.91.6-1.35.51-1.1 1.05-2.17 1.61-3.24l.39-.72c.36-.67.73-1.32 1.1-2s.62-1.06.95-1.58.53-.83.8-1.23.49-.75.74-1.11c.53-.79 1.07-1.55 1.64-2.3.22-.29.43-.59.66-.88.75-1 1.52-1.94 2.33-2.87.34-.41.7-.81 1.06-1.21.55-.61 1.11-1.21 1.69-1.81.32-.34.64-.66 1-1s1-.94 1.44-1.39l1-.92c.33-.31.67-.61 1-.92s1-.83 1.47-1.22a.39.39 0 0 1 .1-.08c.44-.37.89-.73 1.35-1.09l.44-.1 1.46-1.08.22-.16c.47-.35.95-.68 1.44-1l.14-.09a68.12 68.12 0 0 1 14.08-7.31 55 55 0 0 0 .42 5.64c-.68 1.05-1.32 2.12-1.94 3.2a68.55 68.55 0 0 0 77.75 99.8z" fill="#383f54"/><path d="m437.93 429.56a68.58 68.58 0 0 1 -75.88-68.12c0-.64 0-1.28 0-1.91q0-.3 0-.6c0-.63 0-1.26.08-1.89s.09-1.3.15-2c.05-.49.1-1 .16-1.46s.11-1 .17-1.44.15-1.07.24-1.61q.16-1.05.36-2.1c.14-.66.27-1.32.42-2 0-.07 0-.14.05-.21.1-.47.21-.94.34-1.41s.16-.68.26-1 .24-.92.38-1.39c.33-1.19.71-2.37 1.13-3.54.12-.37.25-.73.39-1.1.07-.2.14-.39.22-.58.26-.72.54-1.44.85-2.13a.56.56 0 0 1 0-.12c.13-.3.25-.6.38-.89.19-.45.4-.91.6-1.35.51-1.1 1.05-2.17 1.61-3.24l.39-.72c.36-.67.73-1.32 1.1-2s.62-1.06.95-1.58.53-.83.8-1.23.49-.75.74-1.11c.53-.79 1.07-1.55 1.64-2.3.22-.29.43-.59.66-.88.75-1 1.52-1.94 2.33-2.87.34-.41.7-.81 1.06-1.21.55-.61 1.11-1.21 1.69-1.81.32-.34.64-.66 1-1s1-.94 1.44-1.39l1-.92c.33-.31.67-.61 1-.92s1-.83 1.47-1.22a.39.39 0 0 1 .1-.08c.44-.37.89-.73 1.35-1.09l.44-.14 1.46-1.08.22-.16c.47-.35.95-.68 1.44-1l.14-.09a53.21 53.21 0 0 1 -.68-8.61 54.77 54.77 0 0 1 25.04-46.06 42.65 42.65 0 0 0 6.39 6.63 54.7 54.7 0 0 0 -16.74 39.44v1.3a55 55 0 0 0 .42 5.64c.07.56.15 1.11.24 1.67-.74.5-1.46 1-2.18 1.53a68.69 68.69 0 0 0 -28 55.24 68.53 68.53 0 0 0 61.18 68.11z" fill="#383f54"/><path d="m491.91 353.51-45.34 78.49-57.94 100.4a29.87 29.87 0 1 1 -51.74-29.87l103.28-178.89a29.87 29.87 0 1 1 51.74 29.87z" fill="#ffb2bf"/><path d="m493.19 351c.09-.2.18-.4.26-.6s.19-.44.29-.67l.24-.63.24-.65c.08-.21.15-.43.22-.65s.14-.43.2-.64.14-.44.2-.66.11-.45.17-.67l.16-.64c.07-.29.12-.59.18-.88s.12-.61.17-.91l.12-.78c0-.21.05-.41.07-.61s.06-.48.08-.73 0-.4 0-.61 0-.49 0-.73 0-.4 0-.59 0-.51 0-.76v-.57-.81c0-.17 0-.34 0-.51s-.05-.65-.08-1v-.33c-.05-.44-.11-.89-.17-1.33v-.16c-.06-.38-.13-.77-.2-1.15 0-.12-.06-.24-.08-.37l-.21-.93c0-.14-.07-.28-.11-.42l-.24-.87-.13-.43c-.09-.29-.18-.58-.28-.87-.05-.13-.09-.27-.14-.4-.11-.31-.23-.61-.35-.91 0-.11-.08-.22-.13-.33-.15-.38-.31-.75-.48-1.12v-.1c-.19-.42-.39-.82-.6-1.23a1.28 1.28 0 0 1 -.11-.2c-.17-.32-.35-.64-.53-1-.07-.13-.15-.25-.23-.38s-.3-.5-.46-.75l-.28-.44c-.15-.22-.3-.45-.46-.67l-.33-.46-.46-.61-.36-.47-.48-.57-.39-.47-.5-.54c-.26-.28-.52-.55-.79-.82l-.51-.51a30 30 0 0 0 -4.75-3.69 28.78 28.78 0 0 1 2.18 4.24 78.37 78.37 0 0 0 -61.42 76.59v2.84a37.81 37.81 0 0 0 .9 8.23c4.11 18.51 1.74 37.86-7.74 54.27l-34.09 59.06-2.6 4.5c-.45.77-.92 1.51-1.42 2.22 0 .65 0 1.3-.08 2-.66 8-5.1 15-11.86 20.07-7.82 5.81-18.74 9-30.52 8a47 47 0 0 1 -23-8c6.3 9.41 18.28 16.3 32.47 17.48 22 1.82 40.94-10.75 42.37-28.06.05-.65.08-1.29.08-1.94a25.54 25.54 0 0 0 1.42-2.23l103.27-178.93c.24-.4.46-.81.67-1.23.09-.16.17-.33.25-.5s.25-.49.36-.78z" fill="#f9a0b4"/><circle cx="475.76" cy="217.6" fill="#ffc569" r="43.23"/><path d="m452.68 407.22h103.71v105.75h-103.71z" fill="#fae9c4"/><path d="m615.26 590.68h-219.74a109.87 109.87 0 0 1 219.74 0z" fill="#7385ac"/><path d="m608.78 590.68h-206.78c0-53.64 46.29-97.13 103.4-97.13s103.38 43.45 103.38 97.13z" fill="#474d65"/><path d="m556.38 407.22v28a210.45 210.45 0 0 1 -103.71 30.65v-58.65z" fill="#f2dfb8"/><path d="m584.44 394v2.84a37.84 37.84 0 0 1 -37.83 37.84h-81.2a37.86 37.86 0 0 1 -37.85-37.84v-2.84a78.44 78.44 0 0 1 133.9-55.45 77.13 77.13 0 0 1 8.89 10.61 78 78 0 0 1 14.09 44.84z" fill="#fae9c4"/><path d="m427.59 394v2.84a37.85 37.85 0 0 0 37.83 37.85h34.07a92.71 92.71 0 0 1 -44.4-100.31c-1.57 1.32-3.07 2.72-4.53 4.17a78.47 78.47 0 0 0 -23 55.45z" fill="#fff8e9"/><path d="m570.35 349.2a90.12 90.12 0 0 1 -60.26 28.25c-1.83.12-3.69.18-5.56.18-1.13 0-2.26 0-3.39-.08a90.09 90.09 0 0 1 -60.71-26.55c14-21.3 38.16-36.86 65.57-36.86 21.66 0 41.28 10.27 55.46 24.46a77 77 0 0 1 8.89 10.6z" fill="#ffb2bf"/><path d="m510.09 377.45c-1.83.12-3.69.18-5.56.18-1.13 0-2.26 0-3.39-.08l1-5.72a3.47 3.47 0 0 1 6.82-.06z" fill="#f9a0b4"/><rect fill="#f9a0b4" height="70.44" rx="33.97" transform="matrix(.7811937 -.62428871 .62428871 .7811937 -219.59 460.56)" width="191.43" x="451.49" y="508.3"/><path d="m610.55 475.35a37.13 37.13 0 0 1 13.45 52.25l-91 145.73a26.79 26.79 0 0 1 -35.71 9.24 26.78 26.78 0 0 1 -11.29-34.79l73.11-156.15a37.15 37.15 0 0 1 51.44-16.28z" fill="#ffb2bf"/><path d="m450.7 666.33-12.8 58.67a20.6 20.6 0 0 0 11.72 23.22 19.94 19.94 0 0 0 2.36.89 20.64 20.64 0 0 1 -6-19.41l12.81-58.7a31.52 31.52 0 0 1 43.89-23.19l17.51 7.83a16.66 16.66 0 0 0 -4.82-3.24l-20.78-9.29a31.51 31.51 0 0 0 -43.89 23.22z" fill="#474d65"/><path d="m444.88 663.16-12.88 58.91a20.6 20.6 0 0 0 11.69 23.27 19.37 19.37 0 0 0 2.37.88 20.66 20.66 0 0 1 -6-19.45l12.94-58.91a31.66 31.66 0 0 1 44-23.34l17.51 7.83a16.63 16.63 0 0 0 -4.81-3.25l-20.79-9.28a31.64 31.64 0 0 0 -44.03 23.34z" fill="#383f54"/><path d="m456.61 752.33a20.63 20.63 0 0 0 25-6.53l50-68.2a16.87 16.87 0 0 0 -6.65-25.48l-20.78-9.29a31.51 31.51 0 0 0 -43.94 23.17l-15.35 63.08a20.62 20.62 0 0 0 11.72 23.25z" fill="#ffb2bf"/><g fill="#474d65"><rect height="11.81" rx="5.91" transform="matrix(-.86462577 -.50241645 .50241645 -.86462577 519.93 1580.96)" width="58.52" x="443.71" y="714.52"/><rect height="11.81" rx="5.91" transform="matrix(-.84311 -.53774113 .53774113 -.84311 603.94 1478.49)" width="68.91" x="483.18" y="645.24"/><rect height="11.81" rx="5.91" transform="matrix(-.84311 -.53774113 .53774113 -.84311 631.04 1442.59)" width="71.14" x="490.38" y="623.34"/></g><rect fill="#f9e0e5" height="52.84" rx="9.21" transform="matrix(-.86462577 -.50241645 .50241645 -.86462577 821.78 1323.84)" width="18.41" x="580.04" y="524.78"/><rect fill="#f9a0b4" height="70.44" rx="35.22" transform="matrix(-.94882091 -.31581464 .31581464 -.94882091 761.35 1241.59)" width="111.91" x="425.31" y="523.89"/><path d="m492.5 531.94a37.15 37.15 0 0 1 43.68 31.68l22.82 170.29a26.79 26.79 0 0 1 -21.61 29.89 26.79 26.79 0 0 1 -30.87-19.61l-43.27-166.9a37.15 37.15 0 0 1 29.25-45.35z" fill="#ffb2bf"/><path d="m491.18 781 27.58 53.39a20.63 20.63 0 0 0 23.84 10.41 20.4 20.4 0 0 0 2.4-.8 20.6 20.6 0 0 1 -17-11.12l-27.58-53.38a31.54 31.54 0 0 1 19-45.87l18.49-5.13a16.67 16.67 0 0 0 -5.78.58l-21.93 6.09a31.52 31.52 0 0 0 -19.02 45.83z" fill="#7385ac"/><path d="m484.68 782.26 27.62 53.61a20.62 20.62 0 0 0 23.85 10.47 20.24 20.24 0 0 0 2.38-.83 20.63 20.63 0 0 1 -17-11.18l-27.62-53.61a31.65 31.65 0 0 1 19-46l18.48-5.14a16.44 16.44 0 0 0 -5.78.58l-21.93 6.1a31.64 31.64 0 0 0 -19 46z" fill="#474d65"/><path d="m550.58 843.46a20.63 20.63 0 0 0 15.08-21l-5-84.41a16.88 16.88 0 0 0 -21.38-15.38l-21.93 6.09a31.52 31.52 0 0 0 -19 45.86l28.41 58.38a20.62 20.62 0 0 0 23.82 10.46z" fill="#ffb2bf"/><g fill="#7385ac"><rect height="11.81" rx="5.91" transform="matrix(-.98640059 .16435901 -.16435901 -.98640059 1211.2 1516.67)" width="58.52" x="513.58" y="802.55"/><rect height="11.81" rx="5.91" transform="matrix(-.99233194 .12360148 -.12360148 -.99233194 1151.79 1381.8)" width="68.91" x="498.6" y="720.7"/><rect height="11.81" rx="5.91" transform="matrix(-.99233194 .12360148 -.12360148 -.99233194 1133.98 1338.55)" width="71.14" x="489.93" y="698.53"/></g><rect fill="#f9e0e5" height="52.84" rx="9.21" transform="matrix(-.99 .16 -.16 -.99 1141.11 1113.46)" width="18.41" x="515.27" y="577.53"/><path d="m522.25 281.25v50.75a20.41 20.41 0 1 1 -40.81 0v-50.75a20.41 20.41 0 1 1 40.81 0z" fill="#ffb2bf"/><path d="m522.25 281.25v33.55c-1.63.15-3.28.22-5 .22a53.93 53.93 0 0 1 -35.86-13.57v-20.2a20.41 20.41 0 1 1 40.81 0z" fill="#f9a0b4"/><circle cx="506" cy="252.45" fill="#ffb2bf" r="54.18"/><path d="m568.93 209.3a34.93 34.93 0 1 1 -38.63-34.73c.3 0 .61-.07.92-.09.92-.07 1.84-.11 2.78-.11.69 0 1.38 0 2.07.07h.61l.89.08.87.1c1 .13 1.9.29 2.85.48l.59.14.85.2a34.66 34.66 0 0 1 3.78 1.21l.77.31.62.26.89.41c.26.11.5.23.75.36l.73.37.73.4.72.4.69.43.7.44.68.46.67.47.66.49.64.5.63.52q.63.52 1.23 1.08c.2.18.41.37.6.56l.58.57a7.7 7.7 0 0 1 .56.59c.38.39.75.8 1.11 1.21a36.53 36.53 0 0 1 3.4 4.68c.27.45.54.91.79 1.37a33.6 33.6 0 0 1 1.85 3.93c.17.45.34.91.49 1.38a2.86 2.86 0 0 1 .15.41c.07.21.14.42.2.63s.17.56.25.83.16.56.22.83a31.87 31.87 0 0 1 .82 4.29c0 .24.07.5.09.75.08.74.14 1.5.17 2.26.02.51.03.98.03 1.46z" fill="#474d65"/><path d="m568.93 209.3a34.87 34.87 0 0 1 -1.15 8.91 53.72 53.72 0 0 0 -6.28-10.34 34.58 34.58 0 0 0 -1.64-9.26 34.94 34.94 0 0 0 -29.56-24c.3 0 .61-.07.92-.09.92-.07 1.84-.11 2.78-.11.69 0 1.38 0 2.07.07h.61l.89.08.87.1c1 .13 1.9.29 2.85.48l.59.14.85.2a34.66 34.66 0 0 1 3.78 1.21l.77.31.62.26.89.41c.26.11.5.23.75.36l.73.37.73.4.72.4.69.43.7.44.68.46.67.47.66.49.64.5.63.52q.63.52 1.23 1.08c.2.18.41.37.6.56l.58.57a7.7 7.7 0 0 1 .56.59c.38.39.75.8 1.11 1.21a36.53 36.53 0 0 1 3.4 4.68c.27.45.53.91.79 1.37a33.6 33.6 0 0 1 1.85 3.93c.17.45.33.91.49 1.38a2.86 2.86 0 0 1 .15.41c.07.21.14.42.2.63s.17.56.25.83.16.56.22.83a31.87 31.87 0 0 1 .82 4.29c0 .24.07.5.09.75.08.74.14 1.5.17 2.26.02.47.03.94.03 1.42z" fill="#7c8fb7"/><circle cx="483.46" cy="198.27" fill="#474d65" r="46.39"/><path d="m525.44 202.35a42.32 42.32 0 0 1 -42.32 42.32q-1.77 0-3.51-.15a42.31 42.31 0 0 0 0-84.33q1.74-.15 3.51-.15a42.31 42.31 0 0 1 42.32 42.31z" fill="#7c8fb7"/><path d="m492 224.31a42 42 0 0 1 -69 32.31 42.65 42.65 0 0 1 -6.39-6.63 1.13 1.13 0 0 0 -.1-.13l-.9-1.21c-.58-.82-1.14-1.67-1.66-2.54a6.16 6.16 0 0 1 -.33-.55c-.24-.39-.46-.8-.69-1.21q-.37-.68-.72-1.38c-.06-.13-.14-.27-.2-.42-.19-.38-.36-.76-.53-1.15-.26-.55-.48-1.1-.71-1.67s-.4-1.07-.59-1.61q-.15-.41-.27-.81l-.26-.82a39.24 39.24 0 0 1 -1.13-4.73c0-.21-.07-.41-.11-.63-.08-.48-.15-1-.21-1.45-.16-1.25-.26-2.52-.31-3.81 0-.21 0-.43 0-.65s0-.6 0-.9a42 42 0 0 1 42.05-42h1.41.75l1.19.08.86.07 1.42.17c.58.08 1.17.17 1.74.28a42 42 0 0 1 34.69 41.39z" fill="#474d65"/><path d="m422.61 224.31a41.73 41.73 0 0 0 5.16 20.17 39.59 39.59 0 0 0 3.61 5.51 54.82 54.82 0 0 0 -8.37 6.63 42.65 42.65 0 0 1 -6.39-6.63 1.13 1.13 0 0 0 -.1-.13l-.9-1.21c-.58-.82-1.14-1.67-1.66-2.54a6.16 6.16 0 0 1 -.33-.55c-.24-.39-.46-.8-.69-1.21q-.37-.68-.72-1.38c-.06-.13-.14-.27-.2-.42-.19-.38-.36-.76-.53-1.15-.26-.55-.48-1.1-.71-1.67s-.4-1.07-.59-1.61q-.15-.41-.27-.81l-.26-.82a39.24 39.24 0 0 1 -1.13-4.73c0-.21-.07-.41-.11-.63-.08-.48-.14-1-.21-1.45-.16-1.25-.26-2.52-.31-3.81 0-.21 0-.43 0-.65s0-.6 0-.9a42 42 0 0 1 42.05-42h1.41.75l1.19.08.86.07 1.42.17c.58.08 1.17.17 1.74.28a42 42 0 0 0 -34.71 41.39z" fill="#383f54"/><path d="m551.05 254.16a7.35 7.35 0 1 1 -14.49-1.71 7.34 7.34 0 0 0 14.29 0 6.9 6.9 0 0 1 .2 1.71z" fill="#474d65"/><path d="m514.69 254.16a7.35 7.35 0 1 1 -14.49-1.71 7.34 7.34 0 0 0 14.29 0 7.41 7.41 0 0 1 .2 1.71z" fill="#474d65"/><circle cx="456.26" cy="270.35" fill="#ffb2bf" r="13.37"/><ellipse cx="483.46" cy="198.27" fill="#7c8fb7" rx="19.06" ry="27.73"/><path d="m454.93 266.68v7.32a1.16 1.16 0 0 1 -1.53 1.1 5 5 0 0 1 0-9.54 1.16 1.16 0 0 1 1.53 1.12z" fill="#f9a0b4"/><path d="m528.88 268.72a8.55 8.55 0 0 1 -2.54 6.09c-.2.19-.4.38-.62.56a8.56 8.56 0 0 1 -5.48 1.95h-.35a8.63 8.63 0 0 1 -8.57-7.93q0-.36 0-.72a1.67 1.67 0 0 1 .49-1.18 1.62 1.62 0 0 1 1.19-.49h14.26a1.67 1.67 0 0 1 1.62 1.72z" fill="#962f4a"/><path d="m520.07 276a6.45 6.45 0 0 1 -.14 1.33 8.62 8.62 0 0 1 -8.57-7.93 6.73 6.73 0 0 1 1.91-.27 6.86 6.86 0 0 1 6.8 6.87z" fill="#e1617f"/><path d="m526.9 267c-.07 1.7-2.68 3-5.89 3s-5.81-1.37-5.87-3.06z" fill="#fff"/><rect fill="#d5cdc3" height="17.61" rx="8.8" transform="matrix(-1 0 0 -1 135.66 1752.08)" width="74.06" x="30.8" y="867.23"/><rect fill="#d5cdc3" height="17.61" rx="8.8" transform="matrix(-1 0 0 -1 1034 1752.08)" width="809.94" x="112.03" y="867.23"/><path d="m728.06 550.65v4.06c-4.32 0-14.46 0-14.46-8.91v-10.35a2.29 2.29 0 0 0 -2.27-2.3h-34.33a2.31 2.31 0 0 0 -2.29 2.3v10.35c0 8.91-10.13 8.91-14.46 8.91v-4.06c8.69 0 10.4-1.79 10.4-4.85v-10.35a6.36 6.36 0 0 1 6.35-6.36h34.36a6.36 6.36 0 0 1 6.33 6.36v10.35c-.03 3.06 1.68 4.85 10.37 4.85z" fill="#dceaff"/><path d="m717.66 527.39v6.61h-47v-6.6a4.31 4.31 0 0 1 4.3-4.31h38.46a4.3 4.3 0 0 1 4.24 4.3z" fill="#7385ac"/><path d="m670.62 530.03h47.05v3.96h-47.05z" fill="#a4c5ff"/><path d="m700.6 624.62h-12.92a40.64 40.64 0 0 1 -40.21-46.57l1.9-12.94a27.14 27.14 0 0 1 26.86-23.19h35.82a27.14 27.14 0 0 1 26.86 23.19l1.91 12.94a40.65 40.65 0 0 1 -40.22 46.57z" fill="#7385ac"/><path d="m662.26 571.23h63.74a0 0 0 0 1 0 0v23.62a10.48 10.48 0 0 1 -10.48 10.48h-42.78a10.48 10.48 0 0 1 -10.48-10.48v-23.62a0 0 0 0 1 0 0z" fill="#a4c5ff"/><path d="m662.26 568.72h63.74a0 0 0 0 1 0 0v23.62a10.48 10.48 0 0 1 -10.48 10.48h-42.8a10.48 10.48 0 0 1 -10.48-10.48v-23.62a0 0 0 0 1 .02 0z" fill="#7385ac"/><path d="m662.24 566.74h63.76v1.98h-63.76z" fill="#a4c5ff"/><path d="m664.55 579.1h-1.71a2.22 2.22 0 0 1 -2.2-2.59l1.6-9.77h2.9l1.61 9.77a2.23 2.23 0 0 1 -2.2 2.59z" fill="#dceaff"/></svg>