<svg width="1000" height="1000" viewBox="0 0 1000 1000" fill="none" xmlns="http://www.w3.org/2000/svg">
<path d="M982.75 524.22C982.755 538.689 979.909 553.018 974.374 566.386C968.84 579.755 960.725 591.902 950.494 602.134C940.262 612.365 928.115 620.48 914.746 626.014C901.378 631.549 887.049 634.395 872.58 634.39H782.74C777.568 634.39 772.608 636.444 768.951 640.101C765.294 643.758 763.24 648.718 763.24 653.89C763.24 659.062 765.294 664.022 768.951 667.679C772.608 671.336 777.568 673.39 782.74 673.39H809.57C825.67 673.39 841.234 679.173 853.428 689.687C865.621 700.201 873.631 714.745 876 730.67C876.474 733.918 876.712 737.197 876.71 740.48C876.707 758.287 869.633 775.363 857.043 787.956C844.452 800.548 827.377 807.625 809.57 807.63H803.3C794.12 807.629 785.03 809.436 776.549 812.948C768.068 816.46 760.361 821.609 753.87 828.1C747.379 834.591 742.23 842.298 738.718 850.779C735.206 859.26 733.399 868.35 733.4 877.53H242.4V843.17C242.4 833.744 238.656 824.704 231.99 818.039C225.325 811.374 216.286 807.63 206.86 807.63C189.187 807.652 172.222 800.681 159.67 788.24L159.38 787.96C149.071 777.667 142.387 764.303 140.335 749.881C138.282 735.459 140.972 720.76 148 708C149.453 705.365 151.091 702.835 152.9 700.43C154.897 697.724 157.1 695.177 159.49 692.81C172.057 680.319 189.061 673.315 206.78 673.33H328.48C333.652 673.33 338.612 671.276 342.268 667.619C345.925 663.962 347.98 659.002 347.98 653.83C347.98 648.658 345.925 643.698 342.268 640.041C338.612 636.384 333.652 634.33 328.48 634.33H127.43C101.969 634.317 77.2972 625.489 57.6087 609.344C37.9203 593.2 24.4298 570.736 19.4299 545.77C19.1799 544.59 18.9699 543.39 18.7699 542.19C17.8281 536.518 17.3365 530.78 17.2999 525.03C17.0399 490.22 33.4599 459.03 58.9399 438.63C78.7355 422.706 103.374 414.017 128.78 414H249.78C252.156 414 254.508 413.53 256.701 412.617C258.894 411.703 260.884 410.365 262.558 408.678C264.231 406.992 265.554 404.991 266.45 402.791C267.346 400.591 267.798 398.236 267.78 395.86C267.71 385.86 259.28 377.96 249.3 377.96H206.82C193.947 377.957 181.347 374.255 170.519 367.294C159.691 360.332 151.093 350.405 145.747 338.695C140.401 326.985 138.534 313.985 140.368 301.244C142.202 288.503 147.659 276.557 156.09 266.83C156.58 266.26 157.09 265.69 157.61 265.14C163.886 258.359 171.499 252.95 179.968 249.255C188.437 245.56 197.58 243.658 206.82 243.67H417.25C422.049 243.681 426.803 242.745 431.239 240.913C435.675 239.082 439.706 236.393 443.1 233C444.476 231.629 445.737 230.147 446.87 228.57C451.393 222.345 453.823 214.845 453.81 207.15C453.809 202.348 454.753 197.593 456.59 193.156C458.427 188.719 461.12 184.688 464.515 181.292C467.91 177.896 471.94 175.202 476.377 173.364C480.813 171.526 485.568 170.58 490.37 170.58H745.24C750.043 170.576 754.8 171.519 759.238 173.356C763.676 175.192 767.708 177.886 771.104 181.283C774.5 184.68 777.193 188.713 779.028 193.151C780.863 197.59 781.805 202.347 781.8 207.15V214.39C781.802 220.983 784.025 227.383 788.111 232.558C792.197 237.732 797.907 241.379 804.32 242.91C806.547 243.446 808.83 243.715 811.12 243.71C820.006 243.602 828.826 245.258 837.068 248.584C845.309 251.91 852.809 256.838 859.131 263.084C865.453 269.33 870.473 276.768 873.899 284.969C877.325 293.169 879.089 301.968 879.089 310.855C879.089 319.742 877.325 328.541 873.899 336.741C870.473 344.942 865.453 352.38 859.131 358.626C852.809 364.872 845.309 369.8 837.068 373.126C828.826 376.452 820.006 378.108 811.12 378H723.42C718.646 378 714.068 379.896 710.692 383.272C707.316 386.648 705.42 391.226 705.42 396C705.42 400.774 707.316 405.352 710.692 408.728C714.068 412.104 718.646 414 723.42 414H872.58C877.049 413.996 881.514 414.267 885.95 414.81C887.177 414.957 888.397 415.127 889.61 415.32C908.704 418.312 926.676 426.27 941.726 438.396C956.776 450.522 968.374 466.39 975.36 484.41L975.42 484.57C978.872 493.542 981.128 502.929 982.13 512.49V512.54C982.521 516.154 982.724 519.785 982.74 523.42C982.75 523.75 982.75 524 982.75 524.22Z" fill="url(#paint0_linear)"/>
<path d="M879.85 875.3H87.51C82.6499 875.3 78.71 879.24 78.71 884.1V884.11C78.71 888.97 82.6499 892.91 87.51 892.91H879.85C884.71 892.91 888.65 888.97 888.65 884.11V884.1C888.65 879.24 884.71 875.3 879.85 875.3Z" fill="#FF9393"/>
<path d="M653.47 624.28L602.45 752.14L505.33 665.74L326.44 506.6L322.7 376.84L320.31 293.65L380.68 353.56L653.47 624.28Z" fill="#FF9393"/>
<path d="M573.32 659.05L505.32 665.74L152.93 700.44C154.927 697.734 157.131 695.187 159.52 692.82C172.087 680.329 189.091 673.325 206.81 673.34H328.51C333.682 673.34 338.642 671.286 342.299 667.629C345.956 663.972 348.01 659.012 348.01 653.84C348.01 648.668 345.956 643.708 342.299 640.051C338.642 636.394 333.682 634.34 328.51 634.34H127.43C101.336 634.336 76.0906 625.073 56.1857 608.201C36.2809 591.328 23.0083 567.941 18.73 542.2L174.25 414.05L218 378L255.23 347.31L320.34 293.64L376.44 374.64L573.32 659.05Z" fill="#FF9393"/>
<path d="M876.71 740.48C876.707 758.287 869.633 775.364 857.043 787.956C844.452 800.548 827.377 807.625 809.57 807.63H803.3C794.12 807.629 785.03 809.436 776.549 812.948C768.068 816.461 760.361 821.609 753.87 828.1C747.379 834.591 742.23 842.298 738.718 850.779C735.206 859.26 733.399 868.35 733.4 877.53H242.4V843.17C242.4 833.744 238.656 824.705 231.991 818.039C225.325 811.374 216.286 807.63 206.86 807.63C189.187 807.652 172.222 800.681 159.67 788.24L159.38 787.96C149.979 778.574 143.574 766.609 140.977 753.581C138.38 740.552 139.708 727.046 144.792 714.773C149.876 702.5 158.488 692.011 169.537 684.635C180.586 677.26 193.575 673.329 206.86 673.34H328.56C332.822 673.342 336.966 671.945 340.357 669.364C343.748 666.782 346.198 663.159 347.33 659.05H764C765.137 663.158 767.589 666.779 770.981 669.36C774.373 671.941 778.518 673.339 782.78 673.34H809.61C818.427 673.339 827.158 675.074 835.305 678.448C843.451 681.822 850.853 686.767 857.088 693.002C863.323 699.237 868.268 706.639 871.642 714.785C875.016 722.932 876.751 731.663 876.75 740.48H876.71Z" fill="#FF9393"/>
<path d="M982.75 524.22C982.755 538.689 979.909 553.018 974.374 566.386C968.84 579.755 960.725 591.902 950.493 602.134C940.262 612.365 928.115 620.48 914.746 626.015C901.377 631.549 887.049 634.395 872.58 634.39H782.74C777.568 634.39 772.608 636.444 768.951 640.101C765.294 643.758 763.24 648.718 763.24 653.89C763.24 659.062 765.294 664.022 768.951 667.679C772.608 671.336 777.568 673.39 782.74 673.39H809.57C825.67 673.39 841.234 679.173 853.428 689.687C865.621 700.201 873.631 714.745 876 730.67H705.19L573.32 659.05L889.61 415.37C908.704 418.362 926.676 426.32 941.726 438.446C956.775 450.572 968.374 466.44 975.36 484.46L975.42 484.62C978.872 493.592 981.128 502.979 982.13 512.54V512.59C982.48 517.59 982.7 521.39 982.74 523.47C982.75 523.75 982.75 524 982.75 524.22V524.22Z" fill="#FF9393"/>
<path d="M124.78 489.28L19.3899 545.83C19.1399 544.65 18.9299 543.45 18.7299 542.25C17.788 536.578 17.2965 530.84 17.2599 525.09C16.9999 490.28 33.4199 459.09 58.8999 438.69L124.78 489.28Z" fill="#FF9393"/>
<path d="M380.68 353.56L376.41 374.67L320.31 293.65L380.68 353.56Z" fill="#F0F1F7"/>
<path d="M376.41 374.67L344.26 356.99L328.16 381.14L322.7 376.84L301.6 360.21L272.63 373.09L255.2 347.32L320.31 293.65L376.41 374.67Z" fill="white"/>
<path d="M500.22 130.6C506.709 130.6 511.97 125.339 511.97 118.85C511.97 112.361 506.709 107.1 500.22 107.1C493.731 107.1 488.47 112.361 488.47 118.85C488.47 125.339 493.731 130.6 500.22 130.6Z" fill="#5787A0"/>
<path d="M511.94 119.7C511.829 121.24 511.415 122.743 510.722 124.123C510.029 125.503 509.071 126.733 507.903 127.742C506.735 128.752 505.379 129.521 503.913 130.006C502.447 130.492 500.9 130.683 499.36 130.57C498.056 130.475 496.775 130.168 495.57 129.66C497.686 128.754 499.489 127.246 500.757 125.325C502.024 123.403 502.7 121.152 502.7 118.85C502.7 116.548 502.024 114.297 500.757 112.375C499.489 110.454 497.686 108.946 495.57 108.04C497.424 107.25 499.45 106.95 501.453 107.168C503.457 107.386 505.371 108.115 507.011 109.286C508.652 110.457 509.964 112.029 510.822 113.853C511.679 115.676 512.054 117.69 511.91 119.7H511.94Z" fill="#44788E"/>
<path d="M632.197 436.834C633.082 441.394 637.496 444.372 642.056 443.487C646.615 442.601 649.594 438.187 648.708 433.628L643.147 404.993C642.262 400.433 637.848 397.455 633.288 398.34C628.729 399.226 625.75 403.64 626.636 408.199L632.197 436.834Z" fill="#FFB2BF"/>
<path d="M779.4 869.14C779.351 869.578 779.159 869.987 778.854 870.304C778.549 870.622 778.148 870.83 777.712 870.896C777.277 870.962 776.832 870.882 776.447 870.67C776.061 870.457 775.756 870.123 775.58 869.72L651.5 475.27L647.5 462.5L645.92 457.5L662.23 452.64L663.66 457.71L667.29 470.59L779.34 868.59C779.385 868.77 779.406 868.955 779.4 869.14V869.14Z" fill="#5787A0"/>
<path d="M779.4 869.14C779.353 869.576 779.164 869.984 778.862 870.302C778.559 870.62 778.161 870.83 777.728 870.899C777.295 870.969 776.851 870.894 776.465 870.686C776.079 870.478 775.771 870.149 775.59 869.75L663.54 471.75L659.91 458.87L658.49 453.87L662.22 452.76L663.65 457.83L667.28 470.71L779.33 868.71C779.369 868.85 779.393 868.995 779.4 869.14Z" fill="#619BB5"/>
<path d="M667.27 470.57L651.5 475.27L647.48 462.5L663.64 457.69L667.27 470.57Z" fill="#427084"/>
<path d="M637.908 400.818C640.74 399.975 643.791 400.29 646.389 401.696C648.988 403.102 650.922 405.482 651.765 408.314L664.751 451.9L643.379 458.268L630.391 414.671C629.974 413.268 629.838 411.796 629.99 410.341C630.143 408.885 630.58 407.473 631.279 406.187C631.977 404.9 632.922 403.764 634.059 402.843C635.197 401.921 636.505 401.234 637.908 400.818V400.818Z" fill="#5787A0"/>
<path d="M669.231 450.553L638.87 459.598C635.329 460.653 633.313 464.379 634.368 467.92C635.423 471.461 639.149 473.476 642.69 472.421L673.051 463.376C676.592 462.321 678.607 458.595 677.552 455.054C676.497 451.513 672.772 449.498 669.231 450.553Z" fill="#5787A0"/>
<path d="M673.06 463.35L662.53 466.49C663.855 465.797 664.909 464.681 665.524 463.318C666.139 461.955 666.279 460.426 665.922 458.974C665.565 457.522 664.731 456.233 663.554 455.311C662.377 454.389 660.925 453.889 659.43 453.89C658.781 453.891 658.135 453.982 657.51 454.16L653 455.51V455.38L640 411.93C639.474 410.146 638.506 408.523 637.187 407.212C635.867 405.901 634.238 404.944 632.45 404.43C633.492 403.15 634.807 402.118 636.298 401.411C637.789 400.703 639.42 400.337 641.07 400.34C643.466 400.34 645.798 401.113 647.72 402.543C649.642 403.973 651.052 405.985 651.74 408.28L664.74 451.87L669.26 450.52C669.876 450.334 670.517 450.24 671.16 450.24C672.772 450.233 674.333 450.808 675.554 451.86C676.776 452.912 677.577 454.37 677.809 455.965C678.042 457.561 677.69 459.186 676.819 460.543C675.949 461.9 674.617 462.897 673.07 463.35H673.06Z" fill="#619BB5"/>
<path d="M543.84 827.22H469.36L446.8 404.93H521.27L543.84 827.22Z" fill="#5787A0"/>
<path d="M543.83 827.22H532.12L509.55 404.93H521.27L543.83 827.22Z" fill="#699CB2"/>
<path d="M551.75 879.2L547.53 808.9L545.27 771.26L543.27 738.39C543.163 736.58 542.368 734.879 541.048 733.635C539.728 732.392 537.983 731.699 536.17 731.7H461.65C460.677 731.701 459.714 731.901 458.821 732.288C457.928 732.676 457.124 733.242 456.459 733.953C455.793 734.663 455.281 735.502 454.952 736.418C454.624 737.335 454.487 738.309 454.55 739.28L456.6 771.28L459 808.9L461.55 848.63C452.153 849.467 443.409 853.791 437.041 860.752C430.672 867.713 427.14 876.805 427.14 886.24C427.139 886.53 427.195 886.817 427.304 887.085C427.414 887.353 427.576 887.597 427.781 887.802C427.985 888.007 428.228 888.17 428.496 888.281C428.763 888.393 429.05 888.45 429.34 888.45H543C544.194 888.458 545.377 888.22 546.475 887.751C547.573 887.283 548.564 886.593 549.384 885.726C550.205 884.858 550.838 883.831 551.245 882.709C551.652 881.586 551.824 880.392 551.75 879.2V879.2Z" fill="#FFD9CD"/>
<path d="M551.75 879.2L547.53 808.9L545.27 771.26L543.27 738.39C543.163 736.58 542.368 734.879 541.048 733.635C539.728 732.392 537.983 731.699 536.17 731.7H461.65C460.677 731.701 459.714 731.901 458.821 732.288C457.928 732.676 457.124 733.242 456.459 733.953C455.793 734.663 455.281 735.502 454.952 736.418C454.624 737.335 454.487 738.309 454.55 739.28L456.6 771.28L459 808.9L461.55 848.63C452.153 849.467 443.409 853.791 437.041 860.752C430.672 867.713 427.14 876.805 427.14 886.24C427.139 886.53 427.195 886.817 427.304 887.085C427.414 887.353 427.576 887.597 427.781 887.802C427.985 888.007 428.228 888.17 428.496 888.281C428.763 888.393 429.05 888.45 429.34 888.45H543C544.194 888.458 545.377 888.22 546.475 887.751C547.573 887.283 548.564 886.593 549.384 885.726C550.205 884.858 550.838 883.831 551.245 882.709C551.652 881.586 551.824 880.392 551.75 879.2V879.2Z" fill="#FFD9CD"/>
<path d="M543 888.44H528.68C529.87 888.442 531.048 888.201 532.14 887.73C533.233 887.26 534.218 886.57 535.034 885.704C535.85 884.839 536.48 883.815 536.886 882.696C537.291 881.577 537.462 880.388 537.39 879.2L533.17 808.9L530.91 771.26L528.91 738.39C528.803 736.58 528.008 734.879 526.688 733.635C525.369 732.392 523.623 731.699 521.81 731.7H536.2C538.013 731.699 539.759 732.392 541.078 733.635C542.398 734.879 543.193 736.58 543.3 738.39L545.3 771.26L547.56 808.9L551.78 879.2C551.853 880.393 551.679 881.589 551.27 882.713C550.86 883.836 550.224 884.863 549.4 885.73C548.577 886.597 547.583 887.285 546.482 887.751C545.381 888.217 544.196 888.452 543 888.44V888.44Z" fill="#F9E5E1"/>
<path d="M547.53 808.9H459.01L456.6 771.26H545.27L547.53 808.9Z" fill="#CC488E"/>
<path d="M495 146.41H497.11C501.444 146.41 505.735 147.264 509.739 148.922C513.742 150.58 517.38 153.011 520.444 156.075C523.509 159.14 525.94 162.778 527.598 166.781C529.256 170.785 530.11 175.076 530.11 179.41V257.35C530.11 259.182 529.749 260.996 529.048 262.688C528.347 264.381 527.32 265.919 526.024 267.214C524.729 268.509 523.191 269.537 521.498 270.238C519.806 270.939 517.992 271.3 516.16 271.3H462.68C458.98 271.3 455.432 269.83 452.816 267.214C450.2 264.598 448.73 261.05 448.73 257.35V192.63C448.73 186.556 449.927 180.542 452.253 174.931C454.579 169.32 457.988 164.222 462.285 159.93C466.582 155.637 471.684 152.234 477.297 149.914C482.91 147.594 488.926 146.403 495 146.41V146.41Z" fill="#2B2137"/>
<path d="M479.17 297.46L434.17 327.97L414.48 341.32C411.935 343.124 409.055 344.401 406.01 345.078C402.965 345.755 399.815 345.817 396.746 345.262C393.676 344.706 390.748 343.544 388.134 341.842C385.519 340.141 383.27 337.935 381.518 335.354C379.767 332.773 378.548 329.868 377.932 326.81C377.317 323.752 377.319 320.602 377.936 317.544C378.554 314.486 379.775 311.583 381.529 309.003C383.283 306.423 385.534 304.219 388.15 302.52L410.6 287.3L413.23 285.51L452.82 258.65C457.966 255.161 464.288 253.86 470.394 255.032C476.5 256.204 481.891 259.753 485.38 264.9C488.869 270.047 490.17 276.368 488.998 282.474C487.826 288.581 484.276 293.971 479.13 297.46H479.17Z" fill="#F9CABD"/>
<path d="M423.83 327.58C422.817 331.42 420.846 334.939 418.102 337.809C415.357 340.679 411.928 342.805 408.137 343.987C404.346 345.169 400.317 345.37 396.428 344.569C392.538 343.768 388.916 341.993 385.9 339.41L385.22 338.8C384.99 338.59 384.79 338.39 384.58 338.18L384.33 337.93L383.92 337.49C383.59 337.13 383.26 336.77 382.97 336.39C382.68 336.01 382.54 335.85 382.33 335.57C381.691 334.715 381.113 333.816 380.6 332.88C380.45 332.62 380.32 332.36 380.19 332.09C380.06 331.82 379.92 331.55 379.8 331.27C379.53 330.67 379.27 330.05 379.05 329.42L355.64 263.13L353 255.74C352.697 254.881 352.44 254.006 352.23 253.12C350.792 247.244 351.682 241.04 354.712 235.804C357.743 230.569 362.681 226.708 368.493 225.029C374.304 223.35 380.54 223.983 385.896 226.796C391.252 229.608 395.313 234.382 397.23 240.12L423.23 313.8C424.814 318.228 425.023 323.031 423.83 327.58V327.58Z" fill="#F9CABD"/>
<path d="M405.71 264.11L365.42 281L362.42 282.27L355.7 263.27L355.65 263.12L354.57 260.06L353 255.74C352.703 254.877 352.449 253.999 352.24 253.11C350.956 247.465 351.804 241.545 354.623 236.489C357.442 231.433 362.031 227.598 367.508 225.722C372.984 223.846 378.961 224.063 384.288 226.33C389.614 228.596 393.914 232.753 396.36 238C396.67 238.68 396.96 239.4 397.23 240.12L405.71 264.11Z" fill="#FFB2BF"/>
<path d="M423.82 327.58C422.809 331.42 420.839 334.939 418.095 337.809C415.351 340.679 411.924 342.805 408.133 343.988C404.343 345.17 400.314 345.371 396.426 344.57C392.537 343.769 388.915 341.994 385.9 339.41C385.68 339.21 385.44 339.01 385.22 338.8C385 338.59 384.78 338.39 384.58 338.18L384.33 337.93C384.19 337.79 384.06 337.64 383.91 337.5C383.59 337.14 383.26 336.77 382.91 336.39L382.28 335.57C381.642 334.714 381.064 333.815 380.55 332.88C380.4 332.61 380.27 332.36 380.15 332.1C380.001 331.832 379.871 331.555 379.76 331.27C379.48 330.67 379.23 330.05 379 329.42L362.36 282.31L405.66 264.11L423.22 313.8C424.809 318.227 425.018 323.032 423.82 327.58V327.58Z" fill="#F9CABD"/>
<path d="M396.272 252.102C401.077 239.276 391.783 223.936 375.513 217.84C359.243 211.744 342.157 217.199 337.352 230.025C332.546 242.851 341.84 258.191 358.11 264.287C374.381 270.383 391.466 264.928 396.272 252.102Z" fill="#FFB2BF"/>
<path d="M409.85 343.38L408.98 343.71C405.095 345.083 400.917 345.409 396.865 344.656C392.814 343.903 389.032 342.097 385.9 339.42L385.22 338.8C384.99 338.6 384.78 338.39 384.58 338.18L384.33 337.93C384.19 337.79 384.06 337.64 383.91 337.5C383.59 337.14 383.26 336.77 382.91 336.4L382.28 335.58C381.644 334.719 381.066 333.817 380.55 332.88C380.403 332.627 380.269 332.367 380.15 332.1C379.996 331.835 379.865 331.558 379.76 331.27C379.48 330.67 379.23 330.05 379 329.42L362.36 282.31L365.36 281.04L382.08 328.43C382.31 329.05 382.56 329.67 382.83 330.28C382.949 330.557 383.083 330.827 383.23 331.09C383.349 331.364 383.483 331.631 383.63 331.89C384.145 332.822 384.72 333.721 385.35 334.58L386 335.4C386.29 335.77 386.62 336.14 386.95 336.49C387.08 336.65 387.22 336.78 387.36 336.93C387.438 337.018 387.522 337.102 387.61 337.18C387.811 337.399 388.024 337.606 388.25 337.8L388.93 338.42C391.772 340.85 395.152 342.568 398.79 343.43C402.428 344.293 406.22 344.276 409.85 343.38V343.38Z" fill="#FFD9CD"/>
<path d="M365.42 281L362.42 282.27L355.7 263.27C354.58 262.77 353.5 262.21 352.45 261.62L351.82 261.25C351.58 261.12 351.34 260.98 351.12 260.84C350.9 260.7 350.41 260.39 350.06 260.15C349.71 259.91 349.36 259.68 349.06 259.44C348.76 259.2 348.39 258.95 348.06 258.7C347.73 258.45 347.68 258.41 347.5 258.25C347.32 258.09 346.97 257.84 346.72 257.62C346.47 257.4 346.31 257.27 346.11 257.09C345.91 256.91 345.56 256.6 345.29 256.34C345.02 256.08 344.71 255.8 344.44 255.51C343.87 254.94 343.34 254.36 342.85 253.78C342.59 253.49 342.35 253.18 342.11 252.89C341.839 252.571 341.585 252.237 341.35 251.89C340.912 251.322 340.505 250.731 340.13 250.12C338.949 248.261 337.996 246.266 337.29 244.18C337.19 243.86 337.08 243.53 336.99 243.18C336.9 242.83 336.81 242.51 336.73 242.18C336.65 241.85 336.61 241.66 336.56 241.41C335.744 237.61 336.025 233.657 337.37 230.01C337.52 229.61 337.69 229.21 337.86 228.82C337.86 228.76 337.91 228.7 337.94 228.65C338.26 227.99 338.6 227.34 338.94 226.72C339.05 226.55 339.14 226.38 339.26 226.22C339.47 225.89 339.68 225.57 339.92 225.22C340.17 224.88 340.44 224.54 340.72 224.22C341 223.9 341.3 223.54 341.61 223.22L342.31 222.52L342.62 222.25C342.93 221.94 343.26 221.67 343.62 221.39C343.98 221.11 344.34 220.82 344.71 220.56C345.08 220.3 345.44 220.03 345.84 219.78L345.96 219.7C346.26 219.5 346.59 219.3 346.96 219.12C348.675 218.149 350.488 217.365 352.37 216.78C352.81 216.64 353.26 216.52 353.71 216.4C347.54 218.76 342.71 223.12 340.48 229.05C336.38 239.99 342.57 252.79 354.61 260.05C355.967 260.881 357.377 261.622 358.83 262.27L359.74 264.81L365.42 281Z" fill="#F9A0B4"/>
<path d="M633.04 832.99H558.58L489.46 430.38H564.54L633.04 832.99Z" fill="#8AB6C9"/>
<path d="M532.12 495.53C509.492 495.53 487.79 486.541 471.79 470.54C455.789 454.54 446.8 432.838 446.8 410.21V373.6H532.12V495.53Z" fill="#8AB6C9"/>
<path d="M446.45 387.28H532.48C536.257 387.28 539.32 384.218 539.32 380.44C539.32 376.662 536.257 373.6 532.48 373.6H446.45C442.672 373.6 439.61 376.662 439.61 380.44C439.61 384.218 442.672 387.28 446.45 387.28Z" fill="#5787A0"/>
<path d="M532.12 373.61H446.8V311.85H532.12V373.61Z" fill="#FFF2EE"/>
<path d="M532.12 311.84H446.8V340.11L532.12 332.74V311.84Z" fill="#FFD9CD"/>
<path d="M668.31 398.22C668.547 402.904 667.37 407.551 664.931 411.557C662.493 415.563 658.906 418.743 654.637 420.684C650.367 422.625 645.613 423.237 640.991 422.441C636.369 421.645 632.094 419.478 628.72 416.22L536.72 327.35L506.72 298.35C502.259 294.042 499.692 288.138 499.585 281.937C499.477 275.736 501.837 269.746 506.145 265.285C510.454 260.824 516.358 258.257 522.559 258.15C528.759 258.042 534.749 260.402 539.21 264.71L661.21 382.55C665.488 386.677 668.028 392.282 668.31 398.22V398.22Z" fill="#FFF2EE"/>
<path d="M661.78 415.69C659.647 417.9 657.1 419.669 654.283 420.894C651.467 422.12 648.436 422.778 645.365 422.832C642.294 422.886 639.242 422.334 636.385 421.208C633.527 420.082 630.919 418.404 628.71 416.27L627.99 415.57L616 404L623.14 394.89L645 367L661.2 382.64C665.658 386.951 668.222 392.856 668.329 399.057C668.436 405.258 666.077 411.247 661.77 415.71L661.78 415.69Z" fill="#FFB2BF"/>
<path d="M679.52 428.221C688.658 416.831 685.107 398.806 671.589 387.96C658.071 377.115 639.705 377.556 630.567 388.946C621.429 400.336 624.98 418.361 638.498 429.206C652.016 440.052 670.382 439.61 679.52 428.221Z" fill="#FFB2BF"/>
<path d="M623.12 394.86L616 404L506.7 298.43C506.36 298.11 506.027 297.777 505.7 297.43L505.58 297.31C505.32 297.02 505.06 296.71 504.81 296.42L504.66 296.21C504.43 295.93 504.21 295.64 504 295.35C503.941 295.284 503.888 295.214 503.84 295.14L503.2 294.21C503.178 294.155 503.148 294.105 503.11 294.06C502.407 292.942 501.799 291.768 501.29 290.55C501.29 290.5 501.29 290.44 501.24 290.39C501.09 290.05 500.96 289.7 500.84 289.39L500.76 289.16C500.64 288.82 500.54 288.48 500.44 288.16C500.425 288.095 500.405 288.032 500.38 287.97C500.27 287.57 500.18 287.19 500.09 286.79C500.088 286.773 500.088 286.757 500.09 286.74C499.248 282.967 499.356 279.045 500.403 275.324C501.45 271.603 503.404 268.2 506.09 265.42C506.17 265.361 506.241 265.29 506.3 265.21C511.3 260.31 519.3 265.82 516.76 272.35C515.102 276.638 514.745 281.321 515.736 285.811C516.727 290.3 519.021 294.398 522.33 297.59L623.12 394.86Z" fill="#FFD9CD"/>
<path d="M679.52 428.23C676.824 431.563 673.254 434.08 669.21 435.5C669.156 435.526 669.099 435.543 669.04 435.55C667.965 435.931 666.866 436.242 665.75 436.48L665.34 436.55L663.93 436.78C663.822 436.807 663.711 436.824 663.6 436.83C663.03 436.91 662.45 436.96 661.87 437C661.77 436.989 661.67 436.989 661.57 437C661.07 437 660.57 437 660.08 437H659.64C658.45 437 657.26 436.9 656.06 436.76L655.63 436.69C655.13 436.63 654.63 436.55 654.12 436.44L653.79 436.39C653.19 436.27 652.58 436.13 651.97 435.97L651.68 435.89C651.17 435.76 650.68 435.6 650.14 435.44L649.73 435.31C648.503 434.895 647.298 434.418 646.12 433.88L645.77 433.71C645.24 433.46 644.77 433.2 644.21 432.92C644.134 432.886 644.06 432.846 643.99 432.8C643.39 432.48 642.78 432.14 642.2 431.8L642.05 431.69C641.5 431.36 640.98 431.01 640.45 430.64C640.362 430.583 640.278 430.52 640.2 430.45C639.62 430.04 639.05 429.62 638.49 429.17C635.063 426.444 632.162 423.117 629.93 419.35C629.93 419.35 629.93 419.29 629.86 419.25C629.841 419.214 629.825 419.178 629.81 419.14C629.128 417.979 628.52 416.777 627.99 415.54L616 404L623.14 394.89L626.23 397.89L643.68 414.75C644.03 417.765 645.37 420.578 647.49 422.75C654.75 430.56 670.49 433.12 679.23 420.75C681.93 417.16 683.634 412.92 684.17 408.46C685.4 415.54 684 422.67 679.52 428.23V428.23Z" fill="#F9A0B4"/>
<path d="M509 236.46L507.69 244L504.89 260.17C504.679 261.951 504.108 263.671 503.211 265.224C502.314 266.777 501.11 268.131 499.673 269.204C498.236 270.277 496.595 271.045 494.851 271.463C493.107 271.882 491.296 271.94 489.528 271.636C487.761 271.331 486.074 270.67 484.57 269.692C483.067 268.714 481.778 267.441 480.783 265.949C479.787 264.457 479.106 262.778 478.781 261.014C478.455 259.25 478.493 257.439 478.89 255.69L479.18 253.99L482.98 231.99C483.193 230.211 483.767 228.493 484.665 226.943C485.563 225.392 486.768 224.04 488.205 222.97C489.642 221.899 491.282 221.132 493.025 220.716C494.768 220.299 496.578 220.241 498.344 220.546C500.11 220.851 501.795 221.513 503.298 222.49C504.8 223.467 506.088 224.739 507.083 226.23C508.078 227.72 508.759 229.398 509.085 231.16C509.411 232.922 509.376 234.732 508.98 236.48L509 236.46Z" fill="#FFB2BF"/>
<path d="M548.11 301.88V302.67C548.112 307.257 546.806 311.75 544.346 315.621C541.886 319.493 538.373 322.583 534.22 324.53L505.78 294C501.66 289.591 499.412 283.754 499.51 277.72H524C527.17 277.723 530.308 278.35 533.235 279.565C536.162 280.781 538.821 282.562 541.06 284.805C543.299 287.049 545.074 289.711 546.284 292.641C547.493 295.571 548.114 298.71 548.11 301.88Z" fill="#FFD9CD"/>
<path d="M444.37 326.81H519.75C533.077 326.81 543.88 316.007 543.88 302.68V301.88C543.88 288.553 533.077 277.75 519.75 277.75H444.37C431.043 277.75 420.24 288.553 420.24 301.88V302.68C420.24 316.007 431.043 326.81 444.37 326.81Z" fill="#FFF2EE"/>
<path d="M537.72 318.78C535.453 321.307 532.678 323.326 529.575 324.705C526.473 326.083 523.115 326.791 519.72 326.78H444.38C441.21 326.783 438.071 326.161 435.142 324.95C432.213 323.739 429.551 321.963 427.308 319.723C425.065 317.483 423.286 314.823 422.072 311.896C420.857 308.968 420.231 305.83 420.23 302.66V301.85C420.228 297.918 421.189 294.045 423.03 290.571C424.871 287.097 427.535 284.126 430.79 281.92C427.083 286.272 425.051 291.804 425.06 297.52V298.33C425.06 304.73 427.602 310.867 432.127 315.393C436.653 319.918 442.79 322.46 449.19 322.46H524.57C529.109 322.465 533.557 321.186 537.4 318.77L537.72 318.78Z" fill="#FFD9CD"/>
<path d="M515.99 490.12C543.378 490.12 565.58 467.918 565.58 440.53C565.58 413.142 543.378 390.94 515.99 390.94C488.602 390.94 466.4 413.142 466.4 440.53C466.4 467.918 488.602 490.12 515.99 490.12Z" fill="#8AB6C9"/>
<path d="M633 833H558.57L557.94 829.34H623.24L560.74 461.93L555.37 430.39L555.3 429.98L554.79 426.93V426.77C553.254 419.433 550.075 412.54 545.492 406.607C540.909 400.675 535.042 395.859 528.33 392.52C537.312 394.823 545.47 399.594 551.88 406.294C558.29 412.994 562.697 421.355 564.6 430.43L565.22 434.06C565.212 434.13 565.212 434.2 565.22 434.27L633 833Z" fill="#A8D4E5"/>
<path d="M554.75 426.72V426.88C554.755 426.827 554.755 426.773 554.75 426.72V426.72Z" fill="#A8D4E5"/>
<path d="M555.3 430L555.37 430.41C555.34 430.25 555.31 430.1 555.3 430Z" fill="#A8D4E5"/>
<path d="M565.16 434L564.54 430.37C564.79 431.57 565 432.78 565.16 434Z" fill="#A8D4E5"/>
<path d="M554.77 426.88C554.775 426.827 554.775 426.773 554.77 426.72V426.88Z" fill="#A8D4E5"/>
<path d="M555.37 430.38C555.37 430.25 555.37 430.1 555.32 429.97L555.37 430.38Z" fill="#A8D4E5"/>
<path d="M509 236.46L507.69 244C499.641 250.579 489.535 254.119 479.14 254L482.94 232C483.154 230.221 483.727 228.503 484.625 226.953C485.523 225.402 486.728 224.05 488.165 222.98C489.602 221.909 491.242 221.142 492.985 220.726C494.728 220.309 496.538 220.251 498.304 220.556C500.07 220.861 501.755 221.523 503.258 222.5C504.76 223.477 506.048 224.749 507.043 226.24C508.038 227.73 508.719 229.408 509.045 231.17C509.372 232.932 509.336 234.742 508.94 236.49L509 236.46Z" fill="#F9A0B4"/>
<path d="M530 178.4L528.51 207.25C527.9 219.018 522.64 230.063 513.888 237.954C505.136 245.845 493.609 249.937 481.84 249.33C477.344 249.098 472.938 247.983 468.873 246.049C464.808 244.114 461.164 241.398 458.149 238.055C455.134 234.712 452.807 230.808 451.3 226.566C449.794 222.323 449.138 217.826 449.37 213.33L450.62 189.12V188.68C450.62 188.01 450.71 187.36 450.78 186.68C451.99 175.061 457.576 164.338 466.403 156.687C475.23 149.035 486.637 145.029 498.31 145.48H498.93L500.38 145.56C502.357 145.656 504.319 145.944 506.24 146.42C513.304 148.151 519.542 152.293 523.879 158.131C528.217 163.969 530.381 171.137 530 178.4V178.4Z" fill="#FFB2BF"/>
<path d="M536.29 198.94L527.75 181.11C526.923 179.397 525.814 177.836 524.47 176.49L525.47 176.28C525.83 176.17 526.72 171.4 526.72 171.04C526.735 170.961 526.735 170.879 526.72 170.8C525.143 165.578 522.526 160.73 519.025 156.546C515.524 152.363 511.212 148.932 506.35 146.46C504.429 145.984 502.467 145.696 500.49 145.6L499.04 145.52H498.42C486.747 145.069 475.34 149.075 466.513 156.727C457.686 164.378 452.1 175.101 450.89 186.72C458.949 189.496 467.68 189.646 475.83 187.15L489.3 184.21C493.838 183.217 498.579 183.786 502.753 185.824C506.928 187.863 510.292 191.251 512.3 195.44C514.232 199.475 517.688 202.577 521.908 204.065C526.127 205.552 530.765 205.302 534.8 203.37C535.584 202.979 536.181 202.293 536.461 201.463C536.74 200.633 536.679 199.725 536.29 198.94V198.94Z" fill="#F9A0B4"/>
<path d="M511 163.08H515.2C520.878 163.08 526.324 165.336 530.339 169.351C534.354 173.366 536.61 178.812 536.61 184.49V201.49C536.61 202.604 536.168 203.672 535.38 204.46C534.592 205.247 533.524 205.69 532.41 205.69C529.595 205.69 526.808 205.135 524.208 204.056C521.607 202.978 519.245 201.397 517.257 199.405C515.268 197.413 513.692 195.048 512.618 192.445C511.545 189.843 510.995 187.055 511 184.24V163.08V163.08Z" fill="#2B2137"/>
<path d="M527.3 212.73C534.988 212.73 541.22 206.498 541.22 198.81C541.22 191.122 534.988 184.89 527.3 184.89C519.612 184.89 513.38 191.122 513.38 198.81C513.38 206.498 519.612 212.73 527.3 212.73Z" fill="#FFB2BF"/>
<path d="M532 198.76C532.067 197.593 531.786 196.432 531.194 195.425C530.601 194.417 529.723 193.608 528.67 193.1C528.417 192.987 528.14 192.938 527.863 192.957C527.587 192.976 527.319 193.062 527.084 193.208C526.848 193.354 526.652 193.555 526.512 193.794C526.371 194.033 526.292 194.303 526.28 194.58L525.86 202.3C525.847 202.59 525.907 202.878 526.035 203.139C526.163 203.399 526.354 203.624 526.591 203.791C526.828 203.958 527.103 204.063 527.391 204.096C527.679 204.129 527.971 204.089 528.24 203.98C529.298 203.557 530.213 202.841 530.879 201.917C531.545 200.992 531.934 199.897 532 198.76V198.76Z" fill="#F9A0B4"/>
<path d="M462.55 373.61H467.57V387.29H462.55V373.61Z" fill="#8AB6C9"/>
<path d="M483.8 373.61H488.82V387.29H483.8V373.61Z" fill="#8AB6C9"/>
<path d="M505.05 373.61H510.07V387.29H505.05V373.61Z" fill="#8AB6C9"/>
<path d="M463.17 196.59C464.998 196.59 466.48 195.108 466.48 193.28C466.48 191.452 464.998 189.97 463.17 189.97C461.342 189.97 459.86 191.452 459.86 193.28C459.86 195.108 461.342 196.59 463.17 196.59Z" fill="#FFD9CD"/>
<path d="M493.36 196.59C495.188 196.59 496.67 195.108 496.67 193.28C496.67 191.452 495.188 189.97 493.36 189.97C491.532 189.97 490.05 191.452 490.05 193.28C490.05 195.108 491.532 196.59 493.36 196.59Z" fill="#FFD9CD"/>
<path d="M482.579 211.576C482.594 209.511 480.6 207.822 478.126 207.804C475.652 207.786 473.634 209.445 473.619 211.511C473.604 213.576 475.597 215.265 478.071 215.283C480.546 215.302 482.564 213.642 482.579 211.576Z" fill="#DB5A9A"/>
<path d="M489.409 211.627C489.424 209.561 487.431 207.872 484.956 207.854C482.482 207.836 480.464 209.496 480.449 211.561C480.434 213.627 482.427 215.316 484.902 215.334C487.376 215.352 489.394 213.692 489.409 211.627Z" fill="#DB5A9A"/>
<path d="M473.62 211.51L489.4 211.62C489.4 214.98 485.83 217.68 481.47 217.62C477.11 217.56 473.6 214.87 473.62 211.51V211.51Z" fill="#DB5A9A"/>
<path d="M484.92 212.53C484.92 213.69 483.3 214.62 481.31 214.61C479.32 214.6 477.73 213.61 477.74 212.48" fill="#EA8BBF"/>
<path d="M646.6 848.47H558.4L550.71 808.9L543.4 771.26L537.56 741.26C537.336 740.102 537.37 738.91 537.661 737.767C537.952 736.624 538.492 735.56 539.242 734.65C539.992 733.741 540.934 733.008 542 732.505C543.066 732.002 544.231 731.741 545.41 731.74H618C619.866 731.738 621.674 732.389 623.112 733.579C624.549 734.77 625.525 736.426 625.87 738.26L632.07 771.26L639.16 808.9L646.6 848.47Z" fill="#FFF2EE"/>
<path d="M650.3 866.77L645.87 844.62L639.17 808.9L632.08 771.26L625.88 738.26C625.543 736.417 624.569 734.75 623.129 733.552C621.689 732.353 619.874 731.697 618 731.7H545.4C544.221 731.701 543.056 731.962 541.99 732.465C540.924 732.968 539.982 733.701 539.232 734.61C538.482 735.52 537.942 736.584 537.651 737.727C537.36 738.87 537.326 740.062 537.55 741.22L543.39 771.22L550.7 808.86L558.39 848.43H558.44V848.56C548.967 849.305 540.122 853.593 533.67 860.569C527.219 867.546 523.633 876.698 523.63 886.2C523.629 886.49 523.684 886.777 523.794 887.045C523.904 887.313 524.066 887.557 524.271 887.762C524.475 887.967 524.718 888.13 524.986 888.242C525.253 888.353 525.54 888.41 525.83 888.41H632.52C635.198 888.409 637.842 887.815 640.263 886.67C642.684 885.525 644.821 883.858 646.521 881.789C648.221 879.72 649.442 877.3 650.095 874.703C650.748 872.107 650.818 869.397 650.3 866.77V866.77Z" fill="#FFF2EE"/>
<path d="M632.52 888.44H614.91C617.591 888.442 620.24 887.848 622.664 886.702C625.089 885.556 627.228 883.887 628.929 881.814C630.63 879.741 631.85 877.316 632.5 874.714C633.15 872.113 633.215 869.4 632.69 866.77L628.27 844.62L621.56 808.9L614.47 771.26L608.27 738.26C607.925 736.426 606.949 734.77 605.512 733.579C604.075 732.389 602.266 731.738 600.4 731.74H618C619.866 731.738 621.674 732.389 623.112 733.579C624.549 734.77 625.525 736.426 625.87 738.26L632.07 771.26L639.16 808.9L645.86 844.62L650.28 866.77C650.807 869.398 650.744 872.11 650.095 874.711C649.447 877.312 648.229 879.736 646.53 881.81C644.831 883.883 642.693 885.553 640.27 886.699C637.847 887.846 635.2 888.44 632.52 888.44V888.44Z" fill="#FFFDFD"/>
<path d="M639.17 808.9H550.71L543.39 771.26H632.08L639.17 808.9Z" fill="#DB5A9A"/>
<path d="M639.17 808.9H581.57L565.82 792.52L576.8 771.26H632.13L639.17 808.9Z" fill="#8AB6C9"/>
<path d="M547.53 808.9H496L480.25 792.52L491.23 771.26H545.27L547.53 808.9Z" fill="#5787A0"/>
<path d="M547.53 808.9H533.17L530.91 771.26H545.27L547.53 808.9Z" fill="#8AB6C9"/>
<path d="M466.857 193.329L467.461 185.202L494.766 187.231L494.162 195.358L466.857 193.329Z" fill="#2B2137"/>
<path d="M512.74 212.47L500.21 211.54C497.974 211.374 495.793 210.769 493.791 209.76C491.789 208.751 490.005 207.358 488.541 205.66C487.078 203.961 485.963 201.991 485.261 199.862C484.559 197.732 484.284 195.486 484.45 193.25L484.94 186.65C485.05 185.166 485.743 183.787 486.867 182.812C487.991 181.838 489.456 181.348 490.94 181.45L514.88 183.23C516.364 183.34 517.743 184.033 518.718 185.157C519.692 186.282 520.182 187.746 520.08 189.23L518.74 207.23C518.692 207.969 518.498 208.69 518.17 209.354C517.842 210.018 517.386 210.61 516.829 211.097C516.271 211.584 515.623 211.956 514.921 212.191C514.22 212.427 513.478 212.522 512.74 212.47V212.47Z" fill="#2B2137"/>
<path d="M449.37 207.76L461.9 208.69C464.137 208.858 466.384 208.583 468.515 207.882C470.645 207.18 472.616 206.066 474.316 204.602C476.015 203.139 477.41 201.354 478.42 199.352C479.429 197.349 480.034 195.167 480.2 192.93L480.69 186.34C480.792 184.856 480.302 183.391 479.328 182.267C478.353 181.143 476.974 180.45 475.49 180.34L451.55 178.56C450.066 178.461 448.604 178.951 447.48 179.925C446.356 180.899 445.663 182.277 445.55 183.76L444.21 201.76C444.108 203.238 444.592 204.696 445.558 205.819C446.524 206.943 447.893 207.64 449.37 207.76V207.76Z" fill="#2B2137"/>
<path d="M477.14 187.46C477.15 187.586 477.15 187.714 477.14 187.84L476.75 193.15C476.615 194.951 476.125 196.707 475.311 198.319C474.496 199.931 473.371 201.366 472.001 202.543C470.632 203.72 469.043 204.615 467.327 205.177C465.611 205.739 463.801 205.958 462 205.82L457 205.45L452 205.1H451.85C451.255 205.057 450.675 204.897 450.142 204.629C449.61 204.362 449.135 203.991 448.746 203.54C448.357 203.088 448.06 202.564 447.874 201.998C447.688 201.432 447.615 200.834 447.66 200.24L447.99 195.84L448.74 185.75C448.832 184.552 449.395 183.439 450.306 182.656C451.217 181.872 452.402 181.482 453.6 181.57L463.12 182.28L472.24 182.95L472.86 183.01C473.821 183.071 474.735 183.447 475.46 184.08C475.966 184.49 476.378 185.004 476.668 185.587C476.958 186.17 477.119 186.809 477.14 187.46V187.46Z" fill="#382F44"/>
<path d="M516.24 190.4L515.16 204.88C515.07 206.08 514.508 207.195 513.597 207.981C512.686 208.766 511.5 209.158 510.3 209.07L500.23 208.33C497.387 208.118 494.681 207.024 492.49 205.2C491.719 204.563 491.019 203.845 490.4 203.06C488.949 201.2 488.008 198.994 487.67 196.66C487.51 195.648 487.469 194.621 487.55 193.6L487.95 188.31C487.99 187.715 488.148 187.135 488.415 186.601C488.681 186.068 489.05 185.593 489.501 185.204C489.952 184.814 490.476 184.518 491.042 184.332C491.608 184.146 492.206 184.074 492.8 184.12L500.99 184.73L510.11 185.4L512.06 185.55C512.683 185.593 513.289 185.766 513.84 186.06C514.389 186.349 514.872 186.748 515.261 187.231C515.65 187.714 515.935 188.272 516.1 188.87C516.232 189.369 516.279 189.886 516.24 190.4Z" fill="#382F44"/>
<path opacity="0.1" d="M510.11 185.4L490.4 203.06C488.949 201.2 488.008 198.994 487.67 196.66L501 184.73L510.11 185.4Z" fill="#F3F4FE"/>
<path opacity="0.1" d="M516.1 188.87L495.67 207.18C494.522 206.665 493.451 205.992 492.49 205.18L513.84 186.04C514.391 186.331 514.876 186.733 515.264 187.22C515.653 187.707 515.938 188.268 516.1 188.87V188.87Z" fill="#F3F4FE"/>
<path opacity="0.1" d="M472.32 182.93L449.07 203.78C448.604 203.318 448.243 202.761 448.014 202.146C447.784 201.532 447.691 200.874 447.74 200.22L448.07 195.82L463.2 182.26L472.32 182.93Z" fill="#F3F4FE"/>
<path opacity="0.1" d="M477.14 187.46L457.05 205.46L452.05 205.11L475.51 184.11C476.003 184.521 476.403 185.033 476.684 185.61C476.965 186.188 477.121 186.818 477.14 187.46V187.46Z" fill="#F3F4FE"/>
<path d="M464.5 177.45L518.83 181.39C521.124 181.556 523.427 181.269 525.61 180.545C527.793 179.821 529.811 178.674 531.55 177.169C533.29 175.665 534.715 173.833 535.747 171.777C536.778 169.722 537.394 167.484 537.56 165.19C537.967 159.578 537.265 153.94 535.493 148.6C533.722 143.259 530.915 138.319 527.234 134.063C523.553 129.808 519.069 126.319 514.04 123.796C509.01 121.273 503.532 119.766 497.92 119.36L494.13 119.08C482.796 118.26 471.601 121.976 463.006 129.409C454.411 136.843 449.122 147.386 448.3 158.72C448.134 161.014 448.421 163.317 449.145 165.5C449.869 167.683 451.016 169.701 452.521 171.44C454.025 173.18 455.857 174.606 457.913 175.637C459.968 176.668 462.206 177.284 464.5 177.45V177.45Z" fill="#DB5A9A"/>
<path d="M537.68 162C537.68 163 537.68 164.1 537.56 165.15C537.394 167.444 536.778 169.682 535.747 171.737C534.715 173.793 533.29 175.625 531.55 177.129C529.811 178.634 527.792 179.781 525.61 180.505C523.427 181.229 521.123 181.516 518.83 181.35L506.71 180.47C509.967 179.359 512.826 177.314 514.929 174.59C517.033 171.865 518.289 168.583 518.54 165.15C518.62 164.1 518.66 163.04 518.66 162C518.65 151.831 515.023 141.997 508.428 134.256C501.833 126.516 492.699 121.374 482.66 119.75C486.444 119.002 490.313 118.766 494.16 119.05L497.94 119.31C508.728 120.1 518.818 124.938 526.188 132.856C533.558 140.773 537.663 151.183 537.68 162Z" fill="#CC488E"/>
<path d="M476.12 250.4H507.12C508.361 250.4 509.552 250.893 510.429 251.771C511.307 252.648 511.8 253.839 511.8 255.08V263.27H471.44V255.08C471.44 254.465 471.561 253.857 471.796 253.289C472.031 252.721 472.376 252.205 472.811 251.771C473.245 251.336 473.761 250.991 474.329 250.756C474.897 250.521 475.505 250.4 476.12 250.4Z" fill="#FFF2EE"/>
<path d="M658.508 375.386C662.315 371.106 661.932 364.553 657.655 360.749C653.378 356.944 646.825 357.329 643.018 361.609L611.65 396.878C607.844 401.157 608.226 407.71 612.504 411.515C616.781 415.319 623.334 414.934 627.14 410.654L658.508 375.386Z" fill="#FFF2EE"/>
<path d="M407.713 271.993C413.016 269.832 415.565 263.783 413.405 258.481C411.245 253.18 405.194 250.635 399.89 252.796L356.18 270.607C350.876 272.768 348.327 278.818 350.488 284.119C352.648 289.42 358.698 291.966 364.002 289.804L407.713 271.993Z" fill="#F9CABD"/>
<path d="M531.395 155.963L455.724 150.473C448.48 149.947 442.182 155.391 441.657 162.632C441.132 169.872 446.578 176.168 453.821 176.694L529.492 182.184C536.736 182.71 543.034 177.266 543.559 170.025C544.085 162.785 538.638 156.489 531.395 155.963Z" fill="#5787A0"/>
<path d="M497.547 162.16L454.321 159.024C451.153 158.794 448.4 161.173 448.17 164.338C447.94 167.502 450.322 170.254 453.489 170.484L496.715 173.62C499.883 173.85 502.637 171.471 502.866 168.306C503.096 165.142 500.714 162.39 497.547 162.16Z" fill="#6197AF"/>
<path d="M543.61 169V170C543.357 173.478 541.732 176.714 539.094 178.994C536.455 181.274 533.018 182.413 529.54 182.16L515.7 181.16C517.419 181.283 519.146 181.065 520.781 180.52C522.416 179.976 523.927 179.114 525.229 177.985C526.531 176.855 527.598 175.481 528.369 173.939C529.139 172.398 529.598 170.719 529.72 169C529.72 168.67 529.72 168.35 529.72 168C529.718 164.681 528.458 161.486 526.195 159.059C523.931 156.632 520.831 155.153 517.52 154.92L531.37 155.92C534.686 156.15 537.791 157.627 540.062 160.053C542.333 162.48 543.6 165.677 543.61 169V169Z" fill="#44788E"/>
<path d="M458.78 149.25C458.555 149.249 458.331 149.208 458.12 149.13C457.629 148.949 457.228 148.583 457.004 148.11C456.779 147.637 456.749 147.095 456.92 146.6C464.34 125.78 481.75 124.22 482.49 124.16C483.021 124.12 483.545 124.293 483.948 124.64C484.351 124.987 484.6 125.48 484.64 126.01C484.68 126.54 484.507 127.065 484.16 127.468C483.813 127.871 483.321 128.12 482.79 128.16C482.13 128.16 467.17 129.68 460.65 147.98C460.503 148.356 460.245 148.678 459.912 148.905C459.578 149.131 459.184 149.252 458.78 149.25Z" fill="#E288B9"/>
<path d="M561.101 537.638C560.573 534.372 557.5 532.152 554.237 532.679C550.974 533.207 548.756 536.282 549.284 539.548L578.424 719.858C578.951 723.124 582.024 725.344 585.288 724.817C588.551 724.289 590.768 721.214 590.24 717.949L561.101 537.638Z" fill="#A8D4E5"/>
<defs>
<linearGradient id="paint0_linear" x1="500.023" y1="170.58" x2="500.023" y2="877.53" gradientUnits="userSpaceOnUse">
<stop stop-color="#FF6725" stop-opacity="0.44"/>
<stop offset="1" stop-color="#FF0763" stop-opacity="0.96"/>
</linearGradient>
</defs>
</svg>
