<svg viewBox="0 0 1000 1000" xmlns="http://www.w3.org/2000/svg"><path d="m982.75 524.22a110.13 110.13 0 0 1 -110.17 110.17h-89.84a19.48 19.48 0 1 0 0 39h26.83a67.16 67.16 0 0 1 66.43 57.28 67.63 67.63 0 0 1 .71 9.81 67.16 67.16 0 0 1 -67.14 67.15h-6.27a69.89 69.89 0 0 0 -69.9 69.9h-491v-34.36a35.54 35.54 0 0 0 -35.54-35.54 66.92 66.92 0 0 1 -47.19-19.39l-.29-.28a67.19 67.19 0 0 1 -11.38-79.96 64 64 0 0 1 4.9-7.57 65.36 65.36 0 0 1 6.59-7.62 67 67 0 0 1 47.29-19.48h121.7a19.48 19.48 0 0 0 0-39h-201.05a110.2 110.2 0 0 1 -108-88.56c-.25-1.18-.46-2.38-.66-3.58a109 109 0 0 1 -1.47-17.16c-.26-34.81 16.16-66 41.64-86.4a111.54 111.54 0 0 1 69.84-24.63h121a18 18 0 0 0 18-18.14c-.07-10-8.5-17.9-18.48-17.9h-42.48a67.15 67.15 0 0 1 -50.73-111.13c.49-.57 1-1.14 1.52-1.69a66.94 66.94 0 0 1 49.21-21.47h210.43a36.44 36.44 0 0 0 25.85-10.67 35.43 35.43 0 0 0 3.77-4.43 36.33 36.33 0 0 0 6.94-21.42 36.56 36.56 0 0 1 36.56-36.57h254.87a36.53 36.53 0 0 1 36.56 36.57v7.24a29.33 29.33 0 0 0 22.52 28.52 28.77 28.77 0 0 0 6.8.8 67.15 67.15 0 1 1 0 134.29h-87.7a18 18 0 0 0 0 36h149.16a109.21 109.21 0 0 1 13.37.81q1.84.22 3.66.51a110.28 110.28 0 0 1 85.75 69.09l.06.16a109.56 109.56 0 0 1 6.71 27.92v.05a105.46 105.46 0 0 1 .61 10.88c.01.33.01.58.01.8z" fill="#f3f4fe"/><rect fill="#d2d6fa" height="17.61" rx="8.8" width="809.94" x="78.71" y="875.3"/><path d="m653.47 624.28-51.02 127.86-97.12-86.4-178.89-159.14-3.74-129.76-2.39-83.19 60.37 59.91z" fill="#bdc7ef"/><g fill="#cbd2f7"><path d="m573.32 659.05-68 6.69-352.39 34.7a65.36 65.36 0 0 1 6.59-7.62 67 67 0 0 1 47.29-19.48h121.7a19.48 19.48 0 0 0 0-39h-201.08a110.21 110.21 0 0 1 -108.7-92.14l155.52-128.15 43.75-36.05 37.23-30.69 65.11-53.67 56.1 81z"/><path d="m876.71 740.48a67.16 67.16 0 0 1 -67.14 67.15h-6.27a69.89 69.89 0 0 0 -69.9 69.9h-491v-34.36a35.54 35.54 0 0 0 -35.54-35.54 66.92 66.92 0 0 1 -47.19-19.39l-.29-.28a67.12 67.12 0 0 1 47.48-114.62h121.7a19.46 19.46 0 0 0 18.77-14.29h416.67a19.49 19.49 0 0 0 18.78 14.29h26.83a67.13 67.13 0 0 1 67.14 67.14z"/><path d="m982.75 524.22a110.13 110.13 0 0 1 -110.17 110.17h-89.84a19.48 19.48 0 1 0 0 39h26.83a67.16 67.16 0 0 1 66.43 57.28h-170.81l-131.87-71.62 316.29-243.68a110.28 110.28 0 0 1 85.75 69.09l.06.16a109.56 109.56 0 0 1 6.71 27.92v.05c.35 5 .57 8.8.61 10.88.01.28.01.53.01.75z"/><path d="m124.78 489.28-105.39 56.55c-.25-1.18-.46-2.38-.66-3.58a109 109 0 0 1 -1.47-17.16c-.26-34.81 16.16-66 41.64-86.4z"/></g><path d="m380.68 353.56-4.27 21.11-56.1-81.02z" fill="#f0f1f7"/><path d="m376.41 374.67-32.15-17.68-16.1 24.15-5.46-4.3-21.1-16.63-28.97 12.88-17.43-25.77 65.11-53.67z" fill="#fff"/><circle cx="500.22" cy="118.85" fill="#5787a0" r="11.75"/><path d="m511.94 119.7a11.75 11.75 0 0 1 -12.58 10.87 12 12 0 0 1 -3.79-.91 11.76 11.76 0 0 0 0-21.62 11.76 11.76 0 0 1 16.34 11.66z" fill="#44788e"/><rect fill="#ffb2bf" height="45.99" rx="8.41" transform="matrix(-.98166047 .19063767 -.19063767 -.98166047 1343.87 712.6)" width="16.82" x="629.23" y="397.97"/><path d="m779.4 869.14a2 2 0 0 1 -3.82.58l-124.08-394.45-4-12.77-1.58-5 16.31-4.86 1.43 5.07 3.63 12.88 112.05 398a2 2 0 0 1 .06.55z" fill="#5787a0"/><path d="m779.4 869.14a2 2 0 0 1 -3.81.61l-112.05-398-3.63-12.88-1.42-5 3.73-1.11 1.43 5.07 3.63 12.88 112.05 398a2 2 0 0 1 .07.43z" fill="#619bb5"/><path d="m667.27 470.57-15.77 4.7-4.02-12.77 16.16-4.81z" fill="#427084"/><path d="m646 399.62a11.14 11.14 0 0 1 11.14 11.14v45.48a0 0 0 0 1 0 0h-22.3a0 0 0 0 1 0 0v-45.49a11.14 11.14 0 0 1 11.16-11.13z" fill="#5787a0" transform="matrix(.95837242 -.2855211 .2855211 .95837242 -95.3 202.28)"/><rect fill="#5787a0" height="13.38" rx="6.69" transform="matrix(.95837242 -.2855211 .2855211 .95837242 -104.46 206.53)" width="45.06" x="633.44" y="454.77"/><path d="m673.06 463.35-10.53 3.14a6.68 6.68 0 0 0 -3.1-12.6 7.06 7.06 0 0 0 -1.92.27l-4.51 1.35v-.13l-13-43.45a11.06 11.06 0 0 0 -7.55-7.5 11.09 11.09 0 0 1 8.62-4.09 11.14 11.14 0 0 1 10.67 7.94l13 43.59 4.52-1.35a6.58 6.58 0 0 1 1.9-.28 6.69 6.69 0 0 1 1.91 13.11z" fill="#619bb5"/><path d="m543.84 827.22h-74.48l-22.56-422.29h74.47z" fill="#5787a0"/><path d="m543.83 827.22h-11.71l-22.57-422.29h11.72z" fill="#699cb2"/><path d="m551.75 879.2-4.22-70.3-2.26-37.64-2-32.87a7.11 7.11 0 0 0 -7.1-6.69h-74.52a7.12 7.12 0 0 0 -7.1 7.58l2.05 32 2.4 37.62 2.55 39.73a37.76 37.76 0 0 0 -34.41 37.61 2.2 2.2 0 0 0 2.2 2.21h113.66a8.71 8.71 0 0 0 8.75-9.25z" fill="#ffd9cd"/><path d="m551.75 879.2-4.22-70.3-2.26-37.64-2-32.87a7.11 7.11 0 0 0 -7.1-6.69h-74.52a7.12 7.12 0 0 0 -7.1 7.58l2.05 32 2.4 37.62 2.55 39.73a37.76 37.76 0 0 0 -34.41 37.61 2.2 2.2 0 0 0 2.2 2.21h113.66a8.71 8.71 0 0 0 8.75-9.25z" fill="#ffd9cd"/><path d="m543 888.44h-14.32a8.71 8.71 0 0 0 8.71-9.24l-4.22-70.3-2.26-37.64-2-32.87a7.11 7.11 0 0 0 -7.1-6.69h14.39a7.11 7.11 0 0 1 7.1 6.69l2 32.87 2.26 37.64 4.22 70.3a8.71 8.71 0 0 1 -8.78 9.24z" fill="#f9e5e1"/><path d="m547.53 808.9h-88.52l-2.41-37.64h88.67z" fill="#cc488e"/><path d="m495 146.41h2.11a33 33 0 0 1 33 33v77.94a13.95 13.95 0 0 1 -13.95 13.95h-53.48a13.95 13.95 0 0 1 -13.95-13.95v-64.72a46.22 46.22 0 0 1 46.27-46.22z" fill="#2b2137"/><path d="m479.17 297.46-45 30.51-19.69 13.35a23.45 23.45 0 1 1 -26.33-38.8l22.45-15.22 2.63-1.79 39.59-26.86a23.44 23.44 0 0 1 26.31 38.81z" fill="#f9cabd"/><path d="m423.83 327.58a23.45 23.45 0 0 1 -37.93 11.83l-.68-.61c-.23-.21-.43-.41-.64-.62l-.25-.25-.41-.44c-.33-.36-.66-.72-.95-1.1s-.43-.54-.64-.82a22.82 22.82 0 0 1 -1.73-2.69c-.15-.26-.28-.52-.41-.79s-.27-.54-.39-.82c-.27-.6-.53-1.22-.75-1.85l-23.41-66.29-2.64-7.39a25.93 25.93 0 0 1 -.77-2.62 23.44 23.44 0 0 1 45-13l26 73.68a23.33 23.33 0 0 1 .6 13.78z" fill="#f9cabd"/><path d="m405.71 264.11-40.29 16.89-3 1.27-6.72-19-.05-.15-1.08-3.06-1.57-4.32a27.17 27.17 0 0 1 -.76-2.63 23.45 23.45 0 0 1 44.12-15.11c.31.68.6 1.4.87 2.12z" fill="#ffb2bf"/><path d="m423.82 327.58a23.44 23.44 0 0 1 -37.92 11.83c-.22-.2-.46-.4-.68-.61s-.44-.41-.64-.62l-.25-.25c-.14-.14-.27-.29-.42-.43-.32-.36-.65-.73-1-1.11l-.63-.82a23.28 23.28 0 0 1 -1.73-2.69c-.15-.27-.28-.52-.4-.78a6.84 6.84 0 0 1 -.39-.83c-.28-.6-.53-1.22-.76-1.85l-16.64-47.11 43.3-18.2 17.56 49.69a23.25 23.25 0 0 1 .6 13.78z" fill="#f9cabd"/><ellipse cx="366.8" cy="241.05" fill="#ffb2bf" rx="24.8" ry="31.46" transform="matrix(.35086122 -.93642747 .93642747 .35086122 12.39 499.97)"/><path d="m409.85 343.38-.87.33a23.48 23.48 0 0 1 -23.08-4.29l-.68-.62c-.23-.2-.44-.41-.64-.62l-.25-.25c-.14-.14-.27-.29-.42-.43-.32-.36-.65-.73-1-1.1l-.63-.82a24.31 24.31 0 0 1 -1.73-2.7 8.2 8.2 0 0 1 -.4-.78 5.22 5.22 0 0 1 -.39-.83c-.28-.6-.53-1.22-.76-1.85l-16.64-47.11 3-1.27 16.72 47.39c.23.62.48 1.24.75 1.85a8.69 8.69 0 0 0 .4.81 8.52 8.52 0 0 0 .4.8 25.05 25.05 0 0 0 1.72 2.69l.65.82c.29.37.62.74.95 1.09.13.16.27.29.41.44a3 3 0 0 0 .25.25 7.52 7.52 0 0 0 .64.62l.68.62a23.52 23.52 0 0 0 20.92 4.96z" fill="#ffd9cd"/><path d="m365.42 281-3 1.27-6.72-19c-1.12-.5-2.2-1.06-3.25-1.65l-.63-.37c-.24-.13-.48-.27-.7-.41s-.71-.45-1.06-.69-.7-.47-1-.71-.67-.49-1-.74-.38-.29-.56-.45-.53-.41-.78-.63-.41-.35-.61-.53-.55-.49-.82-.75-.58-.54-.85-.83c-.57-.57-1.1-1.15-1.59-1.73-.26-.29-.5-.6-.74-.89a11.59 11.59 0 0 1 -.76-1 20 20 0 0 1 -1.22-1.77 27.58 27.58 0 0 1 -2.84-5.94c-.1-.32-.21-.65-.3-1s-.18-.67-.26-1-.12-.52-.17-.77a20.51 20.51 0 0 1 .81-11.4c.15-.4.32-.8.49-1.19 0-.06.05-.12.08-.17.32-.66.66-1.31 1-1.93.11-.17.2-.34.32-.5.21-.33.42-.65.66-1 .25-.34.52-.68.8-1s.58-.68.89-1l.7-.7.31-.27c.31-.31.64-.58 1-.86s.72-.57 1.09-.83.73-.53 1.13-.78l.12-.08c.3-.2.63-.4 1-.58a27.62 27.62 0 0 1 5.41-2.34c.44-.14.89-.26 1.34-.38-6.17 2.36-11 6.72-13.23 12.65-4.1 10.94 2.09 23.74 14.13 31a36.69 36.69 0 0 0 4.22 2.22l.91 2.54z" fill="#f9a0b4"/><path d="m633.04 832.99h-74.46l-69.12-402.61h75.08z" fill="#8ab6c9"/><path d="m446.8 373.61a85.32 85.32 0 0 1 85.32 85.32v36.61a0 0 0 0 1 0 0h-85.32a0 0 0 0 1 0 0v-121.93a0 0 0 0 1 0 0z" fill="#8ab6c9" transform="matrix(-1 0 0 -1 978.92 869.14)"/><rect fill="#5787a0" height="13.68" rx="6.84" transform="matrix(-1 0 0 -1 978.92 760.89)" width="99.71" x="439.6" y="373.61"/><path d="m446.8 311.84h85.32v61.76h-85.32z" fill="#fff2ee" transform="matrix(-1 0 0 -1 978.92 685.45)"/><path d="m532.12 311.84h-85.32v28.27l85.32-7.37z" fill="#ffd9cd"/><path d="m668.31 398.22a23.38 23.38 0 0 1 -39.59 18l-92-88.87-30-29a23.38 23.38 0 0 1 32.49-33.64l122 117.84a23.31 23.31 0 0 1 7.1 15.67z" fill="#fff2ee"/><path d="m661.78 415.69a23.38 23.38 0 0 1 -33.07.58l-.72-.7-11.99-11.57 7.14-9.11 21.86-27.89 16.2 15.64a23.4 23.4 0 0 1 .57 33.07z" fill="#ffb2bf"/><ellipse cx="655.04" cy="408.59" fill="#ffb2bf" rx="26.44" ry="31.38" transform="matrix(.62578735 -.77999372 .77999372 .62578735 -73.57 663.82)"/><path d="m623.12 394.86-7.12 9.14-109.3-105.57q-.51-.48-1-1l-.12-.12c-.26-.29-.52-.6-.77-.89l-.15-.21c-.23-.28-.45-.57-.66-.86a1.66 1.66 0 0 1 -.16-.21l-.64-.93a.54.54 0 0 0 -.09-.15 23.87 23.87 0 0 1 -1.82-3.51c0-.05 0-.11-.05-.16-.15-.34-.28-.69-.4-1l-.08-.23c-.12-.34-.22-.68-.32-1a1.39 1.39 0 0 0 -.06-.19c-.11-.4-.2-.78-.29-1.18a.2.2 0 0 1 0-.05 23.36 23.36 0 0 1 6-21.32 1 1 0 0 0 .21-.21c5-4.9 13 .61 10.46 7.14a23.36 23.36 0 0 0 5.57 25.24z" fill="#ffd9cd"/><path d="m679.52 428.23a23.11 23.11 0 0 1 -10.31 7.27.55.55 0 0 1 -.17.05 26.3 26.3 0 0 1 -3.29.93l-.41.07-1.41.23a1.75 1.75 0 0 1 -.33.05c-.57.08-1.15.13-1.73.17a1.42 1.42 0 0 0 -.3 0c-.5 0-1 0-1.49 0h-.44c-1.19 0-2.38-.1-3.58-.24l-.43-.07c-.5-.06-1-.14-1.51-.25l-.33-.05c-.6-.12-1.21-.26-1.82-.42l-.29-.08c-.51-.13-1-.29-1.54-.45l-.41-.13a38.12 38.12 0 0 1 -3.61-1.43l-.35-.17c-.53-.25-1-.51-1.56-.79a1.55 1.55 0 0 1 -.22-.12c-.6-.32-1.21-.66-1.79-1l-.15-.11c-.55-.33-1.07-.68-1.6-1.05a2.07 2.07 0 0 1 -.25-.19c-.58-.41-1.15-.83-1.71-1.28a36 36 0 0 1 -8.56-9.82s0-.06-.07-.1a1.17 1.17 0 0 1 -.05-.11 32 32 0 0 1 -1.82-3.6l-11.99-11.54 7.14-9.11 3.09 3 17.45 16.86a13.72 13.72 0 0 0 3.81 8c7.26 7.81 23 10.37 31.74-2a25.51 25.51 0 0 0 4.94-12.29c1.23 7.08-.17 14.21-4.65 19.77z" fill="#f9a0b4"/><path d="m509 236.46-1.31 7.54-2.8 16.17a13.21 13.21 0 1 1 -26-4.48l.29-1.7 3.8-22a13.21 13.21 0 1 1 26 4.49z" fill="#ffb2bf"/><path d="m548.11 301.88v.79a24.13 24.13 0 0 1 -13.89 21.86l-28.44-30.53a23.29 23.29 0 0 1 -6.27-16.28h24.49a24.13 24.13 0 0 1 24.11 24.16z" fill="#ffd9cd"/><path d="m433.28 255.17h101a0 0 0 0 1 0 0 46.21 46.21 0 0 1 -46.21 46.21h-8.63a46.21 46.21 0 0 1 -46.21-46.21 0 0 0 0 1 .05 0z" fill="#fff2ee" transform="matrix(-1 0 0 -1 967.6 556.54)"/><rect fill="#fff2ee" height="49.06" rx="24.13" transform="matrix(-1 0 0 -1 964.12 604.55)" width="123.64" x="420.24" y="277.74"/><path d="m537.72 318.78a24.08 24.08 0 0 1 -18 8h-75.34a24.13 24.13 0 0 1 -24.15-24.12v-.81a24.06 24.06 0 0 1 10.56-19.93 24 24 0 0 0 -5.73 15.6v.81a24.13 24.13 0 0 0 24.13 24.13h75.38a24.05 24.05 0 0 0 12.83-3.69z" fill="#ffd9cd"/><circle cx="515.99" cy="440.53" fill="#8ab6c9" r="49.59"/><g fill="#a8d4e5"><path d="m633 833h-74.43l-.63-3.66h65.3l-62.5-367.41-5.37-31.54-.07-.41-.51-3.05a0 0 0 0 1 0 0v-.16a49.61 49.61 0 0 0 -26.46-34.25 49.66 49.66 0 0 1 36.27 37.91l.62 3.63a.88.88 0 0 0 0 .21z"/><path d="m554.75 426.72v.16a.94.94 0 0 0 0-.16z"/><path d="m555.3 430 .07.41c-.03-.16-.06-.31-.07-.41z"/><path d="m565.16 434-.62-3.63c.25 1.2.46 2.41.62 3.63z"/><path d="m554.77 426.88a.94.94 0 0 0 0-.16z"/><path d="m555.37 430.38c0-.13 0-.28-.05-.41z"/></g><path d="m509 236.46-1.31 7.54a44.31 44.31 0 0 1 -28.55 10l3.8-22a13.21 13.21 0 1 1 26 4.49z" fill="#f9a0b4"/><path d="m530 178.4-1.49 28.85a44.44 44.44 0 0 1 -46.67 42.08 34.28 34.28 0 0 1 -32.47-36l1.25-24.21v-.44c0-.67.09-1.32.16-2a46 46 0 0 1 47.53-41.2h.62l1.45.08a30.56 30.56 0 0 1 5.86.86 31.24 31.24 0 0 1 23.76 31.98z" fill="#ffb2bf"/><path d="m536.29 198.94-8.54-17.83a17 17 0 0 0 -3.28-4.62l1-.21c.36-.11 1.25-4.88 1.25-5.24a.67.67 0 0 0 0-.24 40.41 40.41 0 0 0 -20.37-24.34 30.56 30.56 0 0 0 -5.86-.86l-1.45-.08h-.62a46 46 0 0 0 -47.53 41.2 40.32 40.32 0 0 0 24.94.43l13.47-2.94a20.62 20.62 0 0 1 23 11.23 16.87 16.87 0 0 0 22.5 7.93 3.31 3.31 0 0 0 1.49-4.43z" fill="#f9a0b4"/><path d="m511 163.08h4.2a21.41 21.41 0 0 1 21.41 21.41v17a4.2 4.2 0 0 1 -4.2 4.2 21.41 21.41 0 0 1 -21.41-21.45v-21.16a0 0 0 0 1 0 0z" fill="#2b2137"/><circle cx="527.3" cy="198.81" fill="#ffb2bf" r="13.92"/><path d="m532 198.76a5.91 5.91 0 0 0 -3.33-5.66 1.7 1.7 0 0 0 -2.39 1.48l-.42 7.72a1.73 1.73 0 0 0 2.38 1.68 6 6 0 0 0 3.76-5.22z" fill="#f9a0b4"/><g fill="#8ab6c9"><path d="m462.55 373.61h5.02v13.68h-5.02z"/><path d="m483.8 373.61h5.02v13.68h-5.02z"/><path d="m505.05 373.61h5.02v13.68h-5.02z"/></g><circle cx="463.17" cy="193.28" fill="#ffd9cd" r="3.31"/><circle cx="493.36" cy="193.28" fill="#ffd9cd" r="3.31"/><g fill="#db5a9a"><ellipse cx="478.1" cy="211.54" rx="3.74" ry="4.48" transform="matrix(.00733032 -.99997313 .99997313 .00733032 263.06 688.08)"/><ellipse cx="484.92" cy="211.59" rx="3.74" ry="4.48" transform="matrix(.00733032 -.99997313 .99997313 .00733032 269.79 694.95)"/><path d="m473.62 211.51 15.78.11c0 3.36-3.57 6.06-7.93 6s-7.87-2.75-7.85-6.11z"/></g><path d="m484.92 212.53c0 1.16-1.62 2.09-3.61 2.08s-3.58-1-3.57-2.13" fill="#ea8bbf"/><path d="m646.6 848.47h-88.2l-7.69-39.57-7.31-37.64-5.84-30a8 8 0 0 1 7.85-9.52h72.59a8 8 0 0 1 7.87 6.52l6.2 33 7.09 37.64z" fill="#fff2ee"/><path d="m650.3 866.77-4.43-22.15-6.7-35.72-7.09-37.64-6.2-33a8 8 0 0 0 -7.88-6.56h-72.6a8 8 0 0 0 -7.85 9.52l5.84 30 7.31 37.64 7.69 39.57h.05v.13a37.77 37.77 0 0 0 -34.81 37.64 2.2 2.2 0 0 0 2.2 2.21h106.69a18.13 18.13 0 0 0 17.78-21.64z" fill="#fff2ee"/><path d="m632.52 888.44h-17.61a18.12 18.12 0 0 0 17.78-21.67l-4.42-22.15-6.71-35.72-7.09-37.64-6.2-33a8 8 0 0 0 -7.87-6.52h17.6a8 8 0 0 1 7.87 6.52l6.2 33 7.09 37.64 6.7 35.72 4.42 22.15a18.11 18.11 0 0 1 -17.76 21.67z" fill="#fffdfd"/><path d="m639.17 808.9h-88.46l-7.32-37.64h88.69z" fill="#db5a9a"/><path d="m639.17 808.9h-57.6l-15.75-16.38 10.98-21.26h55.33z" fill="#8ab6c9"/><path d="m547.53 808.9h-51.53l-15.75-16.38 10.98-21.26h54.04z" fill="#5787a0"/><path d="m547.53 808.9h-14.36l-2.26-37.64h14.36z" fill="#8ab6c9"/><g fill="#2b2137"><path d="m476.77 176.61h8.15v27.38h-8.15z" transform="matrix(.07410849 -.99725019 .99725019 .07410849 255.4 655.7)"/><path d="m512.74 212.47-12.53-.93a17.07 17.07 0 0 1 -15.76-18.29l.49-6.6a5.63 5.63 0 0 1 6-5.2l23.94 1.78a5.63 5.63 0 0 1 5.2 6l-1.34 18a5.62 5.62 0 0 1 -6 5.24z"/><path d="m449.37 207.76 12.53.93a17.07 17.07 0 0 0 18.3-15.76l.49-6.59a5.63 5.63 0 0 0 -5.2-6l-23.94-1.78a5.64 5.64 0 0 0 -6 5.2l-1.34 18a5.63 5.63 0 0 0 5.16 6z"/></g><path d="m477.14 187.46a2.42 2.42 0 0 1 0 .38l-.39 5.31a13.74 13.74 0 0 1 -14.75 12.67l-5-.37-5-.35h-.15a4.53 4.53 0 0 1 -4.19-4.86l.33-4.4.75-10.09a4.54 4.54 0 0 1 4.86-4.18l9.52.71 9.12.67.62.06a4.37 4.37 0 0 1 2.6 1.07 4.54 4.54 0 0 1 1.68 3.38z" fill="#382f44"/><path d="m516.24 190.4-1.08 14.48a4.54 4.54 0 0 1 -4.86 4.19l-10.07-.74a13.69 13.69 0 0 1 -7.74-3.13 14.1 14.1 0 0 1 -2.09-2.14 13.57 13.57 0 0 1 -2.73-6.4 13 13 0 0 1 -.12-3.06l.4-5.29a4.51 4.51 0 0 1 4.85-4.19l8.19.61 9.12.67 1.95.15a4.43 4.43 0 0 1 1.78.51 4.54 4.54 0 0 1 2.26 2.81 4.61 4.61 0 0 1 .14 1.53z" fill="#382f44"/><g fill="#f3f4fe"><path d="m510.11 185.4-19.71 17.66a13.57 13.57 0 0 1 -2.73-6.4l13.33-11.93z" opacity=".1"/><path d="m516.1 188.87-20.43 18.31a13.48 13.48 0 0 1 -3.18-2l21.35-19.14a4.54 4.54 0 0 1 2.26 2.83z" opacity=".1"/><path d="m472.32 182.93-23.25 20.85a4.53 4.53 0 0 1 -1.33-3.56l.33-4.4 15.13-13.56z" opacity=".1"/><path d="m477.14 187.46-20.09 18-5-.35 23.46-21a4.54 4.54 0 0 1 1.63 3.35z" opacity=".1"/></g><path d="m464.5 177.45 54.33 3.94a17.51 17.51 0 0 0 18.73-16.2 42.84 42.84 0 0 0 -39.64-45.83l-3.79-.28a42.85 42.85 0 0 0 -45.83 39.64 17.51 17.51 0 0 0 16.2 18.73z" fill="#db5a9a"/><path d="m537.68 162c0 1 0 2.1-.12 3.15a17.51 17.51 0 0 1 -18.73 16.2l-12.12-.88a17.54 17.54 0 0 0 11.83-15.32c.08-1.05.12-2.11.12-3.15a42.84 42.84 0 0 0 -36-42.25 43 43 0 0 1 11.5-.7l3.78.26a42.87 42.87 0 0 1 39.74 42.69z" fill="#cc488e"/><path d="m476.12 250.4h31a4.68 4.68 0 0 1 4.68 4.68v8.19a0 0 0 0 1 0 0h-40.36a0 0 0 0 1 0 0v-8.19a4.68 4.68 0 0 1 4.68-4.68z" fill="#fff2ee"/><rect fill="#fff2ee" height="67.94" rx="10.37" transform="matrix(.74721842 .66457854 -.66457854 .74721842 417.19 -324.43)" width="20.73" x="624.67" y="352.17"/><rect fill="#f9cabd" height="67.94" rx="10.37" transform="matrix(.37735595 .92606829 -.92606829 .37735595 489.05 -184.78)" width="20.73" x="371.58" y="237.32"/><rect fill="#5787a0" height="26.29" rx="13.15" transform="matrix(.99737801 .07236785 -.07236785 .99737801 13.32 -35.19)" width="102.17" x="441.53" y="153.16"/><rect fill="#6197af" height="11.49" rx="5.75" transform="matrix(.99737801 .07236785 -.07236785 .99737801 13.27 -33.96)" width="54.84" x="448.11" y="160.56"/><path d="m543.61 169v1a13.15 13.15 0 0 1 -14.07 12.16l-13.84-1a13.12 13.12 0 0 0 14.02-12.16c0-.33 0-.65 0-1a13.12 13.12 0 0 0 -12.2-13.08l13.85 1a13.15 13.15 0 0 1 12.24 13.08z" fill="#44788e"/><path d="m458.78 149.25a1.92 1.92 0 0 1 -.66-.12 2 2 0 0 1 -1.2-2.53c7.42-20.82 24.83-22.38 25.57-22.44a2 2 0 0 1 .3 4c-.66 0-15.62 1.52-22.14 19.82a2 2 0 0 1 -1.87 1.27z" fill="#e288b9"/><rect fill="#a8d4e5" height="194.63" rx="5.99" transform="matrix(.98719201 -.1595366 .1595366 .98719201 -92.99 98.91)" width="11.97" x="563.75" y="531.47"/></svg>